<?xml version="1.0" encoding="UTF-8"?>
<svg version="1.1" xmlns="http://www.w3.org/2000/svg" width="156" height="142">
<path d="M0 0 C2.5 1.625 2.5 1.625 4 4 C4.55830555 7.83835067 4.5331368 10.06328758 2.6015625 13.45703125 C-1.12280132 17.097513 -5.29085185 18.47223689 -10.125 20.25 C-11.94019419 20.9424724 -13.75530261 21.63516968 -15.5703125 22.328125 C-16.77324951 22.77526855 -16.77324951 22.77526855 -18.00048828 23.23144531 C-20.02853585 23.97404461 -20.02853585 23.97404461 -22 25 C-21.30438965 24.97381592 -20.6087793 24.94763184 -19.89208984 24.9206543 C-16.71995915 24.81629051 -13.54819022 24.7515494 -10.375 24.6875 C-9.28058594 24.64560547 -8.18617187 24.60371094 -7.05859375 24.56054688 C2.06139297 24.42236526 2.06139297 24.42236526 5.46875 27.109375 C14.32278661 37.22046619 18.9605303 47.6062245 22.6875 60.5 C23.0386084 61.70470947 23.3897168 62.90941895 23.75146484 64.15063477 C25.70278523 71.36830849 27.24535602 77.38873193 23.8359375 84.390625 C19.60437426 89.77625095 16.09640151 93.41400251 9.1328125 94.41015625 C4.09501833 94.65513627 0.11398464 94.61399567 -4.125 91.6875 C-7 89 -7 89 -9 86 C-9.55461914 86.12117188 -10.10923828 86.24234375 -10.68066406 86.3671875 C-13.20287045 86.91572256 -15.72639872 87.45792019 -18.25 88 C-19.12269531 88.19078125 -19.99539062 88.3815625 -20.89453125 88.578125 C-21.73886719 88.75859375 -22.58320312 88.9390625 -23.453125 89.125 C-24.22817383 89.29257813 -25.00322266 89.46015625 -25.80175781 89.6328125 C-28 90 -28 90 -32 90 C-32.10183594 90.74121094 -32.20367187 91.48242188 -32.30859375 92.24609375 C-33.63057769 97.51162301 -37.65695278 101.25103169 -41.92578125 104.4375 C-46.18667156 106.8966912 -49.91811953 107.62960282 -54.78125 106.796875 C-59.05140942 105.26322619 -61.83310507 102.13679136 -65 99 C-67.36507579 96.98854486 -69.73953657 94.98875152 -72.1171875 92.9921875 C-74.36329829 90.61559724 -75.23041296 89.19334391 -76 86 C-75.67050622 77.96356632 -73.52147082 70.27204715 -71.5625 62.5 C-71.24640845 61.20060261 -70.93065081 59.90112394 -70.61523438 58.6015625 C-70.15793945 56.77238281 -70.15793945 56.77238281 -69.69140625 54.90625 C-69.41498291 53.79572266 -69.13855957 52.68519531 -68.85375977 51.54101562 C-68 49 -68 49 -66 48 C-65.33028857 46.6681934 -64.66396214 45.33468217 -64 44 C-58.97753388 38.13313118 -52.25744108 35.72808413 -45.1875 33.125 C-44.13884766 32.7228125 -43.09019531 32.320625 -42.00976562 31.90625 C-34.34378986 29 -34.34378986 29 -32 29 C-31.86078125 27.87271484 -31.86078125 27.87271484 -31.71875 26.72265625 C-30.47686181 22.01832981 -26.85201588 19.72905532 -23 17 C-20.08672524 15.40239771 -17.10148463 14.18272654 -14 13 C-12.14564093 12.25047584 -10.29147255 11.50047972 -8.4375 10.75 C-6.95902667 10.16491162 -5.48011531 9.58092208 -4 9 C-4 8.34 -4 7.68 -4 7 C-6.31 6.34 -8.62 5.68 -11 5 C-10.625 2.5625 -10.625 2.5625 -10 0 C-6.73072973 -1.63463513 -3.42398677 -0.85938008 0 0 Z " fill="#5B53DF" transform="translate(103,11)"/>
<path d="M0 0 C2.5 1.625 2.5 1.625 4 4 C4.55830555 7.83835067 4.5331368 10.06328758 2.6015625 13.45703125 C-1.12280132 17.097513 -5.29085185 18.47223689 -10.125 20.25 C-11.94019419 20.9424724 -13.75530261 21.63516968 -15.5703125 22.328125 C-16.77324951 22.77526855 -16.77324951 22.77526855 -18.00048828 23.23144531 C-20.02853585 23.97404461 -20.02853585 23.97404461 -22 25 C-21.30438965 24.97381592 -20.6087793 24.94763184 -19.89208984 24.9206543 C-16.71995915 24.81629051 -13.54819022 24.7515494 -10.375 24.6875 C-9.28058594 24.64560547 -8.18617187 24.60371094 -7.05859375 24.56054688 C2.06139297 24.42236526 2.06139297 24.42236526 5.46875 27.109375 C14.32278661 37.22046619 18.9605303 47.6062245 22.6875 60.5 C23.0386084 61.70470947 23.3897168 62.90941895 23.75146484 64.15063477 C25.46911638 70.50399861 26.58146882 75.55129221 25 82 C23.4375 84 23.4375 84 22 85 C21.67 83.68 21.34 82.36 21 81 C20.34 81 19.68 81 19 81 C17.98133771 79.34467377 16.98189187 77.67739862 16 76 C15.34 75.67 14.68 75.34 14 75 C14 74.34 14 73.68 14 73 C12.02 73 10.04 73 8 73 C8.33 73.99 8.66 74.98 9 76 C-4.73648649 80.31351351 -4.73648649 80.31351351 -11 79 C-13.64107356 77.59884097 -14.92904997 76.27804503 -17 74 C-17.6875 71.75 -17.6875 71.75 -18 70 C-18.99 69.67 -19.98 69.34 -21 69 C-19.02 68.505 -19.02 68.505 -17 68 C-16.66226563 68.49371094 -16.32453125 68.98742187 -15.9765625 69.49609375 C-15.53054687 70.13675781 -15.08453125 70.77742188 -14.625 71.4375 C-14.18414062 72.07558594 -13.74328125 72.71367188 -13.2890625 73.37109375 C-12.07839147 75.13740928 -12.07839147 75.13740928 -10 76 C-4.03384224 76.63185377 0.70163317 76.01279682 6 73 C9.19292684 69.55499999 10.92544264 67.34203256 11.1875 62.625 C11.23205131 58.79674455 11.23205131 58.79674455 9 55 C8.505 59.95 8.505 59.95 8 65 C4.535 65.495 4.535 65.495 1 66 C1 66.66 1 67.32 1 68 C-0.32 68 -1.64 68 -3 68 C-3 68.66 -3 69.32 -3 70 C-11.14880812 70.70859201 -18.27523059 67.48317961 -25 63 C-22.37684968 61.68842484 -20.76966564 62.10350012 -17.875 62.4375 C-16.96492188 62.53933594 -16.05484375 62.64117187 -15.1171875 62.74609375 C-14.41851562 62.82988281 -13.71984375 62.91367188 -13 63 C-13 62.34 -13 61.68 -13 61 C-11.35 61 -9.7 61 -8 61 C-8.99 59.02 -8.99 59.02 -10 57 C-10.515625 57.66 -11.03125 58.32 -11.5625 59 C-14 61 -14 61 -17.625 61.4375 C-18.73875 61.293125 -19.8525 61.14875 -21 61 C-23.48038907 57.2794164 -23.46337203 55.40203429 -23 51 C-21.3125 48.5 -21.3125 48.5 -19 47 C-15.56394154 47.17180292 -12.99981284 48.39295741 -10 50 C-8.53774984 50.09245003 -8.53774984 50.09245003 -6 48 C-8.64 47.34 -11.28 46.68 -14 46 C-14.19573608 44.56359829 -14.38127816 43.12580496 -14.5625 41.6875 C-14.71912109 40.48673828 -14.71912109 40.48673828 -14.87890625 39.26171875 C-15 37 -15 37 -14 34 C-5.95004713 34.34401508 -5.95004713 34.34401508 -2.375 36.8125 C-1 39 -1 39 -1.25 41.25 C-1.62125 42.11625 -1.62125 42.11625 -2 43 C-2.66 43 -3.32 43 -4 43 C-3.505 44.98 -3.505 44.98 -3 47 C-1.02 46.34 0.96 45.68 3 45 C3 46.32 3 47.64 3 49 C4.65 49 6.3 49 8 49 C6.96355109 39.18769878 6.96355109 39.18769878 2 31 C-9.5961766 25.26127779 -25.40377716 30.18754318 -37 34 C-37.98097656 34.2990625 -38.96195313 34.598125 -39.97265625 34.90625 C-50.53287159 38.21716454 -59.52185667 41.9184954 -65 52 C-65.89171944 54.86268689 -65.89171944 54.86268689 -66.5 57.9375 C-66.74363281 59.07316406 -66.98726562 60.20882812 -67.23828125 61.37890625 C-67.48964844 62.57386719 -67.74101563 63.76882812 -68 65 C-68.28230469 66.22589844 -68.56460938 67.45179687 -68.85546875 68.71484375 C-69.26732422 70.52662109 -69.26732422 70.52662109 -69.6875 72.375 C-69.93886719 73.47585937 -70.19023438 74.57671875 -70.44921875 75.7109375 C-71.56325847 82.28950694 -71.56325847 82.28950694 -69.625 88.4375 C-65.58260252 90.84368898 -61.59120485 90.31542629 -57 90 C-57 90.66 -57 91.32 -57 92 C-62.10666877 93.63413401 -67.00355836 93.7781927 -71.875 91.4375 C-75 89 -75 89 -75.79418945 85.83935547 C-76.0172398 81.67839495 -75.4358956 78.12875981 -74.41796875 74.1328125 C-74.24372879 73.41261932 -74.06948883 72.69242615 -73.88996887 71.95040894 C-73.52186872 70.44134687 -73.14756354 68.93378601 -72.76733398 67.42773438 C-72.18481681 65.11434406 -71.62526708 62.79623607 -71.06835938 60.4765625 C-70.7070656 59.00748318 -70.3444815 57.53872046 -69.98046875 56.0703125 C-69.81266403 55.37559845 -69.64485931 54.6808844 -69.4719696 53.96511841 C-69.04407799 52.29275235 -68.5296237 50.64298454 -68 49 C-67.01 48.505 -67.01 48.505 -66 48 C-65.33028857 46.6681934 -64.66396214 45.33468217 -64 44 C-58.97753388 38.13313118 -52.25744108 35.72808413 -45.1875 33.125 C-44.13884766 32.7228125 -43.09019531 32.320625 -42.00976562 31.90625 C-34.34378986 29 -34.34378986 29 -32 29 C-31.86078125 27.87271484 -31.86078125 27.87271484 -31.71875 26.72265625 C-30.47686181 22.01832981 -26.85201588 19.72905532 -23 17 C-20.08672524 15.40239771 -17.10148463 14.18272654 -14 13 C-12.14564093 12.25047584 -10.29147255 11.50047972 -8.4375 10.75 C-6.95902667 10.16491162 -5.48011531 9.58092208 -4 9 C-4 8.34 -4 7.68 -4 7 C-6.31 6.34 -8.62 5.68 -11 5 C-10.625 2.5625 -10.625 2.5625 -10 0 C-6.73072973 -1.63463513 -3.42398677 -0.85938008 0 0 Z " fill="#AFACED" transform="translate(103,11)"/>
<path d="M0 0 C2.125 2.9375 2.125 2.9375 4 6 C8.09301628 8.72867752 11.19353672 8.50555788 16 8 C19.40237248 7.1824855 22.69902948 6.15775167 26 5 C26 4.34 26 3.68 26 3 C27.98 3 29.96 3 32 3 C32 3.66 32 4.32 32 5 C32.99 5.33 33.98 5.66 35 6 C36.1875 8.5625 36.1875 8.5625 37 11 C37.66 11 38.32 11 39 11 C39.495 13.97 39.495 13.97 40 17 C38.70982586 17.98113243 37.41780894 18.95984199 36.125 19.9375 C35.40570313 20.48277344 34.68640625 21.02804688 33.9453125 21.58984375 C29.12718758 25.08250057 23.75439656 24.66877406 18 24 C13.95929883 22.20490291 11.45837221 19.68755831 9 16 C8.44538086 16.12117188 7.89076172 16.24234375 7.31933594 16.3671875 C4.79712955 16.91572256 2.27360128 17.45792019 -0.25 18 C-1.12269531 18.19078125 -1.99539062 18.3815625 -2.89453125 18.578125 C-4.16103516 18.84882812 -4.16103516 18.84882812 -5.453125 19.125 C-6.22817383 19.29257813 -7.00322266 19.46015625 -7.80175781 19.6328125 C-10 20 -10 20 -14 20 C-14.10183594 20.74121094 -14.20367187 21.48242188 -14.30859375 22.24609375 C-15.63057769 27.51162301 -19.65695278 31.25103169 -23.92578125 34.4375 C-28.18667156 36.8966912 -31.91811953 37.62960282 -36.78125 36.796875 C-41.04648313 35.2649955 -43.84466978 32.14337821 -47 29 C-48.65892281 27.5121536 -50.32556311 26.03286489 -52 24.5625 C-53.33361301 23.3753141 -54.66704985 22.18793011 -56 21 C-55.01 20.67 -54.02 20.34 -53 20 C-52.01 20.66 -51.02 21.32 -50 22 C-47.25481679 22.24187651 -47.25481679 22.24187651 -44.3125 22.125 C-43.31863281 22.10695313 -42.32476562 22.08890625 -41.30078125 22.0703125 C-40.54152344 22.04710938 -39.78226563 22.02390625 -39 22 C-38.89300781 21.38640625 -38.78601563 20.7728125 -38.67578125 20.140625 C-37.76499536 17.25559223 -35.87959057 16.27895494 -33.546875 14.49609375 C-31.2588441 12.28317498 -30.28175519 9.70824858 -29.15234375 6.76953125 C-26.90799154 3.3231192 -23.15761694 3.03511934 -19.3359375 2.18359375 C-18.01656258 1.92996889 -16.69621515 1.68135709 -15.375 1.4375 C-2.6285904 -0.96167941 -2.6285904 -0.96167941 0 0 Z " fill="#878AD1" transform="translate(85,81)"/>
<path d="M0 0 C2.45331002 3.67996503 2.39507893 5.65413172 2 10 C1.01 10.66 0.02 11.32 -1 12 C-1.1953125 10.01432292 -1.390625 8.02864583 -1.5859375 6.04296875 C-1.92665391 3.70011858 -1.92665391 3.70011858 -4 1 C-9.70658818 0.50805274 -14.57005572 1.19001857 -20 3 C-20.33 3.99 -20.66 4.98 -21 6 C-22.2065625 6.6496875 -22.2065625 6.6496875 -23.4375 7.3125 C-26.75601767 9.49786529 -27.14390571 11.18648906 -28 15 C-28 16.32 -28 17.64 -28 19 C-27.01 19 -26.02 19 -25 19 C-25.144375 19.515625 -25.28875 20.03125 -25.4375 20.5625 C-26.15809901 23.68509571 -26.57266439 26.82550692 -27 30 C-31.455 30.495 -31.455 30.495 -36 31 C-36.33 31.99 -36.66 32.98 -37 34 C-39.07421875 35.5 -39.07421875 35.5 -41.6875 37 C-43.04101562 37.77730469 -43.04101562 37.77730469 -44.421875 38.5703125 C-52.40983607 43 -52.40983607 43 -56 43 C-56 43.66 -56 44.32 -56 45 C-57.32 45 -58.64 45 -60 45 C-60 45.66 -60 46.32 -60 47 C-63.01326238 50.82452533 -65.28718579 51.37377674 -70 52 C-68.99323563 35.09695603 -68.99323563 35.09695603 -67 29 C-66.34 28.67 -65.68 28.34 -65 28 C-64.34 28.33 -63.68 28.66 -63 29 C-63 29.66 -63 30.32 -63 31 C-62.34 31 -61.68 31 -61 31 C-61 31.66 -61 32.32 -61 33 C-60.1028125 33.433125 -60.1028125 33.433125 -59.1875 33.875 C-57 35 -57 35 -54 37 C-48.66531571 37.38464895 -48.66531571 37.38464895 -44 35 C-42.79517061 33.2820354 -42.79517061 33.2820354 -41.8125 31.375 C-41.214375 30.26125 -40.61625 29.1475 -40 28 C-42.45224694 28.10613836 -42.45224694 28.10613836 -45 29 C-45.33 29.825 -45.66 30.65 -46 31.5 C-46.33 32.325 -46.66 33.15 -47 34 C-49.625 34.8125 -49.625 34.8125 -52 35 C-52.66 33.02 -53.32 31.04 -54 29 C-55.98 29 -57.96 29 -60 29 C-60 27.02 -60 25.04 -60 23 C-59.05125 22.649375 -58.1025 22.29875 -57.125 21.9375 C-53.65663938 20.2285659 -53.65663938 20.2285659 -52.625 16.3125 C-52.315625 14.6728125 -52.315625 14.6728125 -52 13 C-49.69 13.33 -47.38 13.66 -45 14 C-44.67 15.32 -44.34 16.64 -44 18 C-41.36 18.33 -38.72 18.66 -36 19 C-36.34444881 16.52733235 -36.34444881 16.52733235 -37 14 C-37.66 13.67 -38.32 13.34 -39 13 C-39 12.34 -39 11.68 -39 11 C-46.78454458 10.19884043 -46.78454458 10.19884043 -54.12890625 12.11328125 C-55.87544309 13.62203779 -55.87544309 13.62203779 -58 16 C-58.66 16 -59.32 16 -60 16 C-60.19335938 16.62648438 -60.38671875 17.25296875 -60.5859375 17.8984375 C-60.84632812 18.71570313 -61.10671875 19.53296875 -61.375 20.375 C-61.63023438 21.18710938 -61.88546875 21.99921875 -62.1484375 22.8359375 C-63 25 -63 25 -65 27 C-65.50791521 21.66689031 -64.34625913 19.13879419 -61 15 C-54.31317407 8.6171207 -46.42310069 5.55702919 -37.6875 2.875 C-36.85009277 2.61638184 -36.01268555 2.35776367 -35.14990234 2.09130859 C-8.77903486 -5.89196971 -8.77903486 -5.89196971 0 0 Z " fill="#8981EA" transform="translate(104,43)"/>
<path d="M0 0 C8.04995287 0.34401508 8.04995287 0.34401508 11.625 2.8125 C13 5 13 5 12.75 7.25 C12.5025 7.8275 12.255 8.405 12 9 C11.34 9 10.68 9 10 9 C10.33 10.32 10.66 11.64 11 13 C12.98 12.34 14.96 11.68 17 11 C17 12.32 17 13.64 17 15 C18.65 15 20.3 15 22 15 C22.33 13.68 22.66 12.36 23 11 C24.125 18.75 24.125 18.75 23 21 C22.77377919 22.70363822 22.59111527 24.41328701 22.4375 26.125 C22.35371094 27.03507812 22.26992187 27.94515625 22.18359375 28.8828125 C22.12300781 29.58148438 22.06242187 30.28015625 22 31 C19.69 31.33 17.38 31.66 15 32 C15 32.66 15 33.32 15 34 C13.68 34 12.36 34 11 34 C11 34.66 11 35.32 11 36 C2.85119188 36.70859201 -4.27523059 33.48317961 -11 29 C-8.37684968 27.68842484 -6.76966564 28.10350012 -3.875 28.4375 C-2.96492188 28.53933594 -2.05484375 28.64117187 -1.1171875 28.74609375 C-0.41851562 28.82988281 0.28015625 28.91367188 1 29 C1 28.34 1 27.68 1 27 C2.65 27 4.3 27 6 27 C5.34 25.68 4.68 24.36 4 23 C3.484375 23.66 2.96875 24.32 2.4375 25 C0 27 0 27 -3.625 27.4375 C-4.73875 27.293125 -5.8525 27.14875 -7 27 C-9.48038907 23.2794164 -9.46337203 21.40203429 -9 17 C-7.3125 14.5 -7.3125 14.5 -5 13 C-1.56394154 13.17180292 1.00018716 14.39295741 4 16 C5.46225016 16.09245003 5.46225016 16.09245003 8 14 C5.36 13.34 2.72 12.68 0 12 C-0.19573608 10.56359829 -0.38127816 9.12580496 -0.5625 7.6875 C-0.66691406 6.88699219 -0.77132812 6.08648437 -0.87890625 5.26171875 C-1 3 -1 3 0 0 Z " fill="#5C5BD1" transform="translate(89,45)"/>
<path d="M0 0 C4.94819534 5.21566536 4.77870556 11.1620018 5 18 C3.25160703 14.86622786 2.49249935 11.93581423 1.75 8.4375 C0.57850758 4.11043271 0.57850758 4.11043271 -2.375 0.8125 C-19.31109835 -2.98352204 -41.70928272 3.13427371 -56.69921875 11.5078125 C-60.80267678 14.40526346 -63.67640665 17.54644607 -66 22 C-66 23.32 -66 24.64 -66 26 C-65.566875 24.906875 -65.13375 23.81375 -64.6875 22.6875 C-63.50284606 19.92703279 -62.47277142 17.82770062 -60 16 C-59.34 16 -58.68 16 -58 16 C-57.67 15.01 -57.34 14.02 -57 13 C-52.54547875 10.03031916 -48.09423683 10.65096053 -43 11.5 C-42.34 11.665 -41.68 11.83 -41 12 C-41 12.66 -41 13.32 -41 14 C-40.01 14.33 -39.02 14.66 -38 15 C-38 16.65 -38 18.3 -38 20 C-40.64 20 -43.28 20 -46 20 C-46.495 17.525 -46.495 17.525 -47 15 C-49.31 14.67 -51.62 14.34 -54 14 C-54.0928125 15.6396875 -54.0928125 15.6396875 -54.1875 17.3125 C-55 21 -55 21 -57.4375 22.9375 C-60 24 -60 24 -62 24 C-62 25.98 -62 27.96 -62 30 C-60.02 30 -58.04 30 -56 30 C-55.34 31.65 -54.68 33.3 -54 35 C-51.54775306 34.89386164 -51.54775306 34.89386164 -49 34 C-48.690625 33.175 -48.38125 32.35 -48.0625 31.5 C-47.711875 30.675 -47.36125 29.85 -47 29 C-43.875 28.1875 -43.875 28.1875 -41 28 C-41.76167457 29.46313772 -42.53470707 30.92036661 -43.3125 32.375 C-43.74175781 33.18710938 -44.17101562 33.99921875 -44.61328125 34.8359375 C-46 37 -46 37 -49 39 C-54.58083857 39.75126673 -57.39560274 38.53561289 -61.71484375 35.2890625 C-63 34 -63 34 -63 32 C-63.66 32 -64.32 32 -65 32 C-65 31.34 -65 30.68 -65 30 C-65.99 30 -66.98 30 -68 30 C-68.99 35.28 -69.98 40.56 -71 46 C-75.0630946 37.8738108 -70.7390523 27.30969245 -68 19 C-65.19734551 12.894217 -60.90691674 10.54108871 -55 8 C-53.865625 7.360625 -52.73125 6.72125 -51.5625 6.0625 C-38.9489809 -0.23182018 -12.27646061 -9.20734545 0 0 Z " fill="#5F51C9" transform="translate(106,42)"/>
<path d="M0 0 C7.76950511 6.33070787 10.32079299 17.38543379 12.875 26.625 C13.1946875 27.70523438 13.514375 28.78546875 13.84375 29.8984375 C15.56770623 36.04471623 16.48039781 40.74294917 15 47 C13.4375 49 13.4375 49 12 50 C11.505 48.02 11.505 48.02 11 46 C10.34 46 9.68 46 9 46 C7.98133771 44.34467377 6.98189187 42.67739862 6 41 C5.01 40.505 5.01 40.505 4 40 C4 39.34 4 38.68 4 38 C2.02 38 0.04 38 -2 38 C-1.67 38.99 -1.34 39.98 -1 41 C-14.73648649 45.31351351 -14.73648649 45.31351351 -21 44 C-23.64107356 42.59884097 -24.92904997 41.27804503 -27 39 C-27.6875 36.75 -27.6875 36.75 -28 35 C-28.99 34.67 -29.98 34.34 -31 34 C-29.02 33.505 -29.02 33.505 -27 33 C-26.66226563 33.49371094 -26.32453125 33.98742187 -25.9765625 34.49609375 C-25.53054687 35.13675781 -25.08453125 35.77742188 -24.625 36.4375 C-24.18414062 37.07558594 -23.74328125 37.71367188 -23.2890625 38.37109375 C-22.07839147 40.13740928 -22.07839147 40.13740928 -20 41 C-14.03384224 41.63185377 -9.29836683 41.01279682 -4 38 C-0.89449334 34.64932176 0.93062703 32.41347422 1.15625 27.81640625 C0.99976058 23.99415221 0.38860372 20.6523572 -0.5 16.9375 C-1.55981752 12.49706087 -2.16693008 8.569711 -2 4 C-1.34 4 -0.68 4 0 4 C0 2.68 0 1.36 0 0 Z " fill="#B0B1E5" transform="translate(113,46)"/>
<path d="M0 0 C2.5 1.625 2.5 1.625 4 4 C4.5598578 7.8490224 4.5319046 10.0687986 2.58984375 13.46875 C-1.08444307 17.05990816 -5.15583851 18.3496148 -9.9375 20.0625 C-15.69061412 22.15718106 -20.28668985 23.98429553 -25 28 C-25.99 28 -26.98 28 -28 28 C-28 28.66 -28 29.32 -28 30 C-29.98 30 -31.96 30 -34 30 C-33.34 29.67 -32.68 29.34 -32 29 C-31.8659375 28.22785156 -31.731875 27.45570312 -31.59375 26.66015625 C-30.54567313 21.96449606 -26.78862997 19.68414801 -23 17 C-20.08672524 15.40239771 -17.10148463 14.18272654 -14 13 C-12.14564093 12.25047584 -10.29147255 11.50047972 -8.4375 10.75 C-6.95902667 10.16491162 -5.48011531 9.58092208 -4 9 C-4 8.34 -4 7.68 -4 7 C-6.31 6.34 -8.62 5.68 -11 5 C-10.625 2.5625 -10.625 2.5625 -10 0 C-6.73072973 -1.63463513 -3.42398677 -0.85938008 0 0 Z " fill="#F3AB60" transform="translate(103,11)"/>
<path d="M0 0 C1.98 0 3.96 0 6 0 C6 0.66 6 1.32 6 2 C6.99 2.33 7.98 2.66 9 3 C10.1875 5.5625 10.1875 5.5625 11 8 C11.66 8 12.32 8 13 8 C13.33 9.98 13.66 11.96 14 14 C12.70982586 14.98113243 11.41780894 15.95984199 10.125 16.9375 C9.40570313 17.48277344 8.68640625 18.02804688 7.9453125 18.58984375 C4.87063992 20.81867267 3.12755719 21.11610796 -0.625 21.0625 C-1.85089844 21.04896484 -1.85089844 21.04896484 -3.1015625 21.03515625 C-3.72804688 21.02355469 -4.35453125 21.01195313 -5 21 C-5.061875 20.13375 -5.12375 19.2675 -5.1875 18.375 C-6.23001669 14.04454604 -8.07068014 12.30487369 -11 9 C-11 8.34 -11 7.68 -11 7 C-13.31 7 -15.62 7 -18 7 C-18 6.67 -18 6.34 -18 6 C-17.20335938 5.87882812 -16.40671875 5.75765625 -15.5859375 5.6328125 C-7.65498622 4.38116525 -7.65498622 4.38116525 0 2 C0 1.34 0 0.68 0 0 Z " fill="#8A8CD2" transform="translate(111,84)"/>
<path d="M0 0 C2.9627504 2.9627504 2.93004595 5.24449624 3.3125 9.375 C2.84143797 14.83931959 0.44653342 17.66195658 -3.5 21.3125 C-8.16479077 24.46123377 -13.49927411 24.71705891 -19 24 C-22.6795612 21.80792099 -24.22140449 19.79646397 -26 16 C-27.75763672 16.41572266 -27.75763672 16.41572266 -29.55078125 16.83984375 C-38.0175041 18.80465701 -46.28309638 20.61599544 -55 21 C-52.38058783 19.25372522 -50.96175123 18.61277612 -48 18 C-48 17.34 -48 16.68 -48 16 C-40.33652631 13.13503984 -30.3274484 11.2286727 -22.5 14.375 C-20.7675 15.179375 -20.7675 15.179375 -19 16 C-16.66002515 16.49049473 -14.38198465 16.7518766 -12 17 C-12 16.34 -12 15.68 -12 15 C-10.68 15 -9.36 15 -8 15 C-8 14.34 -8 13.68 -8 13 C-4.535 12.505 -4.535 12.505 -1 12 C-1.01160156 11.30132812 -1.02320313 10.60265625 -1.03515625 9.8828125 C-1.04417969 8.97273438 -1.05320313 8.06265625 -1.0625 7.125 C-1.07410156 6.22007813 -1.08570313 5.31515625 -1.09765625 4.3828125 C-1 2 -1 2 0 0 Z " fill="#4343D8" transform="translate(112,64)"/>
<path d="M0 0 C0.99 0.33 1.98 0.66 3 1 C3 1.66 3 2.32 3 3 C3.66 3 4.32 3 5 3 C5 3.66 5 4.32 5 5 C5.598125 5.28875 6.19625 5.5775 6.8125 5.875 C9 7 9 7 12 9 C17.33468429 9.38464895 17.33468429 9.38464895 22 7 C23.19232613 4.94996045 23.19232613 4.94996045 24 3 C24.33 3.66 24.66 4.32 25 5 C26.65 4.34 28.3 3.68 30 3 C28.75689857 6.7293043 27.65309356 7.08252926 24.3125 9 C22.95898438 9.77730469 22.95898438 9.77730469 21.578125 10.5703125 C13.59016393 15 13.59016393 15 10 15 C10 15.66 10 16.32 10 17 C8.68 17 7.36 17 6 17 C6 17.66 6 18.32 6 19 C2.98673762 22.82452533 0.71281421 23.37377674 -4 24 C-2.73333333 2.73333333 -2.73333333 2.73333333 0 0 Z " fill="#9088EC" transform="translate(38,71)"/>
<path d="M0 0 C8.04995287 0.34401508 8.04995287 0.34401508 11.625 2.8125 C13 5 13 5 12.75 7.25 C12.5025 7.8275 12.255 8.405 12 9 C11.34 9 10.68 9 10 9 C10.11306697 10.95894361 10.11306697 10.95894361 11 13 C13.39068734 14.10636395 13.39068734 14.10636395 16 15 C17.8125 16.3125 17.8125 16.3125 19 18 C19.375 20.5625 19.375 20.5625 19 23 C14.97773307 25.68151128 11.80868567 25 7 25 C6.34 22.03 5.68 19.06 5 16 C5.99 15.34 6.98 14.68 8 14 C5.36 13.34 2.72 12.68 0 12 C-0.19573608 10.56359829 -0.38127816 9.12580496 -0.5625 7.6875 C-0.66691406 6.88699219 -0.77132812 6.08648437 -0.87890625 5.26171875 C-1 3 -1 3 0 0 Z " fill="#6966B8" transform="translate(89,45)"/>
<path d="M0 0 C2.31 0.33 4.62 0.66 7 1 C7.33 2.32 7.66 3.64 8 5 C9.32 5.33 10.64 5.66 12 6 C13.125 10.75 13.125 10.75 12 13 C10.7934375 13.6496875 10.7934375 13.6496875 9.5625 14.3125 C6.79104346 15.77961836 6.79104346 15.77961836 6 18.625 C5.67 19.40875 5.34 20.1925 5 21 C2.375 21.8125 2.375 21.8125 0 22 C-0.66 20.02 -1.32 18.04 -2 16 C-3.98 16 -5.96 16 -8 16 C-8 14.02 -8 12.04 -8 10 C-7.05125 9.649375 -6.1025 9.29875 -5.125 8.9375 C-1.65663938 7.2285659 -1.65663938 7.2285659 -0.625 3.3125 C-0.41875 2.219375 -0.2125 1.12625 0 0 Z " fill="#DB9568" transform="translate(52,56)"/>
<path d="M0 0 C5.39093138 -0.30607852 5.39093138 -0.30607852 7.9453125 1.75390625 C9.30506382 4.87333575 9.68345166 7.8180535 10.0078125 11.19140625 C11.40126415 10.02925235 11.40126415 10.02925235 11.0703125 6.81640625 C11.0496875 5.62015625 11.0290625 4.42390625 11.0078125 3.19140625 C11.0078125 2.20140625 11.0078125 1.21140625 11.0078125 0.19140625 C14.55897471 5.3567331 16.30203835 10.44529833 15.6328125 16.69140625 C15.4265625 17.51640625 15.2203125 18.34140625 15.0078125 19.19140625 C14.5128125 18.20140625 14.5128125 18.20140625 14.0078125 17.19140625 C13.3478125 17.19140625 12.6878125 17.19140625 12.0078125 17.19140625 C12.0078125 15.87140625 12.0078125 14.55140625 12.0078125 13.19140625 C11.4096875 13.70703125 10.8115625 14.22265625 10.1953125 14.75390625 C9.4734375 15.22828125 8.7515625 15.70265625 8.0078125 16.19140625 C7.0178125 15.86140625 6.0278125 15.53140625 5.0078125 15.19140625 C5.0078125 13.87140625 5.0078125 12.55140625 5.0078125 11.19140625 C5.6678125 11.19140625 6.3278125 11.19140625 7.0078125 11.19140625 C6.6778125 9.21140625 6.3478125 7.23140625 6.0078125 5.19140625 C2.3778125 4.20140625 -1.2521875 3.21140625 -4.9921875 2.19140625 C-5.1159375 3.26390625 -5.2396875 4.33640625 -5.3671875 5.44140625 C-5.88862686 8.5700424 -6.39307004 10.52621049 -7.9921875 13.19140625 C-9.3121875 13.19140625 -10.6321875 13.19140625 -11.9921875 13.19140625 C-12.6521875 12.53140625 -13.3121875 11.87140625 -13.9921875 11.19140625 C-14.3221875 11.85140625 -14.6521875 12.51140625 -14.9921875 13.19140625 C-15.9821875 13.19140625 -16.9721875 13.19140625 -17.9921875 13.19140625 C-17.4297924 9.92951469 -16.578137 8.28005777 -13.9921875 6.19140625 C-13.0021875 5.86140625 -12.0121875 5.53140625 -10.9921875 5.19140625 C-10.0640625 4.20140625 -10.0640625 4.20140625 -9.1171875 3.19140625 C-6.15205601 0.40069426 -3.93120375 0.37770389 0 0 Z " fill="#6563E6" transform="translate(93.9921875,42.80859375)"/>
<path d="M0 0 C4.16167734 6.24251601 3.42469522 15.65568367 4 23 C4.66 23 5.32 23 6 23 C6.268125 23.804375 6.53625 24.60875 6.8125 25.4375 C7.4003125 26.7059375 7.4003125 26.7059375 8 28 C8.99 28.33 9.98 28.66 11 29 C11 29.66 11 30.32 11 31 C11.99 31.33 12.98 31.66 14 32 C13.01 32.99 12.02 33.98 11 35 C10.505 33.02 10.505 33.02 10 31 C9.34 31 8.68 31 8 31 C6.98133771 29.34467377 5.98189187 27.67739862 5 26 C4.34 25.67 3.68 25.34 3 25 C3 24.34 3 23.68 3 23 C1.02 23 -0.96 23 -3 23 C-2.67 23.99 -2.34 24.98 -2 26 C-15.73648649 30.31351351 -15.73648649 30.31351351 -22 29 C-24.64107356 27.59884097 -25.92904997 26.27804503 -28 24 C-28.6875 21.75 -28.6875 21.75 -29 20 C-29.99 19.67 -30.98 19.34 -32 19 C-30.68 18.67 -29.36 18.34 -28 18 C-27.66226563 18.49371094 -27.32453125 18.98742187 -26.9765625 19.49609375 C-26.53054687 20.13675781 -26.08453125 20.77742188 -25.625 21.4375 C-25.18414062 22.07558594 -24.74328125 22.71367188 -24.2890625 23.37109375 C-23.07839147 25.13740928 -23.07839147 25.13740928 -21 26 C-15.03384224 26.63185377 -10.29836683 26.01279682 -5 23 C-0.53811607 18.18586208 0.21020149 15.51624608 0 9 C-0.17344818 7.53992874 -0.36079917 6.08143714 -0.5625 4.625 C-0.706875 3.42875 -0.85125 2.2325 -1 1 C-0.67 0.67 -0.34 0.34 0 0 Z " fill="#A2A6F4" transform="translate(114,61)"/>
<path d="M0 0 C0.33 0 0.66 0 1 0 C1 3.96 1 7.92 1 12 C-1.31 12.33 -3.62 12.66 -6 13 C-6 13.66 -6 14.32 -6 15 C-7.32 15 -8.64 15 -10 15 C-10 15.66 -10 16.32 -10 17 C-18.14880812 17.70859201 -25.27523059 14.48317961 -32 10 C-28.95017742 8.47508871 -25.77877461 8.85638566 -22.4375 8.875 C-21.73947266 8.87113281 -21.04144531 8.86726563 -20.32226562 8.86328125 C-15.12663994 8.87336006 -15.12663994 8.87336006 -14 10 C-8.89378148 10.7541095 -8.89378148 10.7541095 -4.39453125 8.80078125 C-2.09610876 6.12490521 -0.40805577 3.53648333 0 0 Z " fill="#9692F7" transform="translate(110,64)"/>
<path d="M0 0 C4.94819534 5.21566536 4.77870556 11.1620018 5 18 C3.25160703 14.86622786 2.49249935 11.93581423 1.75 8.4375 C0.57850758 4.11043271 0.57850758 4.11043271 -2.375 0.8125 C-20.10736816 -3.16199631 -43.7379467 3.63149005 -59 13 C-59.66 13 -60.32 13 -61 13 C-61 12.34 -61 11.68 -61 11 C-46.50485044 3.02881633 -15.23448657 -11.42586493 0 0 Z " fill="#4845BC" transform="translate(106,42)"/>
<path d="M0 0 C1.53166168 4.08443115 0.63081652 7.79455657 0 12 C1.32 12 2.64 12 4 12 C4 12.66 4 13.32 4 14 C6.31 14 8.62 14 11 14 C11 13.01 11 12.02 11 11 C11.66 11 12.32 11 13 11 C13.66 9.35 14.32 7.7 15 6 C16.32 6 17.64 6 19 6 C19.33 5.34 19.66 4.68 20 4 C20.66 4.33 21.32 4.66 22 5 C21.34240149 10.22475532 19.36293339 12.27338556 15.390625 15.53125 C11.40446439 17.98026371 7.62354529 18.66617119 3 18 C-0.125 16 -0.125 16 -2 13 C-2.61370235 8.17805298 -1.75408915 4.49485346 0 0 Z " fill="#504CE7" transform="translate(33,84)"/>
<path d="M0 0 C4.875 0.875 4.875 0.875 6 2 C7.34747084 2.23075082 8.70377565 2.41153063 10.0625 2.5625 C11.361875 2.706875 12.66125 2.85125 14 3 C14.33 4.32 14.66 5.64 15 7 C15.66 7 16.32 7 17 7 C18.02530403 7.97403883 19.01769502 8.9826127 20 10 C21.05763964 10.86017751 22.12051954 11.71393672 23.1875 12.5625 C24.115625 13.366875 25.04375 14.17125 26 15 C26 15.66 26 16.32 26 17 C20.71440159 17.08564627 17.02948634 16.51204433 13 12.9375 C11.65959313 11.63222476 10.3267214 10.31918321 9 9 C7.33977738 7.53433471 5.67312804 6.07591572 4 4.625 C2.64581206 3.44008555 1.30516866 2.23870174 0 1 C0 0.67 0 0.34 0 0 Z " fill="#7473B8" transform="translate(29,101)"/>
<path d="M0 0 C0.99 0 1.98 0 3 0 C3 1.65 3 3.3 3 5 C-2.86290009 8.10388828 -8.82998968 10.53864545 -15.046875 12.8515625 C-17.45503836 13.78807047 -19.71933524 14.79324049 -22 16 C-21.54530274 11.90772465 -21.25535456 9.60950266 -18 7 C-16.11474609 6.33984375 -16.11474609 6.33984375 -14.0234375 5.9375 C-13.270625 5.78023437 -12.5178125 5.62296875 -11.7421875 5.4609375 C-10.15653472 5.15218003 -8.57059319 4.84490196 -6.984375 4.5390625 C-4.96848449 4.11648751 -2.98014064 3.56694553 -1 3 C-0.67 2.01 -0.34 1.02 0 0 Z " fill="#DD802F" transform="translate(101,21)"/>
<path d="M0 0 C0.66 1.32 1.32 2.64 2 4 C1.34 4 0.68 4 0 4 C-0.33 5.65 -0.66 7.3 -1 9 C-1.33 8.34 -1.66 7.68 -2 7 C-4.31 7.33 -6.62 7.66 -9 8 C-9.66 9.65 -10.32 11.3 -11 13 C-11.66 13 -12.32 13 -13 13 C-13 13.99 -13 14.98 -13 16 C-15.31 16 -17.62 16 -20 16 C-20 15.34 -20 14.68 -20 14 C-21.32 14 -22.64 14 -24 14 C-24 11.36 -24 8.72 -24 6 C-23.67 6 -23.34 6 -23 6 C-23 8.31 -23 10.62 -23 13 C-18.17557816 11.73053486 -18.17557816 11.73053486 -15 8 C-14.34 8 -13.68 8 -13 8 C-13 7.34 -13 6.68 -13 6 C-11.68 6 -10.36 6 -9 6 C-9 5.34 -9 4.68 -9 4 C-6.03 2.68 -3.06 1.36 0 0 Z " fill="#534EE3" transform="translate(57,82)"/>
<path d="M0 0 C-0.1875 1.8125 -0.1875 1.8125 -1 4 C-1.804375 4.474375 -2.60875 4.94875 -3.4375 5.4375 C-6.22164765 6.77628665 -6.22164765 6.77628665 -7 9.625 C-7.33 10.40875 -7.66 11.1925 -8 12 C-10.625 12.8125 -10.625 12.8125 -13 13 C-13.66 11.02 -14.32 9.04 -15 7 C-16.98 7 -18.96 7 -21 7 C-20.67 5.35 -20.34 3.7 -20 2 C-16.535 1.505 -16.535 1.505 -13 1 C-13 3.64 -13 6.28 -13 9 C-12.01 9 -11.02 9 -10 9 C-10.061875 8.071875 -10.12375 7.14375 -10.1875 6.1875 C-10 3 -10 3 -8.9375 1.125 C-5.99772876 -0.58196395 -3.32129197 -0.18799766 0 0 Z " fill="#C16C3E" transform="translate(65,65)"/>
<path d="M0 0 C0 0.66 0 1.32 0 2 C-6.01458303 5.34143501 -11.20894441 6.8681574 -18 8 C-18.66 10.97 -19.32 13.94 -20 17 C-21.32 17.33 -22.64 17.66 -24 18 C-24 18.66 -24 19.32 -24 20 C-25.98 20 -27.96 20 -30 20 C-29.34 19.67 -28.68 19.34 -28 19 C-27.8659375 18.22785156 -27.731875 17.45570312 -27.59375 16.66015625 C-26.54593295 11.96566013 -22.78913766 9.68183899 -19 7 C-16.08319461 5.40487205 -13.10923076 4.16798929 -10 3 C-9.24847656 2.7009375 -8.49695313 2.401875 -7.72265625 2.09375 C-2.36226852 0 -2.36226852 0 0 0 Z " fill="#FDCA7E" transform="translate(99,21)"/>
<path d="M0 0 C3.10005323 0.01324809 5.99790856 0.19494088 9 1 C11.375 3.8125 11.375 3.8125 13 7 C13.8971875 8.051875 13.8971875 8.051875 14.8125 9.125 C16 11 16 11 15.6875 13.25 C15.460625 13.8275 15.23375 14.405 15 15 C11.62537285 14.45276317 9.91765 13.9451 7 12 C5.9375 10.16015625 5.9375 10.16015625 5 8.0625 C3.67882082 5.11737141 2.33518979 3.22241074 0 1 C0 0.67 0 0.34 0 0 Z " fill="#6B68B8" transform="translate(91,90)"/>
<path d="M0 0 C2.38187604 2.56354455 2.94001147 4.74353011 3.2578125 8.17578125 C3.1546875 9.04203125 3.0515625 9.90828125 2.9453125 10.80078125 C2.2853125 10.80078125 1.6253125 10.80078125 0.9453125 10.80078125 C0.6153125 12.12078125 0.2853125 13.44078125 -0.0546875 14.80078125 C-0.2815625 13.58390625 -0.5084375 12.36703125 -0.7421875 11.11328125 C-1.80541627 6.82998822 -3.57643598 4.60034955 -7.0546875 1.80078125 C-9.99600641 0.82034161 -11.87970415 0.68456923 -14.94140625 0.703125 C-15.87919922 0.70634766 -16.81699219 0.70957031 -17.78320312 0.71289062 C-19.24790039 0.72545898 -19.24790039 0.72545898 -20.7421875 0.73828125 C-21.73025391 0.74279297 -22.71832031 0.74730469 -23.73632812 0.75195312 C-26.17584224 0.76373822 -28.61523439 0.78019114 -31.0546875 0.80078125 C-31.0546875 0.47078125 -31.0546875 0.14078125 -31.0546875 -0.19921875 C-7.77710266 -4.53910745 -7.77710266 -4.53910745 0 0 Z " fill="#9A9AE6" transform="translate(110.0546875,39.19921875)"/>
<path d="M0 0 C0 0.33 0 0.66 0 1 C-2.64 1.33 -5.28 1.66 -8 2 C-8 2.66 -8 3.32 -8 4 C-8.89203125 4.19335938 -9.7840625 4.38671875 -10.703125 4.5859375 C-11.87359375 4.84632812 -13.0440625 5.10671875 -14.25 5.375 C-15.41015625 5.63023438 -16.5703125 5.88546875 -17.765625 6.1484375 C-20.88433755 6.85152567 -20.88433755 6.85152567 -23.125 8.0625 C-25.37322951 9.18661476 -27.25477684 9.40483325 -29.75 9.625 C-30.54921875 9.69976562 -31.3484375 9.77453125 -32.171875 9.8515625 C-33.07679687 9.92503906 -33.07679687 9.92503906 -34 10 C-33.67 9.01 -33.34 8.02 -33 7 C-31.23754883 6.12451172 -31.23754883 6.12451172 -28.95703125 5.4296875 C-28.13009766 5.17316406 -27.30316406 4.91664062 -26.45117188 4.65234375 C-25.58041016 4.39582031 -24.70964844 4.13929687 -23.8125 3.875 C-22.96107422 3.61074219 -22.10964844 3.34648438 -21.23242188 3.07421875 C-14.02287192 0.87734119 -7.52550484 -0.12975008 0 0 Z " fill="#A9A5F6" transform="translate(90,42)"/>
<path d="M0 0 C0.66 0 1.32 0 2 0 C3.6296273 2.50118285 5.02662405 5.09956444 6.46484375 7.71484375 C7.85862703 10.29239843 7.85862703 10.29239843 11 11 C10.67 13.31 10.34 15.62 10 18 C9.01 18 8.02 18 7 18 C5.4296875 16.35546875 5.4296875 16.35546875 3.875 14.1875 C3.35679688 13.47980469 2.83859375 12.77210937 2.3046875 12.04296875 C-0.24523735 8.05012235 -0.08720692 4.62196679 0 0 Z " fill="#C6C8F0" transform="translate(118,74)"/>
<path d="M0 0 C2.375 -0.125 2.375 -0.125 5 0 C7 2 7 2 7.25 5 C7 8 7 8 5 10 C1.375 10.125 1.375 10.125 -2 10 C-3.125 4.25 -3.125 4.25 -2 2 C-1.34 2 -0.68 2 0 2 C0 1.34 0 0.68 0 0 Z " fill="#A8C21E" transform="translate(98,60)"/>
<path d="M0 0 C-0.95262034 1.48285242 -1.91228405 2.96118201 -2.875 4.4375 C-3.67550781 5.67306641 -3.67550781 5.67306641 -4.4921875 6.93359375 C-6 9 -6 9 -8 10 C-14.47058824 10.35294118 -14.47058824 10.35294118 -18 8 C-18.6875 5.375 -18.6875 5.375 -19 3 C-17.35 3 -15.7 3 -14 3 C-13.67 3.99 -13.34 4.98 -13 6 C-10.54775306 5.89386164 -10.54775306 5.89386164 -8 5 C-7.29788106 3.34795544 -6.63028587 1.68076231 -6 0 C-3.40713222 -1.13437965 -2.55267344 -1.27633672 0 0 Z " fill="#655EC4" transform="translate(65,71)"/>
<path d="M0 0 C2.9627504 2.9627504 2.93004595 5.24449624 3.3125 9.375 C2.84143797 14.83931959 0.44653342 17.66195658 -3.5 21.3125 C-8.14472535 24.44768961 -13.51952157 24.75088405 -19 24 C-22.0625 22 -22.0625 22 -24 20 C-23.505 18.515 -23.505 18.515 -23 17 C-22.566875 17.474375 -22.13375 17.94875 -21.6875 18.4375 C-19.1819057 20.75749472 -17.11174547 20.99140419 -13.75 21.25 C-8.88077382 20.92538492 -4.86700822 19.82820204 -1.30859375 16.34375 C0.52279174 13.06365659 0.29101283 10.47646186 0.1875 6.75 C0.16042969 5.48671875 0.13335937 4.2234375 0.10546875 2.921875 C0.07066406 1.95765625 0.03585938 0.9934375 0 0 Z " fill="#3233BF" transform="translate(112,64)"/>
<path d="M0 0 C0.89686523 -0.00515625 1.79373047 -0.0103125 2.71777344 -0.015625 C9.241461 0.053961 9.241461 0.053961 11.5 2.3125 C10.65179688 2.30089844 9.80359375 2.28929687 8.9296875 2.27734375 C0.38576189 2.21162125 -7.98422414 2.58775312 -16.5 3.3125 C-16.5 3.9725 -16.5 4.6325 -16.5 5.3125 C-19.24755487 6.01138677 -21.99731197 6.6968988 -24.75 7.375 C-25.52730469 7.57416016 -26.30460937 7.77332031 -27.10546875 7.97851562 C-27.85957031 8.16220703 -28.61367187 8.34589844 -29.390625 8.53515625 C-30.08188477 8.70797119 -30.77314453 8.88078613 -31.48535156 9.05883789 C-33.75070809 9.34406637 -35.3368312 8.99326195 -37.5 8.3125 C-31.56108578 5.7209738 -26.95892714 4.90881705 -20.5 5.3125 C-20.5 4.6525 -20.5 3.9925 -20.5 3.3125 C-13.78438309 0.34349042 -7.22979594 0.01030252 0 0 Z " fill="#C5C1EB" transform="translate(95.5,35.6875)"/>
<path d="M0 0 C2.25 0.25 2.25 0.25 4 1 C3.34 1 2.68 1 2 1 C1.87625 2.0725 1.7525 3.145 1.625 4.25 C1.10356064 7.37863615 0.59911746 9.33480424 -1 12 C-2.32 12 -3.64 12 -5 12 C-5.66 11.34 -6.32 10.68 -7 10 C-7.33 10.66 -7.66 11.32 -8 12 C-8.99 12 -9.98 12 -11 12 C-10.4376049 8.73810844 -9.5859495 7.08865152 -7 5 C-6.01 4.67 -5.02 4.34 -4 4 C-3.360625 3.29875 -2.72125 2.5975 -2.0625 1.875 C-1.381875 1.25625 -0.70125 0.6375 0 0 Z " fill="#706AE7" transform="translate(87,44)"/>
<path d="M0 0 C1 1 1 1 1.1875 3.875 C1 7 1 7 -1 10 C-4.625 10.1875 -4.625 10.1875 -8 10 C-8.29296875 3.9453125 -8.29296875 3.9453125 -8 2 C-4.77786243 -0.14809171 -3.72224599 -0.29386153 0 0 Z " fill="#F7BE40" transform="translate(98,46)"/>
<path d="M0 0 C2.52017426 2.52017426 2.29730377 3.51499849 2.3125 7 C2.32925781 7.886875 2.34601563 8.77375 2.36328125 9.6875 C2.24339844 10.450625 2.12351562 11.21375 2 12 C-1.01940376 14.01293584 -3.55064952 14.94407638 -7 16 C-7.66 16.20625 -8.32 16.4125 -9 16.625 C-11.8036949 17.15069279 -14.15200149 17.29666651 -17 17 C-19.375 15 -19.375 15 -21 13 C-16.05 13.99 -16.05 13.99 -11 15 C-11 14.34 -11 13.68 -11 13 C-9.68 13 -8.36 13 -7 13 C-7 12.34 -7 11.68 -7 11 C-3.535 10.505 -3.535 10.505 0 10 C0 6.7 0 3.4 0 0 Z " fill="#635AE1" transform="translate(111,66)"/>
<path d="M0 0 C2.5 0.1875 2.5 0.1875 5 1 C7 4 7 4 7 8 C3.76746204 10.15502531 2.74849077 10.46856135 -1 10 C-2.8125 8.5 -2.8125 8.5 -4 7 C-2.92598892 4.08482708 -2.22189824 2.22189824 0 0 Z " fill="#F4744B" transform="translate(84,60)"/>
<path d="M0 0 C4.00647751 1.3354925 4.75744636 3.52765887 7 7 C11.59642173 9.29821086 17.03910561 8.30428322 21.75 6.8125 C25.13558986 4.92438258 27.42917304 2.88244235 30 0 C30 1.65 30 3.3 30 5 C29.01 5 28.02 5 27 5 C27.33 5.99 27.66 6.98 28 8 C14.26351351 12.31351351 14.26351351 12.31351351 8 11 C5.35892644 9.59884097 4.07095003 8.27804503 2 6 C1.3125 3.75 1.3125 3.75 1 2 C0.01 1.67 -0.98 1.34 -2 1 C-1.34 0.67 -0.68 0.34 0 0 Z " fill="#A0A3F4" transform="translate(84,79)"/>
<path d="M0 0 C1.01333399 3.15259465 0.81126663 4.84507423 0 8 C-0.33566345 11.75943065 -0.49777989 14.11757201 1.375 17.4375 C5.41739748 19.84368898 9.40879515 19.31542629 14 19 C14 19.66 14 20.32 14 21 C9.71726198 22.37047617 5.30076309 22.87930154 1.02734375 21.24609375 C-1.77156342 19.78054687 -3.696803 18.7276728 -4.9375 15.75 C-4.958125 15.1725 -4.97875 14.595 -5 14 C-4.34 14 -3.68 14 -3 14 C-3.061875 12.989375 -3.12375 11.97875 -3.1875 10.9375 C-2.97357173 6.44500628 -1.95386468 3.98914039 0 0 Z " fill="#A9A7EA" transform="translate(32,82)"/>
<path d="M0 0 C0.825 0.28875 1.65 0.5775 2.5 0.875 C3.2425 1.1225 3.985 1.37 4.75 1.625 C6.5 2.875 6.5 2.875 7.4375 5.1875 C7.51732226 8.61985734 6.53635888 10.15985482 4.5 12.875 C1.54335481 14.3533226 -1.24229737 13.93532783 -4.5 13.875 C-5.16 12.555 -5.82 11.235 -6.5 9.875 C-3.52148438 10.31445312 -3.52148438 10.31445312 -0.54296875 10.75390625 C1.7025342 11.01404799 1.7025342 11.01404799 4.5 9.875 C3.51 7.565 2.52 5.255 1.5 2.875 C-0.95224694 2.98113836 -0.95224694 2.98113836 -3.5 3.875 C-4.87466625 6.35136012 -4.87466625 6.35136012 -5.5 8.875 C-5.83 8.875 -6.16 8.875 -6.5 8.875 C-6.86554789 5.58506898 -6.76218503 4.24400115 -4.8125 1.5 C-2.5 -0.125 -2.5 -0.125 0 0 Z " fill="#A16CAE" transform="translate(86.5,58.125)"/>
<path d="M0 0 C5.61 0 11.22 0 17 0 C17.33 0.66 17.66 1.32 18 2 C15.69 2.33 13.38 2.66 11 3 C13.88415883 4.44207941 16.41721528 4.09394887 19.625 4.0625 C21.40777344 4.04896484 21.40777344 4.04896484 23.2265625 4.03515625 C24.59941406 4.01775391 24.59941406 4.01775391 26 4 C26 4.66 26 5.32 26 6 C24.68 6 23.36 6 22 6 C22 6.66 22 7.32 22 8 C13.96967361 8.69828925 6.55608804 5.58926163 0 1 C0 0.67 0 0.34 0 0 Z " fill="#7C77EA" transform="translate(78,73)"/>
<path d="M0 0 C0.99 0.33 1.98 0.66 3 1 C2.60022949 1.50394287 2.20045898 2.00788574 1.78857422 2.52709961 C-2.90192208 8.90517812 -4.51575848 14.83995999 -5.875 22.5625 C-6.08640625 23.66658203 -6.2978125 24.77066406 -6.515625 25.90820312 C-7.0288419 28.60259184 -7.52310622 31.29898886 -8 34 C-11.76656319 27.2990213 -8.57038754 19.50334946 -6.73291016 12.45361328 C-5.30455741 7.39875348 -3.44202781 3.92008723 0 0 Z " fill="#5151C7" transform="translate(43,54)"/>
<path d="M0 0 C-0.53367187 0.15855469 -1.06734375 0.31710938 -1.6171875 0.48046875 C-6.92359674 2.14216438 -11.77978052 4.24201323 -16.70703125 6.81640625 C-18.55670642 7.77117895 -20.45991553 8.62181587 -22.375 9.4375 C-25.67782494 11.40346723 -27.09754697 13.70729284 -29 17 C-30 14 -30 14 -29.20703125 12.1328125 C-23.76384187 4.29583956 -15.91939587 1.85579767 -6.9375 -0.375 C-3 -1 -3 -1 0 0 Z " fill="#ADABF2" transform="translate(68,44)"/>
<path d="M0 0 C0.66 0 1.32 0 2 0 C2 0.99 2 1.98 2 3 C2.66 3 3.32 3 4 3 C4 4.32 4 5.64 4 7 C3.34 7 2.68 7 2 7 C1.896875 7.721875 1.79375 8.44375 1.6875 9.1875 C0.93266033 12.27548048 -0.29183251 14.33525871 -2 17 C-2.67725021 18.32798885 -3.34582296 19.66049463 -4 21 C-3.63419196 13.54508438 -2.79080349 6.95068039 0 0 Z " fill="#A8A0EF" transform="translate(38,73)"/>
<path d="M0 0 C4.82553765 0.09812696 8.28049856 0.33537392 12.25 3.3125 C17.19819534 8.52816536 17.02870556 14.4745018 17.25 21.3125 C15.03538275 17.34308009 14.3100802 13.29411559 13.421875 8.87109375 C12.41601131 6.09087086 12.41601131 6.09087086 9.6015625 4.515625 C5.90709281 3.18940511 2.78980997 2.80966085 -1.125 2.625 C-2.37023437 2.55925781 -3.61546875 2.49351563 -4.8984375 2.42578125 C-6.30996094 2.36970703 -6.30996094 2.36970703 -7.75 2.3125 C-5.0881996 -0.3493004 -3.70750737 0.01383398 0 0 Z " fill="#3B3AB9" transform="translate(93.75,38.6875)"/>
<path d="M0 0 C-2.78469002 1.85646001 -4.2681416 2.45157815 -7.4375 3.125 C-8.19933594 3.29257813 -8.96117188 3.46015625 -9.74609375 3.6328125 C-12 4 -12 4 -16 4 C-16 5.65 -16 7.3 -16 9 C-16.66 9 -17.32 9 -18 9 C-18 9.99 -18 10.98 -18 12 C-18.66 12 -19.32 12 -20 12 C-20.20625 12.804375 -20.4125 13.60875 -20.625 14.4375 C-21.07875 15.283125 -21.5325 16.12875 -22 17 C-25.125 17.8125 -25.125 17.8125 -28 18 C-27.2575 17.278125 -26.515 16.55625 -25.75 15.8125 C-21.06728962 11.11260845 -21.06728962 11.11260845 -18.0625 5.3125 C-17 3 -17 3 -14.75 1.75 C-9.76775037 0.39120465 -5.16387193 -0.12294933 0 0 Z " fill="#959AF7" transform="translate(74,83)"/>
<path d="M0 0 C0.66 0.33 1.32 0.66 2 1 C1.84653748 8.05927607 1.1246795 12.00672254 -4 17 C-4.33 16.01 -4.66 15.02 -5 14 C-5.99 13.67 -6.98 13.34 -8 13 C-6.68 12.67 -5.36 12.34 -4 12 C-4 9.69 -4 7.38 -4 5 C-2.68 5 -1.36 5 0 5 C0 3.35 0 1.7 0 0 Z " fill="#856FC9" transform="translate(68,57)"/>
<path d="M0 0 C-3.03700134 3.50423232 -5.48503491 4.93765527 -10 6 C-14.27414327 6.2947685 -17.33746465 6.34402262 -21 4 C-20.67 3.34 -20.34 2.68 -20 2 C-19.22914062 2.02320312 -18.45828125 2.04640625 -17.6640625 2.0703125 C-16.15972656 2.09738281 -16.15972656 2.09738281 -14.625 2.125 C-13.62726563 2.14820312 -12.62953125 2.17140625 -11.6015625 2.1953125 C-8.83737827 2.27216848 -8.83737827 2.27216848 -7 0 C-2.48387097 -1.24193548 -2.48387097 -1.24193548 0 0 Z " fill="#474AE5" transform="translate(112,80)"/>
<path d="M0 0 C0.92268411 2.76805233 1.04199295 5.23798468 1 8.125 C0.71117455 11.7950271 0.71117455 11.7950271 2 14 C3.98714388 14.50729069 3.98714388 14.50729069 6.3125 14.6875 C7.48232422 14.81705078 7.48232422 14.81705078 8.67578125 14.94921875 C10.99287105 14.99984424 12.79287394 14.67173402 15 14 C13 17 13 17 10.79296875 17.6875 C3.81873422 18.5239899 3.81873422 18.5239899 -0.125 16 C-2.4567661 12.26917424 -2.53272973 10.33794212 -2 6 C-1 2.5625 -1 2.5625 0 0 Z " fill="#3435B9" transform="translate(33,84)"/>
<path d="M0 0 C0.66 1.32 1.32 2.64 2 4 C1.34 4 0.68 4 0 4 C-0.33 5.65 -0.66 7.3 -1 9 C-1.33 8.34 -1.66 7.68 -2 7 C-2.99 7.33 -3.98 7.66 -5 8 C-6.39439664 8.06665376 -7.79169875 8.08538199 -9.1875 8.0625 C-11.0746875 8.0315625 -11.0746875 8.0315625 -13 8 C-13 7.34 -13 6.68 -13 6 C-11.68 6 -10.36 6 -9 6 C-9 5.34 -9 4.68 -9 4 C-6.03 2.68 -3.06 1.36 0 0 Z " fill="#615CE9" transform="translate(57,82)"/>
<path d="M0 0 C1 2 1 2 1 6 C1.99 6 2.98 6 4 6 C3.7834375 6.7734375 3.7834375 6.7734375 3.5625 7.5625 C2.84190099 10.68509571 2.42733561 13.82550692 2 17 C-0.97 17.33 -3.94 17.66 -7 18 C-7 17.34 -7 16.68 -7 16 C-5.68 16 -4.36 16 -3 16 C-1.63761354 11.91284063 -1.56876976 7.89917828 -1.28125 3.6171875 C-1 1 -1 1 0 0 Z " fill="#7770ED" transform="translate(75,56)"/>
<path d="M0 0 C0 0.66 0 1.32 0 2 C-2.64 2.33 -5.28 2.66 -8 3 C-8.33 5.64 -8.66 8.28 -9 11 C-9.99 11 -10.98 11 -12 11 C-13.25 4.375 -13.25 4.375 -11 1 C-7.24631442 0.23536035 -3.83325124 0 0 0 Z " fill="#F28913" transform="translate(64,63)"/>
<path d="M0 0 C7.38052027 -0.48396854 7.38052027 -0.48396854 10 1.5625 C11.37020241 4.90236837 11.3898913 7.42599644 11 11 C9.5 12.9375 9.5 12.9375 8 14 C7.67 13.01 7.34 12.02 7 11 C7.66 11 8.32 11 9 11 C8.67 9.02 8.34 7.04 8 5 C3.545 4.01 3.545 4.01 -1 3 C-0.67 2.01 -0.34 1.02 0 0 Z " fill="#6F68D0" transform="translate(92,43)"/>
<path d="M0 0 C0.66 0.33 1.32 0.66 2 1 C1.01 3.64 0.02 6.28 -1 9 C-1.99 9 -2.98 9 -4 9 C-4 9.66 -4 10.32 -4 11 C-5.98 11 -7.96 11 -10 11 C-9.34 10.67 -8.68 10.34 -8 10 C-7.8453125 8.824375 -7.8453125 8.824375 -7.6875 7.625 C-7 5 -7 5 -4.5625 3.1875 C-2 2 -2 2 0 2 C0 1.34 0 0.68 0 0 Z " fill="#EAA258" transform="translate(79,30)"/>
<path d="M0 0 C0 1.65 0 3.3 0 5 C1.98 5 3.96 5 6 5 C6 5.66 6 6.32 6 7 C4.68 7 3.36 7 2 7 C2.33 8.32 2.66 9.64 3 11 C1.68 10.34 0.36 9.68 -1 9 C-1 8.34 -1 7.68 -1 7 C-1.66 7 -2.32 7 -3 7 C-3 6.34 -3 5.68 -3 5 C-3.99 4.67 -4.98 4.34 -6 4 C-5.67 3.01 -5.34 2.02 -5 1 C-3.28960011 0.41205004 -1.81522119 0 0 0 Z " fill="#7B68C0" transform="translate(44,67)"/>
<path d="M0 0 C2.97 0 5.94 0 9 0 C8.67 0.66 8.34 1.32 8 2 C5.18224845 2.85156732 2.33975854 3.47363693 -0.53125 4.12109375 C-1.3459375 4.41113281 -2.160625 4.70117188 -3 5 C-3.33 5.99 -3.66 6.98 -4 8 C-6.5625 9.1875 -6.5625 9.1875 -9 10 C-8.34 8.35 -7.68 6.7 -7 5 C-6.34 5 -5.68 5 -5 5 C-5 4.34 -5 3.68 -5 3 C-3.35 2.34 -1.7 1.68 0 1 C0 0.67 0 0.34 0 0 Z " fill="#8681F0" transform="translate(87,41)"/>
<path d="M0 0 C0.33 0 0.66 0 1 0 C1 3.96 1 7.92 1 12 C-1.31 12.33 -3.62 12.66 -6 13 C-5.42198762 9.09841646 -3.41713779 7.02142223 -1 4 C-0.22166466 1.81785432 -0.22166466 1.81785432 0 0 Z " fill="#8A8CFB" transform="translate(110,64)"/>
<path d="M0 0 C0.99 0.33 1.98 0.66 3 1 C1.8553125 1.6496875 1.8553125 1.6496875 0.6875 2.3125 C-1.96286253 3.83752358 -1.96286253 3.83752358 -3.6875 5.6875 C-4.120625 6.120625 -4.55375 6.55375 -5 7 C-5.66 7 -6.32 7 -7 7 C-7.19335938 7.62648438 -7.38671875 8.25296875 -7.5859375 8.8984375 C-7.84632812 9.71570312 -8.10671875 10.53296875 -8.375 11.375 C-8.63023438 12.18710938 -8.88546875 12.99921875 -9.1484375 13.8359375 C-10 16 -10 16 -12 18 C-12.50791521 12.66689031 -11.34625913 10.13879419 -8 6 C-5.53833307 3.66392832 -3.05440218 1.52720109 0 0 Z " fill="#8E8DF5" transform="translate(51,52)"/>
<path d="M0 0 C1.32 0.33 2.64 0.66 4 1 C4 1.66 4 2.32 4 3 C4.66 3 5.32 3 6 3 C6.268125 3.804375 6.53625 4.60875 6.8125 5.4375 C7.204375 6.283125 7.59625 7.12875 8 8 C8.99 8.33 9.98 8.66 11 9 C11 9.66 11 10.32 11 11 C11.99 11.33 12.98 11.66 14 12 C13.01 12.99 12.02 13.98 11 15 C10.67 13.68 10.34 12.36 10 11 C9.34 11 8.68 11 8 11 C6.98133771 9.34467377 5.98189187 7.67739862 5 6 C4.34 5.67 3.68 5.34 3 5 C3 4.34 3 3.68 3 3 C2.01 3 1.02 3 0 3 C0 2.01 0 1.02 0 0 Z " fill="#A3A5E2" transform="translate(114,81)"/>
<path d="M0 0 C0.33 0 0.66 0 1 0 C1.35649475 6.56214414 0.8481397 10.96194383 -2 17 C-2.4054103 19.32189536 -2.76072994 21.65515344 -3 24 C-3.66 24 -4.32 24 -5 24 C-3.77409993 15.86579246 -2.1142355 7.94952546 0 0 Z " fill="#CFC8F0" transform="translate(32,72)"/>
<path d="M0 0 C0.25 5.625 0.25 5.625 -2 9 C-2.66 9 -3.32 9 -4 9 C-4.66 10.32 -5.32 11.64 -6 13 C-6.99 13 -7.98 13 -9 13 C-7.97379138 10.7897045 -6.94283206 8.92682503 -5.4375 7 C-3.95660013 4.93961757 -3.58536024 3.42506383 -3 1 C-1 0 -1 0 0 0 Z " fill="#9D94F4" transform="translate(72,63)"/>
<path d="M0 0 C0.33 0.66 0.66 1.32 1 2 C2.65 1.34 4.3 0.68 6 0 C4.53162078 4.40513767 1.62429917 5.56111083 -2.28125 7.828125 C-6.40255408 9.60454917 -8.73459685 9.24084455 -13 8 C-13.33 7.34 -13.66 6.68 -14 6 C-13.07767578 6.03480469 -13.07767578 6.03480469 -12.13671875 6.0703125 C-10.92435547 6.09738281 -10.92435547 6.09738281 -9.6875 6.125 C-8.48673828 6.15980469 -8.48673828 6.15980469 -7.26171875 6.1953125 C-4.71611424 6.15817322 -4.71611424 6.15817322 -2 4 C-0.80767387 1.94996045 -0.80767387 1.94996045 0 0 Z " fill="#7770E8" transform="translate(62,74)"/>
<path d="M0 0 C2.97 0.495 2.97 0.495 6 1 C5.62671065 6.35048061 4.0042343 8.50912907 0 12 C0.08378906 11.30132812 0.16757813 10.60265625 0.25390625 9.8828125 C0.35574219 8.97273438 0.45757812 8.06265625 0.5625 7.125 C0.66691406 6.22007813 0.77132812 5.31515625 0.87890625 4.3828125 C1.19674852 1.98346943 1.19674852 1.98346943 0 0 Z " fill="#9698DA" transform="translate(65,99)"/>
<path d="M0 0 C2 3.75 2 3.75 2 6 C6.64586892 5.51515724 6.64586892 5.51515724 11 4 C10.67 4.99 10.34 5.98 10 7 C7.6875 8.125 7.6875 8.125 5 9 C4.01 9.3403125 4.01 9.3403125 3 9.6875 C0.4708538 10.08267909 -1.53450006 9.61637498 -4 9 C-4 8.67 -4 8.34 -4 8 C-2.35 8 -0.7 8 1 8 C0.67 7.34 0.34 6.68 0 6 C-0.039992 4.00039988 -0.04346799 1.99952758 0 0 Z " fill="#5E6F8F" transform="translate(94,64)"/>
<path d="M0 0 C2 2 2 2 2 5 C4.97 5.33 7.94 5.66 11 6 C10.525625 6.61875 10.05125 7.2375 9.5625 7.875 C7.97582559 9.90705546 7.97582559 9.90705546 7 12 C6.67 11.01 6.34 10.02 6 9 C3.52869082 7.84478498 3.52869082 7.84478498 1 7 C0 6 0 6 -0.0625 2.9375 C-0.041875 1.968125 -0.02125 0.99875 0 0 Z " fill="#3E37B7" transform="translate(87,52)"/>
<path d="M0 0 C1.98 0 3.96 0 6 0 C6.33 0.66 6.66 1.32 7 2 C6.10796875 2.33773438 5.2159375 2.67546875 4.296875 3.0234375 C3.12640625 3.46945313 1.9559375 3.91546875 0.75 4.375 C-0.41015625 4.81585938 -1.5703125 5.25671875 -2.765625 5.7109375 C-5.26209781 6.70590855 -7.62904947 7.74410046 -10 9 C-10 8.01 -10 7.02 -10 6 C-8.35 5.67 -6.7 5.34 -5 5 C-5 4.34 -5 3.68 -5 3 C-3.68 3 -2.36 3 -1 3 C-0.67 2.01 -0.34 1.02 0 0 Z " fill="#CE723E" transform="translate(89,28)"/>
<path d="M0 0 C0.99 0 1.98 0 3 0 C5 2.75 5 2.75 7 6 C7.8971875 7.051875 7.8971875 7.051875 8.8125 8.125 C10 10 10 10 9.6875 12.25 C9.460625 12.8275 9.23375 13.405 9 14 C8.34 13.67 7.68 13.34 7 13 C6.375 10.4375 6.375 10.4375 6 8 C4.68 7.67 3.36 7.34 2 7 C1.855625 6.401875 1.71125 5.80375 1.5625 5.1875 C1.1127561 3.43849596 0.57107659 1.71322977 0 0 Z " fill="#7475C1" transform="translate(97,91)"/>
<path d="M0 0 C0.94875 0.639375 1.8975 1.27875 2.875 1.9375 C7.3782442 4.55437496 11.88076363 4.79399451 17 5 C12.97614435 7.68257043 9.72825017 7.68729381 5 7 C1.9375 5.1875 1.9375 5.1875 0 3 C0 2.01 0 1.02 0 0 Z " fill="#1E2AC4" transform="translate(88,81)"/>
<path d="M0 0 C0.99 0.33 1.98 0.66 3 1 C2.67 1.33 2.34 1.66 2 2 C1.86431681 5.66344611 1.83538574 8.50615721 3 12 C1.02 12 -0.96 12 -3 12 C-2.40075776 7.80530429 -1.42500059 3.99000166 0 0 Z " fill="#5E4EBE" transform="translate(79,60)"/>
<path d="M0 0 C0.33 0.99 0.66 1.98 1 3 C-0.21484375 4.82421875 -0.21484375 4.82421875 -1.9375 6.6875 C-2.50339844 7.31011719 -3.06929687 7.93273437 -3.65234375 8.57421875 C-4.09707031 9.04472656 -4.54179688 9.51523438 -5 10 C-5.99 9.67 -6.98 9.34 -8 9 C-8 8.34 -8 7.68 -8 7 C-7.34 7 -6.68 7 -6 7 C-5.34 5.68 -4.68 4.36 -4 3 C-3.01 3 -2.02 3 -1 3 C-0.67 2.01 -0.34 1.02 0 0 Z " fill="#3E3BD2" transform="translate(54,89)"/>
<path d="M0 0 C2.8125 0.1875 2.8125 0.1875 6 1 C8.27863153 3.88626661 9 5.3047018 9 9 C8.01 9 7.02 9 6 9 C4.94228261 7.36935236 3.94726954 5.69719127 3 4 C2.01834406 2.98198643 1.02408568 1.9753197 0 1 C0 0.67 0 0.34 0 0 Z " fill="#6566AF" transform="translate(91,90)"/>
<path d="M0 0 C0.33 1.32 0.66 2.64 1 4 C-2.23253796 6.15502531 -3.25150923 6.46856135 -7 6 C-8.8125 4.5 -8.8125 4.5 -10 3 C-6.97265625 2.26757812 -6.97265625 2.26757812 -3.9453125 1.53515625 C-1.9414343 1.05153008 -1.9414343 1.05153008 0 0 Z " fill="#A6293F" transform="translate(90,64)"/>
<path d="M0 0 C-1.0725 0.5775 -2.145 1.155 -3.25 1.75 C-6.31494649 3.49874971 -8.62083338 5.36592267 -11 8 C-12 9 -13 10 -14 11 C-13.34194763 7.44651721 -12.25753134 4.84012008 -10 2 C-3.23564356 -1.61782178 -3.23564356 -1.61782178 0 0 Z " fill="#9798EC" transform="translate(52,50)"/>
<path d="M0 0 C0.55171875 0.49113281 1.1034375 0.98226562 1.671875 1.48828125 C4.46370069 3.30109424 5.96185741 3.3172951 9.25 3.1875 C10.58804688 3.14689453 10.58804688 3.14689453 11.953125 3.10546875 C12.96632813 3.05326172 12.96632813 3.05326172 14 3 C14 3.66 14 4.32 14 5 C10.31233808 6.18005182 6.84889483 6.20993972 3 6 C2.01 5.34 1.02 4.68 0 4 C0 2.68 0 1.36 0 0 Z " fill="#969AF0" transform="translate(32,98)"/>
<path d="M0 0 C1.65 0 3.3 0 5 0 C5 1.98 5 3.96 5 6 C6.65 6 8.3 6 10 6 C10 6.33 10 6.66 10 7 C4.375 7.25 4.375 7.25 1 5 C0.3125 2.375 0.3125 2.375 0 0 Z " fill="#4036AC" transform="translate(46,74)"/>
<path d="M0 0 C-0.33 0.99 -0.66 1.98 -1 3 C-3.4375 4.125 -3.4375 4.125 -6 5 C-6.99 5.495 -6.99 5.495 -8 6 C-8.33 4.35 -8.66 2.7 -9 1 C-6.04335481 -0.4783226 -3.25770263 -0.06032783 0 0 Z " fill="#C25411" transform="translate(65,65)"/>
<path d="M0 0 C-0.33 0.99 -0.66 1.98 -1 3 C-2.32 3 -3.64 3 -5 3 C-5 3.66 -5 4.32 -5 5 C-6.65 5.33 -8.3 5.66 -10 6 C-7.83322503 -0.036016 -6.28508493 -0.13663228 0 0 Z " fill="#DE771B" transform="translate(89,28)"/>
<path d="M0 0 C4.38889325 0.66498383 7.9811485 2.18757677 12 4 C11.34 4.66 10.68 5.32 10 6 C9.67 6.99 9.34 7.98 9 9 C7.49704815 7.69088122 5.99770689 6.37761608 4.5 5.0625 C3.6646875 4.33160156 2.829375 3.60070312 1.96875 2.84765625 C1.3190625 2.23792969 0.669375 1.62820312 0 1 C0 0.67 0 0.34 0 0 Z " fill="#817FC4" transform="translate(29,101)"/>
<path d="M0 0 C0 2 0 2 -1.625 4.0625 C-4.44287547 6.36129314 -6.4257023 6.67506385 -10 7 C-9.67 6.01 -9.34 5.02 -9 4 C-8.34 4 -7.68 4 -7 4 C-7 3.34 -7 2.68 -7 2 C-2.25 0 -2.25 0 0 0 Z " fill="#7A73E8" transform="translate(44,88)"/>
<path d="M0 0 C0.33 0 0.66 0 1 0 C1 1.65 1 3.3 1 5 C0.01 5 -0.98 5 -2 5 C-1.67 5.99 -1.34 6.98 -1 8 C-3.97 8.66 -6.94 9.32 -10 10 C-10.33 9.34 -10.66 8.68 -11 8 C-9.9275 7.608125 -8.855 7.21625 -7.75 6.8125 C-4.09702902 5.27440695 -2.29050279 3.25956166 0 0 Z " fill="#8D93F5" transform="translate(113,79)"/>
<path d="M0 0 C2 3.75 2 3.75 2 6 C0.35 6 -1.3 6 -3 6 C-3 6.66 -3 7.32 -3 8 C-5.875 8.125 -5.875 8.125 -9 8 C-9.66 7.34 -10.32 6.68 -11 6 C-10.37351562 5.90203125 -9.74703125 5.8040625 -9.1015625 5.703125 C-7.87566406 5.47882813 -7.87566406 5.47882813 -6.625 5.25 C-5.81289062 5.11078125 -5.00078125 4.9715625 -4.1640625 4.828125 C-1.82290908 4.18250739 -1.82290908 4.18250739 -0.7109375 1.921875 C-0.47632812 1.28765625 -0.24171875 0.6534375 0 0 Z " fill="#3336B9" transform="translate(93,66)"/>
<path d="M0 0 C5.75 -0.125 5.75 -0.125 8 1 C8 1.99 8 2.98 8 4 C5.36 4 2.72 4 0 4 C0 2.68 0 1.36 0 0 Z " fill="#4F3AB7" transform="translate(60,58)"/>
<path d="M0 0 C3.70653731 1.23551244 4.64915435 2.96665078 7 6 C7.66 6.33 8.32 6.66 9 7 C9 7.66 9 8.32 9 9 C7.68 9 6.36 9 5 9 C5 8.34 5 7.68 5 7 C4.34 7 3.68 7 3 7 C0.70351351 4.4385343 0 3.52032428 0 0 Z " fill="#6C6DC2" transform="translate(60,89)"/>
<path d="M0 0 C-3.20945602 2.8503026 -5.49988548 3.43451699 -9.75 3.6875 C-10.73484375 3.75324219 -11.7196875 3.81898437 -12.734375 3.88671875 C-13.48203125 3.92410156 -14.2296875 3.96148437 -15 4 C-9.52123488 0.34748992 -6.56703301 -0.2189011 0 0 Z " fill="#383AD1" transform="translate(72,81)"/>
<path d="M0 0 C-1.32 0.33 -2.64 0.66 -4 1 C-4 1.66 -4 2.32 -4 3 C-6.64 2.34 -9.28 1.68 -12 1 C-12 1.66 -12 2.32 -12 3 C-13.32 3 -14.64 3 -16 3 C-16 2.34 -16 1.68 -16 1 C-10.26696495 -0.57300962 -5.84340558 -1.24327778 0 0 Z " fill="#6460E6" transform="translate(84,73)"/>
<path d="M0 0 C1.32 0.66 2.64 1.32 4 2 C3.01 2.495 3.01 2.495 2 3 C1.53476937 4.89533342 1.53476937 4.89533342 1.375 7.0625 C1.25125 8.361875 1.1275 9.66125 1 11 C2.98 11 4.96 11 7 11 C7 11.33 7 11.66 7 12 C4.69 12 2.38 12 0 12 C-0.19573608 10.56359829 -0.38127816 9.12580496 -0.5625 7.6875 C-0.66691406 6.88699219 -0.77132812 6.08648437 -0.87890625 5.26171875 C-1 3 -1 3 0 0 Z " fill="#8E78A5" transform="translate(89,45)"/>
<path d="M0 0 C0.33 0 0.66 0 1 0 C1 2.31 1 4.62 1 7 C5.82442184 5.73053486 5.82442184 5.73053486 9 2 C9.66 2 10.32 2 11 2 C10.6875 3.875 10.6875 3.875 10 6 C6.3558226 8.4294516 4.28758728 8.16179575 0 8 C0 5.36 0 2.72 0 0 Z " fill="#5E5DDF" transform="translate(33,88)"/>
<path d="M0 0 C2 2 2 2 2.1953125 4.3828125 C2.17210938 5.28773437 2.14890625 6.19265625 2.125 7.125 C2.10695313 8.03507812 2.08890625 8.94515625 2.0703125 9.8828125 C2.04710938 10.58148438 2.02390625 11.28015625 2 12 C0.35 12 -1.3 12 -3 12 C-3 11.34 -3 10.68 -3 10 C-2.01 10 -1.02 10 0 10 C0 6.7 0 3.4 0 0 Z " fill="#676AF1" transform="translate(111,66)"/>
<path d="M0 0 C1.65 0.33 3.3 0.66 5 1 C4.67 2.32 4.34 3.64 4 5 C2.02 5 0.04 5 -2 5 C-1.34 3.35 -0.68 1.7 0 0 Z " fill="#C6D94B" transform="translate(100,61)"/>
<path d="M0 0 C-0.66 1.32 -1.32 2.64 -2 4 C-4.64 4 -7.28 4 -10 4 C-7.6604297 0.49064455 -4.21379901 -2.1068995 0 0 Z " fill="#6967D0" transform="translate(106,71)"/>
<path d="M0 0 C0.66 0.66 1.32 1.32 2 2 C2.99 2 3.98 2 5 2 C4.38125 2.9075 3.7625 3.815 3.125 4.75 C0.88153032 8.04498848 0.88153032 8.04498848 -1 12 C-0.67 8.04 -0.34 4.08 0 0 Z " fill="#9794F4" transform="translate(35,82)"/>
<path d="M0 0 C4.1666604 0.47348414 6.92884715 1.04696841 10 4 C10 4.66 10 5.32 10 6 C7.5625 5.625 7.5625 5.625 5 5 C4.67 4.34 4.34 3.68 4 3 C1.47266765 2.34444881 1.47266765 2.34444881 -1 2 C-0.67 1.34 -0.34 0.68 0 0 Z " fill="#4D4DD2" transform="translate(82,77)"/>
<path d="M0 0 C1.65 0 3.3 0 5 0 C4.38125 0.556875 3.7625 1.11375 3.125 1.6875 C0.93893621 4.06645178 0.01214301 5.96357096 -1 9 C-1.66 8.67 -2.32 8.34 -3 8 C-2.67 6.02 -2.34 4.04 -2 2 C-1.34 2 -0.68 2 0 2 C0 1.34 0 0.68 0 0 Z " fill="#A6B862" transform="translate(98,60)"/>
<path d="M0 0 C1.65 0 3.3 0 5 0 C5 0.66 5 1.32 5 2 C5.99 2.33 6.98 2.66 8 3 C8 3.66 8 4.32 8 5 C4.5625 4.1875 4.5625 4.1875 1 3 C0.67 2.01 0.34 1.02 0 0 Z " fill="#6E62DA" transform="translate(60,54)"/>
<path d="M0 0 C1 3 1 3 -0.0625 5.625 C-2 8 -2 8 -5.1875 8.8125 C-6.115625 8.874375 -7.04375 8.93625 -8 9 C-6.8553125 7.88625 -6.8553125 7.88625 -5.6875 6.75 C-3.5606298 4.5736677 -1.7440044 2.47832204 0 0 Z " fill="#8E93F3" transform="translate(54,92)"/>
<path d="M0 0 C0.99 0 1.98 0 3 0 C3 0.66 3 1.32 3 2 C5.64 2 8.28 2 11 2 C10.67 2.66 10.34 3.32 10 4 C7.03 3.67 4.06 3.34 1 3 C0.67 2.01 0.34 1.02 0 0 Z " fill="#443DDC" transform="translate(34,96)"/>
<path d="M0 0 C1.32 0 2.64 0 4 0 C4 1.98 4 3.96 4 6 C3.01 6 2.02 6 1 6 C0.67 4.02 0.34 2.04 0 0 Z " fill="#F79528" transform="translate(51,68)"/>
<path d="M0 0 C1.98 0.99 1.98 0.99 4 2 C4.1875 4.375 4.1875 4.375 4 7 C3.01 7.66 2.02 8.32 1 9 C0.67 6.03 0.34 3.06 0 0 Z " fill="#98A8B9" transform="translate(104,61)"/>
<path d="M0 0 C-0.99 1.485 -0.99 1.485 -2 3 C-5.625 3.1875 -5.625 3.1875 -9 3 C-9 2.34 -9 1.68 -9 1 C-3.375 -1.125 -3.375 -1.125 0 0 Z " fill="#CE922F" transform="translate(99,53)"/>
<path d="M0 0 C2.3431213 0.25561323 4.67843403 0.59270772 7 1 C7.33 1.66 7.66 2.32 8 3 C5.03 3 2.06 3 -1 3 C-0.67 2.01 -0.34 1.02 0 0 Z " fill="#645EC0" transform="translate(92,43)"/>
<path d="M0 0 C0.66 0 1.32 0 2 0 C2.66 1.65 3.32 3.3 4 5 C3.67 5 3.34 5 3 5 C2.67 6.65 2.34 8.3 2 10 C-0.4294516 6.3558226 -0.16179575 4.28758728 0 0 Z " fill="#C2C6EA" transform="translate(118,74)"/>
<path d="M0 0 C0 0.66 0 1.32 0 2 C-1.03125 2.144375 -2.0625 2.28875 -3.125 2.4375 C-6.42549813 2.91660457 -9.71268341 3.43875083 -13 4 C-8.99871622 0.46040281 -5.22959877 0 0 0 Z " fill="#9494E4" transform="translate(80,46)"/>
<path d="M0 0 C0.598125 0.20625 1.19625 0.4125 1.8125 0.625 C1.1525 0.625 0.4925 0.625 -0.1875 0.625 C-0.5175 2.935 -0.8475 5.245 -1.1875 7.625 C-1.5175 6.305 -1.8475 4.985 -2.1875 3.625 C-3.1775 3.625 -4.1675 3.625 -5.1875 3.625 C-5.1875 2.965 -5.1875 2.305 -5.1875 1.625 C-2.1875 -0.375 -2.1875 -0.375 0 0 Z " fill="#6866DC" transform="translate(89.1875,44.375)"/>
<path d="M0 0 C3.93774177 -0.36630156 5.56539771 -0.30233203 8.875 2 C9.926875 2.99 9.926875 2.99 11 4 C10.67 4.99 10.34 5.98 10 7 C9.34 6.01 8.68 5.02 8 4 C6.05167065 2.99831469 6.05167065 2.99831469 3.875 2.3125 C2.78832031 1.93544922 2.78832031 1.93544922 1.6796875 1.55078125 C1.12539062 1.36902344 0.57109375 1.18726563 0 1 C0 0.67 0 0.34 0 0 Z " fill="#2925A4" transform="translate(97,40)"/>
<path d="M0 0 C3.625 -0.1875 3.625 -0.1875 7 0 C6.34 0.66 5.68 1.32 5 2 C4.01 2 3.02 2 2 2 C2 2.66 2 3.32 2 4 C0.68 3.67 -0.64 3.34 -2 3 C-1.34 2.01 -0.68 1.02 0 0 Z " fill="#7B76EA" transform="translate(46,84)"/>
<path d="M0 0 C0.66 0.66 1.32 1.32 2 2 C1.9765625 4.3828125 1.9765625 4.3828125 1.625 7.125 C1.51414063 8.03507812 1.40328125 8.94515625 1.2890625 9.8828125 C1.19367187 10.58148438 1.09828125 11.28015625 1 12 C-1.58464442 7.61991557 -0.81479148 4.88874887 0 0 Z " fill="#5E5ED1" transform="translate(34,76)"/>
<path d="M0 0 C0 0.99 0 1.98 0 3 C-2.5 5.1875 -2.5 5.1875 -5 7 C-6.32 6.34 -7.64 5.68 -9 5 C-7.88625 4.54625 -6.7725 4.0925 -5.625 3.625 C-2.03800992 2.27534014 -2.03800992 2.27534014 0 0 Z " fill="#2C31CF" transform="translate(111,80)"/>
<path d="M0 0 C2.64 0.33 5.28 0.66 8 1 C5.4345406 3.5654594 3.52313332 3.54046087 0 4 C0 2.68 0 1.36 0 0 Z " fill="#5B5FE6" transform="translate(104,77)"/>
<path d="M0 0 C0.66 0 1.32 0 2 0 C2 1.32 2 2.64 2 4 C-0.31 4.33 -2.62 4.66 -5 5 C-5 4.34 -5 3.68 -5 3 C-3.35 2.67 -1.7 2.34 0 2 C0 1.34 0 0.68 0 0 Z " fill="#7B7EE7" transform="translate(109,72)"/>
<path d="M0 0 C0.99 0 1.98 0 3 0 C3 3.96 3 7.92 3 12 C0.50494038 9.50494038 0.64051624 8.32671112 0.375 4.875 C0.30023438 3.96492188 0.22546875 3.05484375 0.1484375 2.1171875 C0.09945312 1.41851562 0.05046875 0.71984375 0 0 Z " fill="#B5B9EE" transform="translate(116,72)"/>
<path d="M0 0 C0 3.38023517 -0.87455622 5.83468937 -2 9 C-2.99 9 -3.98 9 -5 9 C-5 7.68 -5 6.36 -5 5 C-4.34 5 -3.68 5 -3 5 C-2.5359375 4.0409375 -2.5359375 4.0409375 -2.0625 3.0625 C-1 1 -1 1 0 0 Z " fill="#C6CBF8" transform="translate(40,54)"/>
<path d="M0 0 C0.66 0 1.32 0 2 0 C1.67 2.64 1.34 5.28 1 8 C0.34 8 -0.32 8 -1 8 C-1.125 2.25 -1.125 2.25 0 0 Z " fill="#7E7AF7" transform="translate(85,48)"/>
<path d="M0 0 C1.5625 1.25 1.5625 1.25 3 3 C2.6875 5.1875 2.6875 5.1875 2 7 C1.34 7 0.68 7 0 7 C0 7.66 0 8.32 0 9 C-0.66 8.67 -1.32 8.34 -2 8 C-1.34 5.36 -0.68 2.72 0 0 Z " fill="#B69CB1" transform="translate(99,47)"/>
<path d="M0 0 C1.32 1.32 2.64 2.64 4 4 C3.67 4.66 3.34 5.32 3 6 C2.01 6 1.02 6 0 6 C-0.66 6.66 -1.32 7.32 -2 8 C-2 6.68 -2 5.36 -2 4 C-1.34 4 -0.68 4 0 4 C0 2.68 0 1.36 0 0 Z " fill="#B3B3E9" transform="translate(113,46)"/>
<path d="M0 0 C1.98 0 3.96 0 6 0 C6 1.32 6 2.64 6 4 C4.35 3.67 2.7 3.34 1 3 C0.67 2.01 0.34 1.02 0 0 Z " fill="#AEAFE9" transform="translate(102,38)"/>
<path d="M0 0 C3.465 1.98 3.465 1.98 7 4 C7 4.66 7 5.32 7 6 C2.25 5.25 2.25 5.25 0 3 C0 2.01 0 1.02 0 0 Z " fill="#2426B4" transform="translate(88,81)"/>
<path d="M0 0 C2.4375 0.1875 2.4375 0.1875 3.4375 1.1875 C3.47813832 2.85367115 3.480221 4.52138095 3.4375 6.1875 C2.7775 5.1975 2.1175 4.2075 1.4375 3.1875 C-1.62806598 2.45406572 -1.62806598 2.45406572 -4.5625 2.1875 C-2.5625 0.1875 -2.5625 0.1875 0 0 Z " fill="#E5B679" transform="translate(95.5625,45.8125)"/>
<path d="M0 0 C1.98 0 3.96 0 6 0 C6 0.99 6 1.98 6 3 C4.02 3 2.04 3 0 3 C0 2.01 0 1.02 0 0 Z " fill="#D66718" transform="translate(94,14)"/>
<path d="M0 0 C3 1 3 1 4.75 3.4375 C5.36875 4.7059375 5.36875 4.7059375 6 6 C5.67 6.66 5.34 7.32 5 8 C4.566875 7.38125 4.13375 6.7625 3.6875 6.125 C2.00259517 3.7802755 2.00259517 3.7802755 -1 2 C-0.67 1.34 -0.34 0.68 0 0 Z " fill="#8B8CC3" transform="translate(92,93)"/>
<path d="M0 0 C0.66 0.33 1.32 0.66 2 1 C1.67 2.32 1.34 3.64 1 5 C1.66 5 2.32 5 3 5 C2.67 5.99 2.34 6.98 2 8 C0.68 7.67 -0.64 7.34 -2 7 C-2 6.34 -2 5.68 -2 5 C-1.34 5 -0.68 5 0 5 C0 3.35 0 1.7 0 0 Z " fill="#8D92E4" transform="translate(58,87)"/>
<path d="M0 0 C1.65 0 3.3 0 5 0 C5.33 0.99 5.66 1.98 6 3 C4.02 3 2.04 3 0 3 C0 2.01 0 1.02 0 0 Z " fill="#A34216" transform="translate(44,69)"/>
<path d="M0 0 C0 3 0 3 -1 5 C-4.0625 5.625 -4.0625 5.625 -7 6 C-7 5.34 -7 4.68 -7 4 C-4.69 2.68 -2.38 1.36 0 0 Z " fill="#DE9F81" transform="translate(51,62)"/>
<path d="M0 0 C0.33 0.99 0.66 1.98 1 3 C-0.8125 4.5625 -0.8125 4.5625 -3 6 C-3.99 5.67 -4.98 5.34 -6 5 C-2.25 1.125 -2.25 1.125 0 0 Z " fill="#7774E9" transform="translate(105,53)"/>
<path d="M0 0 C2 2 2 2 2 5 C2.66 5 3.32 5 4 5 C4 5.99 4 6.98 4 8 C2.68 7.34 1.36 6.68 0 6 C0 4.02 0 2.04 0 0 Z " fill="#3F35A9" transform="translate(87,52)"/>
</svg>
