<?xml version="1.0" encoding="UTF-8"?>
<svg version="1.1" viewBox="0 0 2048 1228" width="1280" height="1280" xmlns="http://www.w3.org/2000/svg">
<path transform="translate(432,192)" d="m0 0h46l36 3 31 6 33 9 28 11 24 11 24 13 19 12 19 13 16 13 11 9 12 12 8 7 9 10 8 8 9 11 12 15 13 18 4 5 18 1 95-1h86l20 1 8 3 11 11 8 14 4 11 2 18 1 23 241-2h485l25 1 11 4 11 6 47 32 22 15 33 22 15 9 19 11 18 13 8 7 6 7 4 12 1 7v13l-3 16-8 11-20 20-8 7-14 12-14 13-8 7-12 11-8 7-13 12-15 14-8 7-16 15-8 7-13 12-11 9-17 16-39 36-15 14-13 12-14 11-11 7-9 3-6-1-10-5-13-11-24-24-7-8-15-16-9-10-16-17-7-7-7-8-31-31-5-3-5 1-11 9-16 17-17 17-7 8-10 10-7 8-10 10-7 8-15 16-12 13-9 9-13 9-7 3h-7l-10-6-14-12-10-9-19-19-7-8-16-17-7-8-7-7-7-8-16-17-7-8-10-11-8-6-4 1-8 8-7 6-7 8-12 13-16 16-7 8-7 7-7 8-7 7-7 8-7 7-7 8-9 9-7 8-8 8-13 8h-10l-10-5-15-13-10-10-7-8-18-18-7-3-6 1-6 4-10 4-10 1-150 1-34 1-19 1-8 2-13 14-9 11-12 14-9 11-35 35-11 9-14 11-19 14-21 13-18 10-15 8-25 11-36 12-29 8-27 4-14 1h-64l-24-2-20-4-29-8-32-11-29-12-21-11-20-12-12-8-14-10-13-10-16-13-14-12-23-23-9-11-12-15-16-23-13-22-13-25-12-28-10-30-11-42-9-45-3-27-1-19v-18l2-25 5-32 6-30 8-29 10-29 13-30 12-23 10-17 11-17 12-16 8-10 11-13 8-9 8-7 9-9 11-9 12-10 14-11 17-12 19-12 21-12 17-9 28-12 24-8 28-7 24-4z" fill="#FDA30A"/>
<path transform="translate(428,284)" d="m0 0h49l36 6 27 7 26 9 5 3 9 3 21 10 9 6v2l5 1 14 9 10 7 3 1 5 5 10 8 5 3 14 15 3 3 3 1 5 7v2h2l9 11 18 26 3 5v2h2l11 25 15 38 9 28 4 15 3 15 3 3 3 1 461 4h295l-8-16-8-12-11-13-6-5-243-1-5-2-2-4v-10l1-1 7-1 24-1h136l46 1 28 1 13 1 10 6 11 11 18 22 10 14 6 8 1 4 109-1h286l4 1v2l-20 1-1 3 6 2 9 2 7 3 6 1 16 1-6-7-18-12-11-8-19-14-18-13-12-9-1-2 5 2 27 18 15 9 19 11 18 13 8 7 6 7 4 12 1 7v13l-3 16-8 11-20 20-8 7-14 12-14 13-8 7-12 11-8 7-13 12-15 14-8 7-16 15-8 7-13 12-11 9-17 16-39 36-15 14-13 12-14 11-11 7-9 3-6-1-10-5-13-11-24-24-7-8-15-16-9-10-16-17-7-7-7-8-31-31-5-3-5 1-11 9-16 17-17 17-7 8-10 10-7 8-10 10-7 8-15 16-12 13-9 9-13 9-7 3h-7l-10-6-14-12-10-9-19-19-7-8-16-17-7-8-7-7-7-8-16-17-7-8-10-11-8-6-4 1-8 8-7 6-7 8-12 13-16 16-7 8-7 7-7 8-7 7-7 8-7 7-7 8-9 9-7 8-8 8-13 8h-10l-10-5-15-13-10-10-7-8-18-18-7-3-6 1-6 4-10 4-10 1-150 1-34 1-19 1-8 2-13 14-9 11-12 14-9 11-35 35-11 9-14 11-19 14-21 13-18 10-15 8-25 11-36 12-29 8-27 4-14 1h-64l-24-2-20-4-29-8-32-11-29-12-21-11-20-12-12-8-14-10-13-10-16-13-14-12-23-23-9-11-12-15-16-23-13-22-13-25-12-28-10-30-1-8h2l7 16 3 9 8 17 10 19 15 26 16 24 9 10v2h2l8 10v2h2l2 5 3 1 5 5v3l4 2 8 8 4 3v2l3 1v2l4 2 14 12 11 8 15 11 16 10 13 8 12 7 25 11 17 7 16 8 15 5 32 8 17 2 6 1 31 3 25 2 1 1 9-1 14-4 42-4 17-3 16-4 23-6 30-11 22-9 16-8 16-7 9-6 11-8 11-9 2-3 5-2 3-3h2v-2l4-1v-2l6-5h2v-2l5-2 2-4 12-11 13-12 7-7 7-8 7-7 9-11 1-2h2l2-4 7-11h2l2-6 3-1 33-1h184l10-1 8-4-1-5 5-8 6 1 9 8 7 8 12 13 16 16 13 10 7 4h9l8-5 12-11 12-12h2v-2l8-7 15-15 7-8 25-25 7-8 13-14 7-8 15-16 7-9 4 2 10 10 9 11 15 16 9 10 16 16 7 8 8 8 7 8 48 48 10 6 4 1v-2l10-6 9-9 6-5 7-8 29-29 7-8 8-8 7-8 9-10 9-11 9-9 7-8 28-28 5 3 12 12 7 8 9 10 12 13 18 18 10 11 7 8 13 14 5 5 7 8 8 7 11 11 4 5 13 9 4 2h10l4-1v-3l12-7h2v-2l8-5 11-9 10-8 11-10 8-7 10-9 11-9 11-10 11-9 15-13 17-16 26-24 10-10 7-9 13-12 8-7 6-5h2v-2l8-7 16-15 28-28 1-2-284-1v90l1 9 112-1h34l14 1 2 2-7 2-123 1h-28l-26-1-1-1-1-20v-82h-492l-2 5-10 16-19 29-7 11-16 24-4 2h-219l-131-1-4-1 2-9 4-2 28-2 47-1 108-1h126l10-24 12-25 10-22-329 1-4 24-3 13-3 11-8 26-4 12-3 8-5 14-8 16-9 17-5 8-1 3-2 1-1 3-2 1-1 3-5 5-3 5-5 4-2 4-4 3-2 5-12 14-18 18-14 11-3 1v2l-13 10-17 11-23 13-26 11-26 9-26 6-25 4-10 1h-35l-31-3-20-3-32-9-17-6v-2h-5v-2l-13-3-26-13-25-15-14-10-14-11-12-11-11-11-9-11-11-14-13-19-12-20-9-17-12-28-7-21-6-24-5-30-1-10v-48l3-19 6-29 8-28 7-19 8-18 7-15 8-17 4-6 1-3h2l2-6 6-9 11-15 2-3h2l2-5 16-17 11-11h2v-2l30-23 15-10 16-9 21-10 8-4 16-5 13-4 15-4 2-1 9-1 8-2z" fill="#C46104"/>
<path transform="translate(432,192)" d="m0 0h46l36 3 31 6 33 9 28 11 24 11 24 13 19 12 19 13 16 13 11 9 12 12 8 7 9 10 8 8 9 11 12 15 13 18 4 5 18 1 95-1h86l20 1 8 3 11 11 8 14 4 11 2 18 1 23 241-2h485l25 1 11 4 11 6 47 32 22 15 4 5 14 10 18 13 16 12 30 21 5 5-1 2-16-1-8-2-7-3-15-3 3-4 3-1h17v-2h-399l-6-10-8-10-6-8-11-14-14-15-9-6-2-1-13-1-28-1-46-1h-136l-24 1-7 1v10l2 4 4 1 243 1 8 7 11 13 8 13 6 12v2l-26 1h-269l-275-2-186-2-6-3-3-10-3-14-7-24-7-20-18-44-4-8v-3h-2l-9-15-4-5-7-10-7-9-3-3v-2h-2l-5-7v-2l-4-1-12-12-6-7-6-3-9-8-3-2v-2l-4-1-24-16-4-1-3-3-9-5-22-11-6-2-18-7-23-7-26-6-26-4h-49l-31 4-8 2-9 1-4 2-16 4-26 8-15 7-22 11-14 9-17 12-14 11-6 5h-2v2l-8 7-13 13-9 11-1 2h-2l-2 4-12 17-4 6-3 6h-2l-1 5-4 7-12 24-12 28-9 27-7 28-4 23-2 12v48l3 24 6 29 3 17 4 14 5 16 3 12 1 1v5l-5 1-8-11-9-10-8-6-5-3-14-1-2 5-4 6-2 1-9 1-2 2-1 12 6 16 4 8 3 10 8 16 15 26 8 11 4 7 4 6 8 10 11 13 5 4 7 8 17 17 4 5v2l4 2 9 8 1 3-3 1 3 3-1 3-18-14-10-10-7-6-5-5-9-10-7-7-9-11-11-13-5-7v-2h-2l-7-9-9-14-13-23-3-3-10-19-5-11-3-9-4-10v-2h-3l-9-34-9-45-3-27-1-19v-18l2-25 5-32 6-30 8-29 10-29 13-30 12-23 10-17 11-17 12-16 8-10 11-13 8-9 8-7 9-9 11-9 12-10 14-11 17-12 19-12 21-12 17-9 28-12 24-8 28-7 24-4z" fill="#FDCB13"/>
<path transform="translate(620,397)" d="m0 0h17l9 2v2l7 1v2h3l4 4 8 6 7 11 5 15 2 12v33l-3 14-4 13-7 15-9 15-9 12-12 8h-2v5l4 4 7 11v3h2l4 6 7 9 8 11 6 11 9 17 7 20 3 21 5 6 5 2 1 1v6l-11 15h-3l-1 6-9 15-1 5 4 2 3 3v2l5 2 6 4 7 4 1 2v8l-6 9-2 1-1 3-4 1-2-4-6-4-7-3h-3-11l-7-1-5 5-11 8-3 2-1 3h2l1 3 2 1 2 4 5 3 3 7v11l-5 1-1-2-11-4-10-11-7-3-6 2-10 4-10 8-4 4h-7l-5-1-9 4-14 5-8 2-10 6-19 7-1-3h-19l-12 6-6 1-2-1-21-3v-2h-10l-4 4-11 1-3-1v-2l-9-3-5-4h-6l-1 1h-5v-3h-11l-13-2-7-6-20-5-11-4h-6l-5 3-4-1-5-3-1-3-4-2-11-4-7-2h-8v2l-6 4-9 5-7 8-4 2-2-3 1-9 6-12 2-3-1-4-5-4-8-4-5-5-12-6-12 1-6 3-4 3h-8l-2-1v-2l-3-1 1-5 5-10 7-6 5-6h3l2-5 3-6-7-12v-2l-4-2v-2h-2l-8-10-2-4v-8l6-7 5-4 2-4 1-17 4-12h2l6-18 3-5h2l1-5h2l1-5h2v-3h2l1-4 2-4h2l1-4 2-3h2l1-4 4-6 5-5 7-13 2-5-9-3-5-2v-2l-4-2-5-5v-3h-2l-3-5-7-13-6-16-2-9-2-14v-32l1-9 1-1 2-12 5-11h2l1-4 5-5 7-8 11-7 13-3h27l18 4 4 2v2l6 2 4 3 5 3 3 3 6 2h3v-2h3v-2l2-1h6l5 5 6 4h7l4-1v-2h3v-2h3v-2l14-6 4-2 1-4 3-3 3-1h34l12 5 7 4 8 2v-5l3-2h9l18 10 4 2v2l5 2 3 3 4-1 1-2 1-10h9l12 4 12 3 5 2 6 1v-2l6-4 8-6 7-4 9-4 11-1z" fill="#FDA30A"/>
<path transform="translate(620,397)" d="m0 0h17l9 2v2l7 1v2h3l4 4 8 6 7 11 5 15 2 12v33l-3 14-4 13-7 15-9 15-9 12-12 8h-2v5l4 4 5 8 2 8 11 16 1 5 2 6h2l2 5 5 22 3 7 1 9 2 9 2 14-15-1-8-7-4-2-1-4-2-1h-8l-4 3-3 3-2 4h-36l-36-1-4-2 4-1 1-5-4-1-3-4-1-4-6-4v-2l-4-2-3-4-6-2-4-5-8-5-2-2-2-5-6-5-5-2 3 6 9 11 12 10 7 8 4 5-1 4-5 4-7 3v4l9 5 2 5v5l-2 2-5 1-11-1h-10l-5 3h-7l-3-2h-3l-1-2-8-4-3-1-1-2v-9l-2-1-5 3-4 5-8 1-5-2-7-6-8-4-5-4-7-12-3-10-3-3-1-9 1-24v-12l-3-17-4-12-6-15v-2h-12l-2-5h-10l-5-5-17-4-10-1-4-4-1-2v-6l5-4 7-3 10-1 11 1-3-6 1-1v-5l-2-4-8-1-9-7-3-4v-5h-5v-6l3-1 2-5-2-1 3-6h3l3-6-3-1 1-1-1-11-4-5-11-1-5 2v7l1 4h2l-2 5-5 5-3-1 2-4-4 1-6-2-6-9-6-16-3-5-8-13-1-9 2-2h7l3 4 9 2 6 2 5 5 7 6 8 1 2-5h3v-2l2-1h6l5 5 6 4h7l4-1v-2h3v-2h3v-2l14-6 4-2 1-4 3-3 3-1h34l12 5 7 4 8 2v-5l3-2h9l18 10 4 2v2l5 2 3 3 4-1 1-2 1-10h9l12 4 12 3 5 2 6 1v-2l6-4 8-6 7-4 9-4 11-1z" fill="#FDCB13"/>
<path transform="translate(1541,723)" d="m0 0 5 3 12 12 7 8 6 7-1 2h-2l1 4 3 4 3 1 7 9 9 10 9 11 8 9 1 3-2 1v-2l-4-2-14-14-6-5v-2l-4-2-6-4v-2h-2v-2l-7-2-13-13-5-3-5 1-11 9-16 17-17 17-7 8-10 10-7 8-10 10-7 8-15 16-12 13-9 9-13 9-7 3h-7l-10-6-14-12-10-9-19-19-7-8-16-17-7-8-7-7-7-8-16-17-7-8-10-11-8-6-4 1-8 8-7 6-7 8-12 13-16 16-7 8-7 7-7 8-7 7-7 8-7 7-7 8-9 9-7 8-8 8-13 8h-10l-10-5-15-13-10-10-7-8-18-18-7-3-6 1-6 4-10 4-10 1-150 1-34 1-19 1-8 2-13 14-9 11-12 14-9 11-35 35-11 9-14 11-19 14-21 13-18 10-15 8-25 11-36 12-29 8-27 4-14 1h-64l-24-2-20-4-29-8-32-11-29-12-21-11-20-12-12-8-14-10-13-10-16-13-14-12-23-23-9-11-12-15-16-23-13-22-13-25-12-28-10-30-1-8h2l7 16 3 9 8 17 10 19 15 26 16 24 9 10v2h2l8 10v2h2l2 5 3 1 5 5v3l4 2 8 8 4 3v2l3 1v2l4 2 14 12 11 8 15 11 16 10 13 8 12 7 25 11 17 7 16 8 15 5 32 8 17 2 6 1 31 3 25 2 1 1 9-1 14-4 42-4 17-3 16-4 23-6 30-11 22-9 16-8 16-7 9-6 11-8 11-9 2-3 5-2 3-3h2v-2l4-1v-2l6-5h2v-2l5-2 2-4 12-11 13-12 7-7 7-8 7-7 9-11 1-2h2l2-4 7-11h2l2-6 3-1 33-1h184l10-1 8-4-1-5 5-8 6 1 9 8 7 8 12 13 16 16 13 10 7 4h9l8-5 12-11 12-12h2v-2l8-7 15-15 7-8 25-25 7-8 13-14 7-8 15-16 7-9 4 2 10 10 9 11 15 16 9 10 16 16 7 8 8 8 7 8 48 48 10 6 4 1v-2l10-6 9-9 6-5 7-8 29-29 7-8 8-8 7-8 9-10 9-11 9-9 7-8z" fill="#C56304"/>
<path transform="translate(416,400)" d="m0 0h34l12 5 4 4-11-1-5 1-11-3-3-2-6-1-7 3 6 7 1 5-5 6-5 4-4 1-2 5 3 1-7 9-6 9v13l8 10 3 3 5 11 3 11 2 9 6 22 3 7 1 13 1 4 1 13 2 5 3 13 1 9-3 16v10l1 5 2 22 2 9 8 5 5 6 5 2h8l6-4h2l6-15 7-21 4-15v-10l-3-6-3-4 1-7 7-13 4-5 1-3v-23l7-1 6 3h6l12-5 15-3h13l4 2v2l4 2 6 4-1 6-1 2v13l3 9 5 16v7l-3 12-12 12-7 11-10-1-4-1-4 3 4 5 16 8 15 10 11 4 6 2 7 1 9 3 2-1 10-1 2-2-1-4-4-6 1-5 5-2 1-2 13-4 7-5-4-5 13 2 1-5v-8l1-5-10-14-4-5-3-12-3-5v-8l1-5 3 4 4 6 2 8 11 16 1 5 2 6h2l2 5 5 22 3 7 1 9 2 9 2 14-15-1-8-7-4-2-1-4-2-1h-8l-4 3-3 3-2 4h-36l-36-1-4-2 4-1 1-5-4-1-3-4-1-4-6-4v-2l-4-2-3-4-6-2-4-5-8-5-2-2-2-5-6-5-5-2 3 6 9 11 12 10 7 8 4 5-1 4-5 4-7 3v4l9 5 2 5v5l-2 2-5 1-11-1h-10l-5 3h-7l-3-2h-3l-1-2-8-4-3-1-1-2v-9l-2-1-5 3-4 5-8 1-5-2-7-6-8-4-5-4-7-12-3-10-3-3-1-9 1-24v-12l-3-17-4-12-6-15v-2h-12l-2-5h-10l-5-5-17-4-10-1-4-4-1-2v-6l5-4 7-3 10-1 11 1-3-6 1-1v-5l-2-4-8-1-9-7-3-4v-5h-5v-6l3-1 2-5-2-1 3-6h3l3-6-3-1 1-1-1-11-4-5-11-1-5 2v7l1 4h2l-2 5-5 5-3-1 2-4-4 1-6-2-6-9-6-16-3-5-8-13-1-9 2-2h7l3 4 9 2 6 2 5 5 7 6 8 1 2-5h3v-2l2-1h6l5 5 6 4h7l4-1v-2h3v-2h3v-2l14-6 4-2 1-4 3-3z" fill="#FEB912"/>
<path transform="translate(769,626)" d="m0 0h329l-3 9-17 36-7 16-4 10-1 1h-133l-105 1-43 1-28 2-3 1-3 9 4 1h-6l-2-4 8-24 5-16 3-16 3-13 2-13z" fill="#FEA30A"/>
<path transform="translate(71,740)" d="m0 0h2l7 16 3 9 8 17 10 19 15 26 16 24 9 10v2h2l8 10v2h2l2 5 3 1 5 5v3l4 2 8 8 4 3v2l3 1v2l4 2 14 12 11 8 15 11 16 10 13 8 12 7 25 11 17 7 16 8 15 5 32 8 17 2 6 1 31 3 25 2 1 1 9-1 14-4 42-4 17-3 16-4 23-6 30-11 22-9 16-8 16-7 9-6 11-8 11-9 2-3 5-2 3-3h2v-2l4-1v-2l6-5h2v-2l5-2 2-4 12-11 13-12 7-7 7-8 7-7 9-11 1-2h2l2-4 4-5h2l1 7 8-1 2 5-14 15-9 11-12 14-9 11-35 35-11 9-14 11-19 14-21 13-18 10-15 8-25 11-36 12-29 8-27 4-14 1h-64l-24-2-20-4-29-8-32-11-29-12-21-11-20-12-12-8-14-10-13-10-16-13-14-12-23-23-9-11-12-15-16-23-13-22-13-25-12-28-10-30z" fill="#C46104"/>
<path transform="translate(428,284)" d="m0 0h49l36 6 27 7 26 9 5 3 9 3 21 10 9 6v2l5 1 14 9 10 7 3 1 5 5 10 8 5 3 14 15 3 3 3 1 5 7v2h2l9 11 18 26 3 5v2h2l11 25 4 10-1 2-1-3-3-1-10-14-10-13-3-3v-2l-3-1-5-6v-2l-4-2-14-14-7-8-18-18-8-7-6-5v-2l-4-1v-2h-3v-2h-3l-4-4-21-13-23-12-13-6-16-6-22-7-13-3-30-5-16-2-19-1h-12l-34 2-31 6-18 5-21 7-8 4-11 4-16 8-6 2v2l-8 4-4 1v2l-16 10-14 11-13 12-4 4h-2l-2 4-14 14-7 9-8 7-14 12-5 4-3-2-2 1 1-4 4-8h2l2-6 6-9 11-15 2-3h2l2-5 16-17 11-11h2v-2l30-23 15-10 16-9 21-10 8-4 16-5 13-4 15-4 2-1 9-1 8-2z" fill="#E47805"/>
<path transform="translate(894,408)" d="m0 0h18l12 5 12 9 7 8 4 4 6 10 6 14 2 9v4h2v13l-3 12-8 14-10 10-14 9-9 4-8 2h-19l-15-5-12-7-12-12-6-10-5-12-1-5v-15l4-15 6-11 10-14 11-11 16-8z" fill="#C46104"/>
<path transform="translate(763,559)" d="m0 0 6 2 186 2v1l16 1 23 1 150 1 55 1 92 1h145l91-1 1 4-3 1-1 4-12 3h-47l-10 1-22 1h-667l-2-1-1-11z" fill="#E37705"/>
<path transform="translate(620,397)" d="m0 0h17l9 2v2l7 1v2h3l4 4 8 6 7 11 5 15 2 12v33l-3 14-4 13-7 15-9 15-9 12-12 8h-2l-1 3-4-2-9-11-7-10-12-21-6-8-3-10-3-17v-25l4-15 8-16 7-10 5-6 14-9 1-2h3v-3l-10-1-13 1 2-2z" fill="#FDCB13"/>
<path transform="translate(416,193)" d="m0 0h10v1l-26 4-7 2-17 1-12 2-2 2h13l3 2-4 3-11 4-9 3-35 16-35 18-14 8-13 8-8 4-10 7-10 6-11 9-9 7-24 24-7 8-9 10-11 13-10 11-8 12-7 10-9 14-23 46-5 13-7 16-7 20-6 21-7 21-4 10-2-1 2-16-2 4-4 20-1 21-1 5v12l1 5v11l2 15 7 36 8 35 8 31 7 23 2 12v6l-3 1-7-18-5-16-6-22-4-16-4-14-4-12-4-26v-3h-2v9l-2 2-2-19-1-19v-18l2-25 5-32 6-30 8-29 10-29 13-30 12-23 10-17 11-17 12-16 8-10 11-13 8-9 8-7 9-9 11-9 12-10 14-11 17-12 19-12 21-12 17-9 28-12 24-8 28-7 24-4z" fill="#FEDF37"/>
<path transform="translate(53,642)" d="m0 0h2l4 21 2 12 6 18 4 18 5 16 6 21 6 17 2 3h2l-3-16-4-16-6-20-2-8v-11l-3-12 1-20 3-5 7 1v3l-1 2 7-1 4-5 6-3 2-5 9 5 7 11v2l4 2 8 7 7 9h5l-1-17 2 3 5 27 4 14 5 16 3 12 1 1v5l-5 1-8-11-9-10-8-6-5-3-14-1-2 5-4 6-2 1-9 1-2 2-1 12 6 16 4 8 3 10 8 16 15 26 8 11 4 7 4 6 8 10 11 13 5 4 7 8 17 17 4 5v2l4 2 9 8 1 3-3 1 3 3-1 3-18-14-10-10-7-6-5-5-9-10-7-7-9-11-11-13-5-7v-2h-2l-7-9-9-14-13-23-3-3-10-19-5-11-3-9-4-10v-2h-3l-9-34-9-45v-14z" fill="#FEBA13"/>
<path transform="translate(1900,715)" d="m0 0 2 1-7 7-8 7-17 16-8 7-16 15-8 7-13 12-11 9-17 16-39 36-15 14-13 12-14 11-11 7-9 3-6-1-10-5-13-11-24-24-7-8-15-16-9-10-16-17-7-7-7-8-17-17 3-1 3 2v2h2v2l5 2 5 4v2l4 2 5 5v2l4 2 9 9 3 1-7-9-10-11-9-11-7-8v-2l-4-1-4-5 1-5 5 2 14 15 17 17 10 11 7 8 13 14 5 5 7 8 8 7 11 11 4 5 13 9 4 2h10l4-1v-3l12-7h2v-2l8-5 11-9 10-8 10-9 5-2 10-7 7-4 10-4 10-9 7-5h2v-2l11-8 12-11 8-7 4-2v-2l5-5 10-9 12-12h2v-2l9-6 9-3 6-3h3v-2z" fill="#C56304"/>
<path transform="translate(1662,566)" d="m0 0h286l4 1v2l-20 1-1 3 6 2 9 2 7 3 6 1 18 1 4 6-10-3-27-1h-85l-41 1h-77l-112-2h-65l-3-1-6-12 21-1h76l75-1-65-1z" fill="#E37705"/>
<path transform="translate(769,626)" d="m0 0h329l-3 9-17 36-5 11h-15l2-4 4-1h2l6-9 2-8-2-2-5-13-7-4v-2l-4-2 2-1 8 2-3-4-4-1-18-1h-72v1l-65 1-23 2-14 1h-8l-4-3-9-1-13 1 9 3v1l-13 2-9 1-13 2-9 3-9 6-2 2 1 7 2 2 4 1 47 1 15 1 26 4 13 4 4 2v2l-23 1-3 1h-37l-23-1h-26l-27 1-1-1 1-10 3-16 3-13 2-13z" fill="#FEB712"/>
<path transform="translate(1789,513)" d="m0 0h15l6 4v2l10 1 6 1-1-2 8 1 28 7 7 2 1 5 4 1 3 6 3 2-1 9 3 1-1 4-2-1 3 7 8 1h59l2-3 11 8 10 7 5 5-1 2-16-1-8-2-7-3-15-3 3-4 3-1h17v-2l-166-1v-1h19v-2l2-2-25-6-18-4-16-2-3-1h-10l-11-2 4-3 3-1 4-6h3v-3l8-1 5-2-1-6 3-2 10-3 5-2 5-1 6-2z" fill="#FFBA13"/>
<path transform="translate(465,192)" d="m0 0h13l36 3 31 6 33 9 28 11 24 11 24 13 19 12 19 13 16 13 11 9 12 12 8 7 9 10 8 8 9 11 12 15 13 18 4 5 18 1v1l-10 1 8 3 31 5 3 1 10 2v1l-19 1-24-3h-14l-14-3-8-6-8-8-11-16-9-11-11-13-7-8-4-5-5-4-7-8-11-9v-2l-4-2-11-9-9-7-16-10-11-8-14-8-14-7-13-8-17-8-18-9v-2l-8-2-9-3-5-2-11-1-11-6-7-3-25-3-17-5-17-2z" fill="#FEDF35"/>
<path transform="translate(417,292)" d="m0 0 14 1h11l20-1 28 2 16 2 24 6 14 4 11 4 21 8 25 12 17 10 22 15 6 7 3 12 1 2-7-2v-2l-4-1v-2h-3v-2h-3l-4-4-21-13-23-12-13-6-16-6-22-7-13-3-30-5-16-2-19-1h-12l-34 2-31 6-18 5-21 7-8 4-11 4-16 8-6 2v2l-8 4-4 1v2l-10 4-9 7-7 1-2-1-1-5 5-3 10-7 5-5 18-10 4-3 11-4 7-4 7-2 4-2h4v-2l26-9 8-3 12-4 10-5 20-5z" fill="#FD8E0A"/>
<path transform="translate(549,539)" d="m0 0h13l4 2v2l4 2 6 4-1 6-1 2v13l3 9 5 16v7l-3 12-13 13-4 1v2l-7 3h-10l-10-6-11-8-3-5v-2l-3-1-1-9-4-16-2-13-1-2-4-2-1-2-1-11-1-3v-8l7-1 6 3h6l12-5z" fill="#FEA30A"/>
<path transform="translate(1274,499)" d="m0 0h136l46 1 28 1 13 1 10 6 11 11 18 22-1 3-10-11-4-5-7-5 2 5 11 16 6 9-1 2-10-8h-2l3 9h-2l-9-15-13-16-7-6-243-1-5-2-2-4v-10l1-1 7-1z" fill="#C56204"/>
<path transform="translate(775,681)" d="m0 0 236 2h61l-5 14-1 1h-133l-105 1-43 1-28 2-3 1-3 9 4 1h-6l-2-4 6-18 11-5 5-1 2-3z" fill="#EA830A"/>
<path transform="translate(1540,714)" d="m0 0h5v2h2v2l4 2 17 14 10 9 18 18 9 11 5 6 3 5 7 9 5 7v3l2 1h-6l-7-6-5-3-5-6-5-4-7-8-15-15-7-8-12-13-7-8-7-7-3-1-33 33-7 8-11 12-9 11-7 7-7 8-8 8-7 8-29 29-6 7-8 7-9 7-4 1v2l-6-1-10-7-53-53-7-8-8-8-7-8-17-17-7-8-11-12-9-11-10-10-3-9 3 1 5 5 6 5 10 7 14 14 8 7 12 13 15 16 7 8 13 14 17 17 7 8 23 23 3 2h7l6-5 7-8 31-31 7-8 8-7 7-8 8-8 7-8 12-13 8-8 7-8 31-31h2z" fill="#FEB912"/>
<path transform="translate(763,559)" d="m0 0 6 2 153 2v1l-31 1 12 1 53 1 93 1h47l11 1 47 1h133l16 1 8 2v2l-3 1h-172l-23-1-6 1h-47l-23-1h-140l-21 2-19 1-22 1h-17l-18 2h-36l-1-11z" fill="#EB840A"/>
<path transform="translate(620,397)" d="m0 0h17l9 2v2l7 1v2h3l4 4 8 6 2 5-7 2-5 2-2 10-6 7-11 3-7 2v4l-9 3h-2l-2 4-8 10-3 9 1 11-1 2v32l6 11 11 15 8 10 11 1-4 4-4 1-1 3-4-2-9-11-7-10-12-21-6-8-3-10-3-17v-25l4-15 8-16 7-10 5-6 14-9 1-2h3v-3l-10-1-13 1 2-2z" fill="#FDA309"/>
<path transform="translate(1311,626)" d="m0 0h245l99 1-1 6-4-2h-55l-16-1-5-1h-40l-6 1-95 1-59 1h-78l-36 1-19 1-4 1-3 1 2 4-16 4-1 2h-14l-2-2 5-3h3l1-4-12-2-3-1-19-2v2l-4 1 1 2v7h-2l-2 4-9 13-12 14-11 9-8 7-8 6-4 5-2 5-5 5-3 1 1-4 16-24 10-16 10-15 11-17 6-10z" fill="#FEB812"/>
<path transform="translate(1890,517)" d="m0 0 5 2 27 18 15 9 19 11 18 13 8 7 6 7 4 12 1 7v13l-3 16-8 11-20 20-8 7-14 12-14 13-8 7-12 11-9 5h-2v2l-9 4-9 3-6 4-3 1v2l-8 7-18 18-3 1v2l-8 7-10 9-11 9-4 3h-2v2l-6 4-10 9-16 8-5 3-12 8-1-2 8-7 10-9 11-9 11-10 11-9 15-13 17-16 26-24 10-10 7-9 13-12 8-7 6-5h2v-2l8-7h4l5-2-1 4h-2l-2 4-8 7-5 5-3 1-2 4-3 1v2l-5 5-6 7 1 2 6-2v-2l12-9 14-11 11-9 13-11 10-9 6-5 5-6h2v-2h2l2-4 7-8h2l2-10-1-4-2-5 2-1 3-10 1-1v-7l-6-9-11-12-19-13-11-8-19-14-18-13-12-9z" fill="#A75207"/>
<path transform="translate(1541,723)" d="m0 0 5 3 12 12 7 8 6 7-1 2h-2l1 4 3 4 3 1 7 9 9 10 9 11 8 9 1 3-2 1v-2l-4-2-14-14-6-5v-2l-4-2-6-4v-2h-2v-2l-7-2-13-13-5-3-5 1-11 9-16 17-17 17-7 8-6 6-6 2v2l-14 7-11 10-5 5-5 3-2-1-1-1-4-2-2 1 2-4 21-21 7-8 8-8 7-8 9-10 9-11 9-9 7-8z" fill="#AF5908"/>
<path transform="translate(665,419)" d="m0 0h6l4 6v2l-6 3h-3l-7 12-9 7-5 2-4 2-6 5-2 5-1 9 6 9 1 4 3 1 4 10 5-2 4-1 4 4-2 10-4 6-9 4v2l5-1-1 5-9 8-8 4-6 2-2 1-2 4-10-14-4-8v-32l1-7-1-8 5-10 8-9 3-3 9-2v-4l10-4 8-2 6-8 2-8z" fill="#FEB912"/>
<path transform="translate(1284,784)" d="m0 0 4 2 3 3v2h2v2l4 1 7 6 6 7 11 8 5 2v2l4 1 16 16 13 10 2 1 1-2 20 20 10 6 4 1v-2l10-6 9-9 6-5 7-8 6-5 3-1 6 3 4-1 4-5 11-9 7-5 6-3h3v-2l5-2-6 8-14 14-7 8-15 16-12 13-9 9-13 9-7 3h-7l-10-6-14-12-10-9-19-19-7-8-16-17-7-8-7-7-7-8-12-13z" fill="#C56304"/>
<path transform="translate(1677,643)" d="m0 0h1l1 69 5-1 93 1h89l2 5-2 6-7 7-11 2h-169l-17-1v-1h49l124-1 5-1-1-1-21-1h-139l-2-9z" fill="#EB840A"/>
<path transform="translate(1675,628)" d="m0 0h2l1 89 1 9 112-1h34l14 1 2 2-7 2-123 1h-28l-26-1-1-1-1-20v-75l1-4 6-1h9z" fill="#C36104"/>
<path transform="translate(321,616)" d="m0 0 7 1 9 6 9 5 12 4 13-1 9 3 1 3-4 6-8 6h-2v2l-6 4-1 3v6l-4 4-3 1h-13l-6-3-2-4-16-2h-10l-4-4-4-9-5-5-1-7 4-5 7-5 16-8z" fill="#FEBA13"/>
<path transform="translate(429,289)" d="m0 0h48l24 3 7 2 16 3 18 6 10 5-4 1-13-5-15-3-9-3-9-2-21-2-24-1-20 1h-10l-10-1-12 2-16 4-15 7-14 4-10 4-14 5h-3v2l-8 3-9 3-12 6-7 3-4 3-6 3-9 5-4 2-1 3-11 8-3 2v4l9-1 9-7 6-2-4 4-13 9-10 8-12 11-4 4h-2l-2 4-14 14-7 9-8 7-14 12-5 4-3-2-2 1 1-4 4-8h2l2-6 6-9 11-15 2-3h2l2-5 16-17 11-11 2 1v1l8-6 6-4 6-2 12-8 11-8 19-9 12-6 20-9 21-8 12-4 7-3 22-5zm-166 62m-1 1m-1 1m-17 8 2 1-2 1z" fill="#EB840B"/>
<path transform="translate(1249,728)" d="m0 0 4 2 10 10 9 11 15 16 9 10 16 16 7 8 8 8 7 8 27 27v3l-5-2-14-12-13-13-3-1v-2l-5-1-13-10-6-7-6-5-3-1v-2h-2l-5-6-5-3-18-20-12-18h-4l-6 10-2 5-17 14-10 9-5 6h-2l-2 4-14 14-8 7-3 3h-2v2l-11 9-9 7h-2v2l-6 4-9 8-7 8-4 4-2-1 9-9 2-4 6-6h2v-2l8-7 15-15 7-8 25-25 7-8 13-14 7-8 15-16z" fill="#A75107"/>
<path transform="translate(787,822)" d="m0 0 4 1 1 4-3 5-4 5-8 12h-2l-2 5-16 17-3 4h-2l-2 4-14 14-8 7-10 9-4 4h-2v2l-6 5h-2v2l-4 1v2l-6 5-7 3-21 14-29 16-19 9-9 3-30 11-24 7-41 8-27 3h-30v-2h9l3-1 24-2 37-7 24-6 32-10 17-6 20-9 22-11 12-7 11-6 5-4 13-8 7-6 8-7 11-9 5-5 12-11 12-13 14-15 7-8 7-9 6-7 3-5 2-1v-2z" fill="#FFBA13"/>
<path transform="translate(1838,746)" d="m0 0 2 1-12 12-8 7-10 9-11 9-12 11-11 9-10 9-8 7-11 10-10 8-14 11-5 4-4 1v2l-12 7h-2v3l-4 2h-10l-12-7-9-8-7-8-10-10-7-6-5-7-8-7-12-13-4-6 4 2 5 4h4l-4-8-5-5 1-2 8 8 7 8 15 15 7 8 25 25 11 8h6l5-3h2l1-3 11-9 13-11 12-11 11-9 24-22 11-9 12-10 18-12 10-7z" fill="#FEB912"/>
<path transform="translate(1248,725)" d="m0 0 1 4-9 11-16 17-11 12-7 8-14 15-22 22-7 8-16 16h-2v2l-8 7-14 14-6 5-6 3h-9l-11-7-13-11-21-21-7-8-9-10-7-4-1-6 13 3 7 5 7 4 10 10 8 7 7 8 10 10 5 6 2 1v2h10l8-6 13-12h2v-2l8-7 12-13 32-32h2l2-4 4-4h2l2-4 30-30 7-8h3l4-5v-2z" fill="#FEB612"/>
<path transform="translate(97,793)" d="m0 0 3 3 13 23 8 12 6 7v2h2l8 11 9 11 13 15 15 15 6 7 8 7 10 9 16 12 14 11 18 11 14 8 19 10 27 11 16 6 25 8 24 6 36 6 8 1 19 1h41l32-3 29-5 26-6 33-11 19-8 29-14 23-13 21-14 2 1-13 11-10 7-9 6-23 10-16 8-28 11-21 7-30 8-15 3-37 4-16 2-14 4h-5l-3-1-46-4-11-1-11-2-14-2-19-5-14-4-11-4-16-8-29-12-16-8-14-8-17-11-12-8-26-20-11-9-3-3v-2l-4-2-5-4-1-4-6-3-1-3-7-6-2-5h-2l-7-9-1-3h-2l-9-11-8-11-12-19-13-23z" fill="#E37705"/>
<path transform="translate(926,687)" d="m0 0h69l34 2 11 1 26 2 2 1-2 5h-133l-105 1-43 1-28 1v-1l20-2 13-3 29-2 42-2h37l9-1 2-1 13-1z" fill="#E37705"/>
<path transform="translate(401,640)" d="m0 0h11l5 2v2h2l5 7 7 16 7 15-1 12-5 3-10-2-12-1v-2l-5-1-10-5h-4l-1-1v-14l-4-4-2-3 1-8 6-8 5-5z" fill="#FFBA13"/>
<path transform="translate(907,378)" d="m0 0h86l20 1 8 3 11 11 8 14 4 11 2 18 1 23h122v1l-14 1v1l-25 2-56-1-20-2h-7l-6-3-2-5-1-4v-10l-2-1v-2h-2l-7-19-1-4v-3l-6-9-7-6-12-7-5-5-1-2h-36l-5 1h-16l-5 1h-40l-5-1-8 1-4-1-47-1-3-2z" fill="#FCDC34"/>
<path transform="translate(509,302)" d="m0 0 18 2 25 5 24 9 25 12 17 10 22 15 6 7 3 12 1 2-7-2v-2l-4-1v-2h-3v-2h-3l-4-4-21-13-23-12-13-6-16-6-22-7-17-4-4-5-8-4 1-3z" fill="#FDA209"/>
<path transform="translate(501,630)" d="m0 0 13 1 6 7 10 8 7 8 3 3-1 4-6 5-7 3-3 2v7l-9 4h-10l-10-6-2-2-2-17 3-15 3-9z" fill="#FECB13"/>
<path transform="translate(641,356)" d="m0 0 5 1 16 13 7 7 8 7 10 10v-2h2l9 11 18 26 3 5v2h2l11 25 4 10-1 2-1-3-3-1-10-14-10-13-3-3v-2l-3-1-5-6v-2l-4-2-14-14-7-8-18-18-8-7-3-4h3l-2-4-2-9z" fill="#E9820A"/>
<path transform="translate(894,408)" d="m0 0h18l12 5 12 9 6 7 2 7-7 1-8-2-12-1-7-2-14 1-16 3-11 4h-7l-2-1 1-5 7-10 4-6 16-8z" fill="#EB830A"/>
<path transform="translate(1248,720)" d="m0 0 3 1 5 5 6 5 10 7 14 14 8 7 12 13 15 16 7 8 14 15 1 6 9 10 27 27 5 4 6 3 1 4-6 1-6-3-52-52-7-8-8-8-7-8-17-17-7-8-11-12-9-11-10-10z" fill="#FEDD33"/>
<path transform="translate(387,303)" d="m0 0h14v2h12l3 3-12 3-25 5-18 5-21 7-8 4-11 4-16 8-6 2v2l-8 4-4 1v2l-10 4-9 7-7 1-2-1-1-5 5-3 10-7 5-5 18-10 4-3 11-4 7-4 7-2 4-2h4v-2l23-8 19-4 7-3z" fill="#FDA00A"/>
<path transform="translate(1662,566)" d="m0 0h286l4 1v2l-20 1-1 3 6 2 9 2 7 3 6 1 18 1 4 6-10-3-23-1-3-1-43-4-16-2-34-1-17-1-9-2-3-2 17-3-178-1z" fill="#EB840A"/>
<path transform="translate(1024,830)" d="m0 0h6l-1 4-16 3-23 3-18 2-41 2h-63l-28-4-12-3v-1l25-3 51 1h76l40-3z" fill="#AE5909"/>
<path transform="translate(349,706)" d="m0 0h11l11 1 3 2-1 4-6 2-13 6-11 3-9 6-4 6-12 11-11 7h-2v2l-7 5-3 4h-2v2l-3 2-6-1-5-3v-2l-6-2-3-5 6-4 15-3 2-4 8-6 6-4 9-3 5-3 11-6 6-2-1-10 7-4z" fill="#FF8F0B"/>
<path transform="translate(419,285)" d="m0 0h36v1l-32 3-3 2-20 3-25 6-16 6-13 5-15 6-17 8-23 11-10 6-8 6-10 7-5 1-10 7-5 4-2-1 8-9 13-10 15-11 14-9 14-8 21-10 8-4 16-5 13-4 15-4 2-1 9-1 8-2z" fill="#E37705"/>
<path transform="translate(1288,457)" d="m0 0h485v1l-65 1-120 1-34 1-9 1h-18l-7-2h-60l-106-1-21 1-14 3h-17l-24-2-20-1h-77v-1l5-1z" fill="#FEDF35"/>
<path transform="translate(1247,743)" d="m0 0 5 1 8 12 3 5-4-2-4-3-4 1-8 8-7 6-7 8-12 13-16 16-2 3-5 2-8 7h-2v2l-9 7h-2v2l-6 5-8 5-9 3-5 4-7 1 5-6 9-7h2v-2l16-12 4-4h2v-2l8-7 13-12 12-12 9-10 11-9 10-8 3-7z" fill="#AF5908"/>
<path transform="translate(575,521)" d="m0 0h7v2l4 1 4 12 3 7-2 10-9 9-1 2v7l5 17v12l-3 10-3 6-4 3-2-1 4-4 3-12v-7l-5-16-3-9v-13l3-8-5-2-5-4v-2l-6-1h-11l-18 4-9 4h-6l-6-3h-7l1-2 13-2 6-2 16-1 10-3 15-3h3l2-4 4-6z" fill="#FFBA13"/>
<path transform="translate(1759,719)" d="m0 0h23l25 2 52 2 3 1-1 4-4 2-9 2h-169l-17-1v-1h49l124-1 5-1-1-1-21-1h-139l-1-6 1 2 3-1 14 1h15z" fill="#E47905"/>
<path transform="translate(263,351)" d="m0 0m-1 1m-1 1m-2 1h2l-2 4-14 12-10 10-1 2h-2v2h-2l-2 4-2 5 7-2 5-4 12-8 2 1-12 12h-2l-2 4-14 14-7 9-8 7-14 12-5 4-3-2-2 1 1-4 4-8h2l2-6 6-9 11-15 2-3h2l2-5 16-17 11-11 2 1v1l8-6 6-4zm-15 7 2 1-2 1z" fill="#E37705"/>
<path transform="translate(289,795)" d="m0 0 10 1 12 4 6 4 3 4 4 2 4-1 4-2 9 1 10 4 16 3 8 6 5 2 17 1 3 1v3l6-2h6l6 5 8 3-3 1-14-2-7-2h-16l-14-6v-2l-3-1-14-1-5-2-21-3-13-4-12-1-9-3-8 2-15 1-7 6-1 3h-3v2h-5l-1-5 2-3 1-5h1l2 7 5-3 7-8 8-4 4-3h2v-2z" fill="#E37705"/>
<path transform="translate(538,738)" d="m0 0 9 1 16 10 10 8 16 12-1 4-3 3-9-1-13-3-9-4-8-4-4-5-11-2-8-3 1-7 11-7z" fill="#FFBA13"/>
<path transform="translate(97,793)" d="m0 0 3 3 13 23 8 12 6 7v2h2l8 11 9 11 13 15 15 15 6 7 8 7 10 9 16 12 14 11 18 11 14 8 19 10 27 11 16 6 25 8 24 6 36 6 8 1 19 1 39 1v1h-42l-28-2-35-6-23-6-29-9-17-5-12-5-20-9-19-11-17-11-12-8-26-20-11-9-3-3v-2l-4-2-5-4-1-4-6-3-1-3-7-6-2-5h-2l-7-9-1-3h-2l-9-11-8-11-12-19-13-23z" fill="#EA830A"/>
<path transform="translate(783,840)" d="m0 0h2l1 7 8-1 2 5-14 15-3 1-1 2-7 4-10 10h-2v2h-2v2h-2l-2 4h-2l-2 4-7 7-7 8-6 7-5 2-3-3v-5l7-7 4-2 2-5 6-5 4-8 7-7 7-8 7-7 9-11 1-2h2l2-4z" fill="#A65007"/>
<path transform="translate(1248,725)" d="m0 0 1 4-9 11-16 17-11 12-7 8-14 15-22 22-7 8-16 16h-2v2l-8 7-14 14-5 4h-6l1-5 9-6 5-4 8-6 4-6 9-10 5-4h2l4-5-2 1 2-4 5-5 3-5 20-20h2l2-4 4-4h2l2-4 30-30 7-8h3l4-5v-2z" fill="#FEDA2F"/>
<path transform="translate(1955,629)" d="m0 0h6l-2 4-35 35-8 7-5 5h-2v2l-10 8-13 12-8 7-4 2v-2l-4-2 2-5 11-8 43-43 13-14 4-5z" fill="#FEC913"/>
<path transform="translate(1616,787)" d="m0 0 7 6 11 12 13 13 7 8 25 25 11 8 4 2-6 1 1 4 11-1-4 3h-10l-12-7-9-8-7-8-10-10-7-6-5-7-8-7-12-13-4-6 4 2 5 4h4l-4-8-5-5z" fill="#FDB611"/>
<path transform="translate(541,559)" d="m0 0h8l6 3 4 6 6 5 4 6-1 9-6 9-7 4-5-2-5-8-8-9-6-12v-6l5-3z" fill="#FFBA13"/>
<path transform="translate(652,978)" d="m0 0h4l-1 4-17 10-19 10-25 11-36 12-29 8-27 4h-30v-2l5-1v-2l34-2 20-4 16-4 11-3h4v-2l15-5 24-9 13-6 9-4 8-3 19-10h2z" fill="#AC5507"/>
<path transform="translate(787,822)" d="m0 0 4 1 1 4-3 5-4 5-8 12h-2l-2 5-16 17-3 4h-2l-2 4-14 14-8 7-10 9-4 4-5 1 2-5 7-8h2l-1-3 4-3 3-5 16-17 13-14 7-8 7-9 6-7 3-5 2-1v-2z" fill="#FDC512"/>
<path transform="translate(370,556)" d="m0 0h9l7 3 8 10 5 10-1 5h-3l-2 4-5 4-3-1v-2l-11 1-12-4-3-6 2-5 3-7 3-9z" fill="#FFBA13"/>
<path transform="translate(322,620)" d="m0 0 8 1 9 3 7 4 6 2v2l14 2 5 1-3 8-3 4-10 2-2 1-9-2-15-7-11-3-7-5 1-7 4-4z" fill="#FECB13"/>
<path transform="translate(1541,723)" d="m0 0 5 3 12 12 7 8 6 7-1 2h-2l1 4 3 4 3 1 7 9 9 10 9 11 8 9 1 3-2 1v-2l-4-2-14-14-6-5v-2l-4-2-6-4v-2h-2v-2l-7-2-3-5-10-14-7-8-1-6-4-2-8 3-8 7-10 10-1-3z" fill="#A75107"/>
<path transform="translate(1489,503)" d="m0 0h10l9 6 10 10 18 22-1 3-10-11-4-5-7-5 2 5 11 16 6 9-1 2-10-8h-2l3 9h-2l-9-15-13-16-5-5v-3l-5-1-8-8 1-2 7-1z" fill="#A65006"/>
<path transform="translate(410,647)" d="m0 0 9 2 6 5 9 19v6l-8 6h-9l-6-5-5-1-1-3h2l-1-9-3-5v-7l3-6z" fill="#FECB13"/>
<path transform="translate(1412,529)" d="m0 0h13l26 1-3 1 1 5 6 2 3 4-2 1-9 1-17 5-10-2-24-2-9-2-1-4 5 1v-2h8v-2h8l10-2-2-3z" fill="#FEBA13"/>
<path transform="translate(304,969)" d="m0 0 12 3 19 7 10 4 12 3 15 4 17 3 27 4 21 2 6 2 4 3-2 1h-12l-25-2-26-4-37-9-8-4-16-5-6-4-12-4z" fill="#FFBA13"/>
<path transform="translate(689,810)" d="m0 0v3l-12 14-18 18-14 11-3 1v2l-13 10-17 11-23 13-26 11-26 9-26 6-25 4-10 1h-35l-31-3-20-3-32-9-14-5 3-1 29 9 15 4 30 4 12 1h43l25-3 12-3 9-2 20-6 25-9 19-8 16-8 17-10 12-8 10-8 14-12 16-15 11-11z" fill="#E57B07"/>
<path transform="translate(144,674)" d="m0 0 2 4 7 25 8 21 8 18 10 19 9 13 4 7 7 9 3 4 4 2 6 8 6 9 5 3 9 12 7 6v2l4 1 2 1v2h2l2 4 2 1v2l4 2 10 9 5 5 10 7 11 7-2 1-17-10-14-10-14-11-12-11-11-11-9-11-11-14-13-19-12-20-9-17-12-28-7-21-4-15z" fill="#E57A06"/>
<path transform="translate(674,736)" d="m0 0 9 2 3 3v2l5 2 6 4 2 4 4 1 1 6-3 4-5 2-3-8-10-7v-2h-5l-5-1h-6l-3 6-3 3h-2v2l-10 10-6 4-11 5-4-2 2-4 13-9 15-15 9-7 4-4z" fill="#FEC613"/>
<path transform="translate(928,418)" d="m0 0 4 1 8 7 2 3 2 7-7 1-8-2-12-1-7-2-14 1-16 3-11 4h-7l-2-1 1-5 7-10 2-1v4l7-3h7l7-1 16 3h11l14 1 2-1-2-4z" fill="#E37705"/>
<path transform="translate(1543,723)" d="m0 0 5 1 7 6 5 5 4 3v2h2v2l3 1 7 8 6 5v2l5 2 12 10 8 7 7 7 6 8 5 7v3l2 1h-6l-7-6-5-3-5-6-5-4-7-8-15-15-7-8-12-13-7-8-8-8z" fill="#FEDC32"/>
<path transform="translate(1773,725)" d="m0 0h52l14 1 2 2-7 2-123 1h-28l-6-1 1-4z" fill="#C36004"/>
<path transform="translate(1890,517)" d="m0 0 5 2 27 18 15 9 19 11 18 13 8 7 6 7 4 12 1 7v13l-2 3-4-22-6-9-11-12-19-13-11-8-19-14-18-13-12-9z" fill="#A95206"/>
<path transform="translate(231,755)" d="m0 0 7 2 6 6 10 4v2l5 2 17 9v4l-7 8-1-2-1-4-5-4-8-4-5-5-12-6-12 1-6 3-4 3h-8l-2-1v-2l-3-1 1-5 4-8 1 2-1 5 11 1 1-5 2-2z" fill="#EA830A"/>
<path transform="translate(1540,714)" d="m0 0h5v2h2v2l4 2 17 14 10 9 18 18 9 11 5 6-1 2-8-8-8-6-9-7-2-1v-2l-4-2-12-12v-2h-2v-2l-4-2-5-5-8-7h-6l-12 12-5 1-19 19v-3l2-3h2l2-4 13-13 5-6 7-6z" fill="#FEBA13"/>
<path transform="translate(948,564)" d="m0 0h161l121 1v1l-31 1-3 2-52-1-150-1-46-2z" fill="#CA6604"/>
<path transform="translate(491,749)" d="m0 0 8 1 4 2v5l-9 10-11 6-10 4-15-4-1-4 2-1-1-2 16-7 7-4 3-3z" fill="#FEB912"/>
<path transform="translate(1274,518)" d="m0 0h218v1l-23 3-8 2-4 2-18 1h-14l-16-2h-2v-2h3v-2l3-1-139-1z" fill="#FEB611"/>
<path transform="translate(1388,622)" d="m0 0h110l21 1 3 2-184 1h-46l3-2 20-1z" fill="#A44F06"/>
<path transform="translate(1537,717)" d="m0 0 2 1-8 9-5 4-7 8-9 9-1 2h-2l-1 4 18-18 4-1-2 4-18 18-7 8-11 12-1 2-5 2-7 6-5 3-16 16h-2l2-4 9-10 7-7 7-8 12-13 8-8 7-8z" fill="#FEDC31"/>
<path transform="translate(1949,561)" d="m0 0 11 7 11 8 5 5-1 2-16-1-8-2-7-3-15-3 3-4 3-1h17v-2l-142-1v-1l138-1z" fill="#FDA10A"/>
<path transform="translate(562,306)" d="m0 0 6 1 3 2 9 3 21 10 9 6v2l5 1 14 9 10 7 3 1 5 5 10 8 5 3 14 15 3 3 3 1 5 7 1 5-7-6-10-10-8-7-9-8-24-18-12-7v-2l-6-2-15-8-4-4-17-9-12-5-2-1z" fill="#CA6604"/>
<path transform="translate(287,722)" d="m0 0h13l5 5-2 4-3 2h-6l-1 2-9-1-9 4-6 6-14 1-5-2v-4l10-6 21-8z" fill="#FF8F0B"/>
<path transform="translate(1931,682)" d="m0 0v3l-4 4-1 3 2 1-12 11-10 9-9 5h-2v2l-9 4-9 3-6 4-3 1v2l-8 7-13 13h-2l2-4 4-2v-2h2l2-4 12-11 12-12 7-8 3-2 1 4 6-2v-2l12-9 14-11z" fill="#AF5A09"/>
<path transform="translate(281,341)" d="m0 0m-1 1m-1 1m-2 1h2l-2 4-3 1-1 3-11 8-3 2v4l9-1 9-7 6-2-4 4-13 9-10 8-2 2-7 3-12 8-4 3-6 1 1-5 4-5h2v-2h2l2-4 13-13 11-9 13-9z" fill="#EA830A"/>
<path transform="translate(289,795)" d="m0 0 10 1 12 4 6 4 3 4 4 2 4-1 4-2 9 1 10 4 16 3 8 6 5 2 17 1 3 1v3l6-2h6l6 5 8 3-3 1-14-2-7-2h-16l-12-5-2-5-5-3-13-2-18-6-8 2-8-1-10-7-4-2-8-2h-7l-7 1v2l-5 3-8 3 2-4 8-4 4-3h2v-2z" fill="#E9820A"/>
<path transform="translate(687,932)" d="m0 0 2 1-13 11-10 7-9 6-23 10-16 8-28 11-21 7-30 8-15 3-28 3h-21v-1l32-3 29-5 26-6 33-11 19-8 29-14 23-13z" fill="#E67C07"/>
<path transform="translate(1539,734)" d="m0 0 4 2 2 4 1 4 7 8 9 13-1 2-10-10-5-3-5 1-5 3-11 1-3-2-1-6 6-11 5-4z" fill="#C46104"/>
<path transform="translate(675,748)" d="m0 0 2 1 1 6 7-1 7 5 1 7 3 2 5-5 2-3-1-6-3-1v-2l5 2 1 2v8l-6 9-2 1-1 3-4 1-2-4-6-4-7-3h-3-11l-6-2 4-5 6-4 5-6z" fill="#EA830A"/>
<path transform="translate(907,378)" d="m0 0h86l4 2-38 1-5 1h-16l-5 1h-40l-5-1-8 1-4-1-47-1-3-2z" fill="#FEDF36"/>
<path transform="translate(1247,743)" d="m0 0 5 1 8 12 3 5-4-2-4-3-4 1-8 8-7 6-7 8-12 13-1-3 1-5 1-7 7-8 14-11 3-7z" fill="#C66505"/>
<path transform="translate(415,769)" d="m0 0 5 2 13 6 15 3 8 1 15-1-1 2-3 1 1 4-3 1-1 3-6 3-9 1-2-2-2-4-5-2-2-2-2 3-4-3-8-2-5-5-6-5v-3z" fill="#FE8F0A"/>
<path transform="translate(1161,627)" d="m0 0 1 3-9 15-18 27-7 11h-2l3-9 3-6h-2l-2 5-5 5 2-6 8-14 9-16 9-10z" fill="#A65006"/>
<path transform="translate(662,390)" d="m0 0 11 1 6 7v2h3v2h2v2l3 1 2 5 4 2 5 3 9 11 1 5h2l3 8v2h2l6 10-1 2-11-13-1-3-3-1-5-6v-2l-4-2-14-14-7-8-13-13z" fill="#E37705"/>
<path transform="translate(1342,811)" d="m0 0 16 16 7 8 23 23 3 2h7l5-2 5-4 8-2-1 4-9 9-8 5h-2v2l-6-1-9-6 2-1 3 1h5l-2-4-6-3-12-11-6-6v-2l-4-2-17-17-3-5z" fill="#FDB712"/>
<path transform="translate(616,792)" d="m0 0 6 2 8 7 4 5 12 5v2l4-1v-13l2 1 3 11-1 3-7 5-6 1-4-3v-2h-3l-3-8-2-3h-16l-9 2-8-1-4 3-2-1 11-9 10-4z" fill="#E47906"/>
<path transform="translate(1288,457)" d="m0 0h72v1l-20 2h-7l-14 3h-17l-24-2-20-1h-77v-1l5-1z" fill="#FEE03C"/>
<path transform="translate(1028,813)" d="m0 0v3l1 5-7 4-4 1-8 1h-194l-25 1 2-3 170-1 36-1 17-2 10-6z" fill="#E98109"/>
<path transform="translate(540,911)" d="m0 0 3 1-11 4h-6v3l-7 2-16 5-5 2-6 1h-36l-13-2v-2l3-1 30-1 24-3 25-5z" fill="#FE8F0A"/>
<path transform="translate(419,285)" d="m0 0h36v1l-40 4-23 4-20 4-10 3-9 3-19 6h-6l2-2h3l1-3 16-5 13-4 15-4 2-1 9-1 8-2z" fill="#C86504"/>
<path transform="translate(1678,628)" d="m0 0h28l-3 2-14 5h-2l-2 10-3 32-1 11-2 5h-1z" fill="#FEBA13"/>
<path transform="translate(54,667)" d="m0 0h2l8 32 6 21 3 8 6 19 7 19 4 10 3 6-1 3-9-17-3-7-3-9-4-10v-2h-3l-9-34-7-34z" fill="#EC890C"/>
<path transform="translate(375,560)" d="m0 0 6 1 6 4 3 4 1 9-3 3-11 2h-7l-2-1 2-20z" fill="#FECC14"/>
<path transform="translate(545,560)" d="m0 0h7l13 13-1 9-3 4-6-1-8-7-7-6 1-8z" fill="#FECB13"/>
<path transform="translate(1838,760)" d="m0 0 1 2-8 7-10 9-11 9-4 3h-2v2l-6 4-10 9-16 8-5 3-12 8-1-2 8-7 9-8 7-3 9-8 7-6h2v-2l11-6 6-1v-2l7-3 7-7 8-7z" fill="#AE5908"/>
<path transform="translate(325,412)" d="m0 0 5 1 3 5 2 7-1 14 2 5v5h-4l-6-5-2-11h2v-5l-8-5-5-9 1-1h7z" fill="#FECC14"/>
<path transform="translate(335,753)" d="m0 0 3 1 1 3-4 5-4 2-7 8 1 5 2 3-10 1-12-6 4-6 9-7 14-8z" fill="#FF8F0B"/>
<path transform="translate(1054,459)" d="m0 0h115v1l-14 1v1l-25 2-56-1-20-2z" fill="#FEDF35"/>
<path transform="translate(530,792)" d="m0 0h9v2l-9 4-32 7-15 5-10-2v-4l4-3 23-3 13-2 11-3z" fill="#FF8F0B"/>
<path transform="translate(365,517)" d="m0 0h7l8 6 5 4 9 2 8 7 2 3-1 4-7-2-5-2-4-8-1-1h-8l-2 1-13-1-5-3 1-7z" fill="#FECC14"/>
<path transform="translate(723,893)" d="m0 0v3l-3 3v2h-2l-2 4-6 7-1 2 3 1-6 5h-2v2l-4 1v2l-6 5-7 3-4 3h-2l1-3h2v-2l-11 6-4 4h-5l5-5 18-12 11-9 12-11 8-7z" fill="#FDB511"/>
<path transform="translate(1032,808)" d="m0 0 6 1 9 8 7 8 10 11v2h-6l-4 3-7-6-7-10v-4h-2v-4l-8-1v-4z" fill="#A65006"/>
<path transform="translate(1902,686)" d="m0 0v3l-6 7-2 5-14 14h-2v2h-2v2h-2l-2 4-13 13-7 8-8 7-6 5h-2v2l-3-1 14-14 5-4 3-5 12-13 9-10 7-8 10-9 8-7z" fill="#A75107"/>
<path transform="translate(510,823)" d="m0 0 5 2h6l2 1v2l8-2 3 1-19 7-1-3h-19l-12 6-6 1-2-1-21-3v-2l-10-1 1-2 10-2h9v6h10l7 2 8-4 6-5h7z" fill="#E37705"/>
<path transform="translate(1535,627)" d="m0 0h120l-1 6-4-2h-55l-16-1-5-1h-39z" fill="#FFBA13"/>
<path transform="translate(232,695)" d="m0 0 6 2 7 11v2l8 4 2 3-1 5-7 4-5-2-4-5v-2l-4-1-1-8 1-4-3-5z" fill="#FF8F0B"/>
<path transform="translate(756,871)" d="m0 0 1 2 3 1-4 6-10 10-2 3h-2l-2 6h-2v3l2 1v-2l2 1-7 8-6 7-5 2-3-3v-5l7-7 4-2 2-5 6-5 4-8 7-7z" fill="#AF5908"/>
<path transform="translate(205,761)" d="m0 0 2 4v2h13l10-4 9 1 17 9 6 4 9 3 2 4-1 4-4 4v-5l-6-5-8-4-5-5-12-6-12 1-6 3-4 3h-8l-2-1v-2l-3-1 1-5z" fill="#E37705"/>
<path transform="translate(1955,631)" d="m0 0h4l-2 4-33 33-8 7-7 6-4 1v-2h2v-2h2l2-4 17-17 4-6 9-9h2v-2l5-4h2v-2z" fill="#FED92F"/>
<path transform="translate(416,400)" d="m0 0h34v1l-14 1h-12l-8 1-3 2 1 4 1 3-2 3-14 3-5 4h-7l-6 4-10 1-7-3-2-4v-5h-5v-1h6l5 5 6 4h7l4-1v-2h3v-2h3v-2l14-6 4-2 1-4 3-3z" fill="#F9960A"/>
<path transform="translate(1031,806)" d="m0 0 2 2-3 5-10 7-15 2h-5l-1-2 1-2h-11l-3-3 21-3 17-3z" fill="#FEB912"/>
<path transform="translate(681,931)" d="m0 0h3v2l-2 1-2 4-16 10-18 10-17 9h-7l3-3 10-6 9-5 17-10 3-2h5l2-4z" fill="#FEC011"/>
<path transform="translate(787,822)" d="m0 0 4 1 1 4-3 5-2 2v-5l-5 1-6 10-2 5-13 15-10 10-1 3-4-1-12 12v-3l13-13 7-8 9-10 6-8 6-7 3-5 2-1v-2z" fill="#FEBA13"/>
<path transform="translate(546,706)" d="m0 0h6 1 8l10 6 3 2 1 5h-4l-1 2-6 1-9-3-6-3-3-3v-4l-2-2z" fill="#FE8E0A"/>
<path transform="translate(456,718)" d="m0 0 5 3 6 7-1 5-3 4-5 1h-12l-2-1 1-7 5-5h2l2-5z" fill="#FF8F0B"/>
<path transform="translate(525,410)" d="m0 0h9l12 4 12 3 9 3-2 6-3 8-1 4-3 1-2-1-4-13-8-7v-2l-9-1-4-2v-2h-6z" fill="#FEB611"/>
<path transform="translate(1485,779)" d="m0 0 3 1-14 15-7 8-8 8-7 8-3 1-1-11 6-5v2l16-14 5-5 6-4z" fill="#FDC513"/>
<path transform="translate(496,581)" d="m0 0 7 6 1 4-2 2v6l4 7 4 2h5v4l-9-1-5-2v-2h-2l-1 4-4-10-4-5 1-7z" fill="#FEA40A"/>
<path transform="translate(303,320)" d="m0 0 4 1-3 1v2l-9 5-10 8-17 11-11 9-9 6-5 4-2-1 8-9 13-10 15-11 14-9z" fill="#C86404"/>
<path transform="translate(1857,729)" d="m0 0v3l-2 1-38 2h-10l-2-1v2l-19 2h-14v-2l-2-1 2-2v-1l76-1z" fill="#FE8F0A"/>
<path transform="translate(664,939)" d="m0 0m-1 1v3l-10 6-9 5-16 9-5 3 4 2-9 4-9 3-5 2-3-1 3-2-3-2 4-3 18-8 22-11 12-7z" fill="#FEB812"/>
<path transform="translate(287,777)" d="m0 0h6l-1 4-5 2-4 9-9 6-5 10-5 4-1 2h-2l1-7 3-7 3-2 4-8 7-6 7-5z" fill="#FFBA13"/>
<path transform="translate(612,750)" d="m0 0 7 1 1 4 18 1 5 2-1 4-9 6-6 2-5-6-4-3v-5l-6-5z" fill="#FD8E0B"/>
<path transform="translate(624,989)" d="m0 0 2 2-3 3-9 4-13 6-18 7-21 7-4-1 5-3 15-6 7-3 6-2 11-5 21-8z" fill="#E37705"/>
<path transform="translate(1675,628)" d="m0 0h2v15l-1 11h-1l-1-9-1-4h-2l-2-2-1 2-7 1-4-2-1-10 6-1h9z" fill="#A44F06"/>
<path transform="translate(666,759)" d="m0 0h14v2h4v2l3 1v2l6 2 4 1 7-6-2 4-3 5-2 1-1 3-4 1-2-4-6-4-7-3h-3-11l-6-2 1-2z" fill="#E37705"/>
<path transform="translate(665,747)" d="m0 0 2 1-3 6-3 3h-2v2l-10 10-6 4-11 5-4-2 2-4 13-9 5-4 1 2 6-5 5-1 1-5z" fill="#FFBA13"/>
<path transform="translate(235,738)" d="m0 0 5 1 1 4-2 2-9 3-3 3-6 3h-2l-2 6-2 3h-6l1-6 9-10 3-3 9-5z" fill="#FEB812"/>
<path transform="translate(374,786)" d="m0 0 7 1 10 2 4 5v2l6 2-2 2h-11l-9-2-5-4-6-3v-2z" fill="#FF8F0B"/>
<path transform="translate(608,526)" d="m0 0 5 3 7 10 8 11 5 6 11 1-4 4-4 1-1 3-4-2-9-11-7-10-7-12z" fill="#FDA20A"/>
<path transform="translate(674,736)" d="m0 0 9 2 2 2-1 5h-3l-4 1-6 2h-6l-4 5-3 3-6 3-3 3-2-1 3-5 8-8 9-7 4-4z" fill="#FEC813"/>
<path transform="translate(1342,811)" d="m0 0 16 16 7 8 23 23-1 2-5-3-10-9-7-7v-2l-4-2-17-17-3-5z" fill="#FEC813"/>
<path transform="translate(144,674)" d="m0 0 2 4 7 25 8 21 8 18 10 19 9 13 4 7 3 4 3 9-4-4-10-15-14-25-13-29-6-16-7-25z" fill="#E77E08"/>
<path transform="translate(545,674)" d="m0 0 54 1 28 1 28 2 5 1v1h-18l-37-2h-54l-8-2z" fill="#EB840B"/>
<path transform="translate(1924,671)" d="m0 0h2l-1 4h-2l-2 4-8 7-5 5-3 1-2 4-3 1v2l-4 2-1-5 12-14h2v-2l8-7h4zm-30 29m-1 1m-1 1m-1 1m-1 1m-1 1m-1 1m-1 1m-1 1m-1 1m-1 1m-1 1m-1 1m-1 1m-1 1m-2 1 2 1-2 1z" fill="#A75106"/>
<path transform="translate(768,627)" d="m0 0h15l-3 2-5 4-5 15-4 10-3 13-3 1 2-12 5-27z" fill="#FDC713"/>
<path transform="translate(783,840)" d="m0 0h2l1 7 8-1 2 5-5 4-2-1-6 4-2 2-4 1-4 2v-3l3-3 2-8v-3zm-8 9 2 1-2 1z" fill="#AF5908"/>
<path transform="translate(613,972)" d="m0 0 3 1-16 7-25 9-25 7-36 7-10 1 3-3 28-5 24-5 29-9z" fill="#FEA10A"/>
<path transform="translate(1803,460)" d="m0 0 6 2 11 6 22 15 15 10-1 2-5-2-8-4-9-5v-2l-4-2-9-5-13-11-5-3z" fill="#FEDE34"/>
<path transform="translate(1988,602)" d="m0 0h1l3 17-2 13h-3l-9 9-2-1 4-5h2l2-10-1-4-2-5 2-1 3-10z" fill="#AF5A09"/>
<path transform="translate(403,799)" d="m0 0h15l5 2 10-1 2 2v3l-7 3h-16l-5-3-4-5z" fill="#FF8F0B"/>
<path transform="translate(1557,572)" d="m0 0h47l6 1-3 2-13 2-36-1z" fill="#EB840A"/>
<path transform="translate(631,350)" d="m0 0 5 2 9 8 2 4 2 10 1 2-7-2v-2l-4-2h2l-1-4h-2l-7-8-1-5z" fill="#FE8E0A"/>
<path transform="translate(689,810)" d="m0 0v3l-12 14-18 18-14 11-3 1v2l-13 10-8 5v-3l11-8 9-7 14-12 16-15 11-11z" fill="#E67C07"/>
<path transform="translate(1352,509)" d="m0 0 7 1v3l-3 1 1 3h-39v-1l13-2 2-1v-2l7-1z" fill="#A44F07"/>
<path transform="translate(1907,544)" d="m0 0 4 1v3l4 2 4 10 5 5h-15l-2-2v-7l-1-5h2l-2-3z" fill="#FFBA13"/>
<path transform="translate(767,881)" d="m0 0 2 1-13 15-9 10-10 10v-3l4-7h2l-1-3h2l1-4h2l2-4 4-4h2l2-4h2v-2z" fill="#E57D07"/>
<path transform="translate(1544,720)" d="m0 0 6 2 8 8 4 3v2l4 2 7 6 4 5 9 9 8 7 4 5-4-2-10-8-2-1v-2l-4-2-12-12v-2h-2v-2l-4-2-5-5-8-7h-5v-3z" fill="#FECC14"/>
<path transform="translate(1714,849)" d="m0 0h5l-1 4-4 1v2l-12 7h-2v2l-9 2-3-3v-2l12-5z" fill="#FEDE33"/>
<path transform="translate(289,795)" d="m0 0 10 1 12 4 6 4 3 4 4 2 6-1v2l-7 1-6-3-9-6-10-3h-7l-7 1v2l-5 3-8 3 2-4 8-4 4-3h2v-2z" fill="#EB840B"/>
<path transform="translate(669,615)" d="m0 0 4 5 10 19 7 20 3 21 5 6-4 1-7-3 2-6v-10l-3-12-5-15-7-14v-2h-2l-3-6z" fill="#E88009"/>
<path transform="translate(1949,561)" d="m0 0 7 5-3 1-143-1v-1l138-1z" fill="#FEA40A"/>
<path transform="translate(307,400)" d="m0 0 11 1 7 3v2l6 2 4 3 5 3 3 3 6 2 2 1-1 2h-8l-8-7-4-3v-2l-6-1-9-2-3-4v-2h-5z" fill="#FE9D0A"/>
<path transform="translate(555,723)" d="m0 0h7l7 5 4 5 1 4h-2v2l-5-1-11-9-4-2 1-3z" fill="#FFBA13"/>
<path transform="translate(680,689)" d="m0 0 5 2 3 8 9 5-4 6h-3l-1 4-2-10-4-2-5-3v-5z" fill="#FF8F0B"/>
<path transform="translate(455,827)" d="m0 0h9v6h10l7 2 8-4 3-1-1 3-8 4-6 1-2-1-21-3v-2l-10-1 1-2z" fill="#E37805"/>
<path transform="translate(1927,546)" d="m0 0 5 2 13 10 4 3-1 4h-11l-3-3-2-8-5-7z" fill="#FEDD32"/>
<path transform="translate(687,932)" d="m0 0 2 1-13 11-10 7-9 6-14 6-2-1 6-4 3-3 21-12z" fill="#E57A06"/>
<path transform="translate(207,702)" d="m0 0 5 2 7 2 2 9 8 13 4 6-2 4-6 4-2-1 5-8-6-11-1-4-4-2v-2h-2l-8-10z" fill="#E57A06"/>
<path transform="translate(430,401)" d="m0 0h21l11 4 4 4-11-1-5 1-11-3-3-2-6-2z" fill="#FEB411"/>
<path transform="translate(1732,835)" d="m0 0h4l-1 4-9 8-6 5-2-1 1-2h-5l4-5 7-6z" fill="#FEC813"/>
<path transform="translate(1877,714)" d="m0 0 2 1-1 2h-2v2h-2l-2 4-13 13-7 8-8 7-6 5h-2v2l-3-1 14-14 8-7 14-13 1-2h2l2-4z" fill="#AE5908"/>
<path transform="translate(449,691)" d="m0 0 7 4 8 1 3 5-2 4-3-1v-2l-9 2-5-7z" fill="#FF8F0B"/>
<path transform="translate(1921,656)" d="m0 0 2 1-25 25-6 7-8 7-9 10-1 3-4-2 2-5 11-8 5-5z" fill="#FEBD13"/>
<path transform="translate(1164,809)" d="m0 0v3l-6 7h3l-7 7h-3l-9 9-4 5-3 5-8 6-2-1 9-9 1-3 8-7 12-13z" fill="#FEC715"/>
<path transform="translate(1661,716)" d="m0 0 2 3 1 3 6 2 6-1v2h2l1 3-2 1h-18l-1-5v-5l2-1z" fill="#AE5909"/>
<path transform="translate(332,687)" d="m0 0 10 2v-1l9 1 1 4-3 1h-8l-1 3h-6l-2-1-1-8z" fill="#FFBA13"/>
<path transform="translate(779,866)" d="m0 0h2l-2 4-9 11-9 5h-2v2l-8 7-4 5-3-1 7-8 4-4h2v-2h2v-2l9-7 7-7h3z" fill="#C46506"/>
<path transform="translate(1672,695)" d="m0 0 2 2v3h2l1 17-6 2-2-6 1-17z" fill="#AE5909"/>
<path transform="translate(1247,719)" d="m0 0 6 1 7 5v2h2v2l4 2 4 5-5-2-8-6-6-5-2-2 2 7h-2l-1-2-4 5-6 7-1-3 3-3 4-8z" fill="#FEBE13"/>
<path transform="translate(648,734)" d="m0 0h7l6 4-1 6-5 1-7-3-2-5z" fill="#FF8F0B"/>
<path transform="translate(742,886)" d="m0 0v3l-3 5-5 5-3 5h-3l-1 2v2l-8 5-2-4 15-14z" fill="#C76404"/>
<path transform="translate(1794,781)" d="m0 0 5 1-2 4-10 9-11 9-3 1 2-6 4-3h2l1-3h2v-2h3l1-3h2l1-5z" fill="#FCC412"/>
<path transform="translate(1616,787)" d="m0 0 7 6 7 8 4 10-1 3-6-2-6-9 4-1-4-8-5-5z" fill="#FEC913"/>
<path transform="translate(537,739)" d="m0 0 9 1 1 2-3 8-8-1-3-1-1-3 3-5z" fill="#FECB13"/>
<path transform="translate(1414,852)" d="m0 0h2l-1 4-9 9-4 3h-3v-7l9-7z" fill="#FECA13"/>
<path transform="translate(1243,501)" d="m0 0h16v1h-9l-1 7 3 5-3 2h-5l-2-4v-10z" fill="#A54F06"/>
<path transform="translate(473,826)" d="m0 0 13 1 1 2-1 2 3 1-8 4-10-3v-6z" fill="#FF8F0B"/>
<path transform="translate(351,678)" d="m0 0h7l3 6-2 5-6-1-7-4 1-4z" fill="#FF8F0B"/>
<path transform="translate(273,789)" d="m0 0 2 1-1 2-1 5-1 2-2 8-6 5-1 2h-2l1-7 3-7 3-2 4-8z" fill="#FEBA13"/>
<path transform="translate(758,675)" d="m0 0 1 4-1 2h17l-4 1-2 4-15 5 2-10z" fill="#FC8D0A"/>
<path transform="translate(676,501)" d="m0 0h1l-1 8-4 10-8 15h-3l2-9 5-9 6-9z" fill="#FED92F"/>
<path transform="translate(1543,742)" d="m0 0 7 6 12 17-1 2-10-10-7-4-1-3z" fill="#EC880C"/>
<path transform="translate(652,803)" d="m0 0 2 4 1 4-1 3-7 5-6 1-4-3v-2h-3l-2-8 11 7 8-1z" fill="#E27604"/>
<path transform="translate(328,588)" d="m0 0h6l3 2-1 8-4 3-6-2 1-9z" fill="#FFBA13"/>
<path transform="translate(1955,629)" d="m0 0h6l-1 3-7 1-9 5-9 6-7 8-2 1 2-4 11-12 4-5z" fill="#FEBB13"/>
<path transform="translate(617,413)" d="m0 0h4v4l3 1-1 4-6 3h-5v-2h-2l1-4 4-5z" fill="#FE900A"/>
<path transform="translate(416,193)" d="m0 0h10v1l-26 4-7 2h-16v-2l28-4z" fill="#FEE03C"/>
<path transform="translate(1157,638)" d="m0 0 1 4-6 12h-2l-1 4-8 8-2-1 14-22z" fill="#FDC512"/>
<path transform="translate(1724,847)" d="m0 0 2 1-8 9-14 9-7 3h-9v-1l12-2v-3l12-7h2v-2l8-5z" fill="#F1920A"/>
<path transform="translate(564,748)" d="m0 0 5 2 6 5 11 6 9 5 11 4v3l-5-2-8-2-4-3-10-5-14-11z" fill="#F78A0B"/>
<path transform="translate(281,755)" d="m0 0 7 1 1 5-4 4-8-2-3-3 1-3z" fill="#EB840B"/>
<path transform="translate(763,559)" d="m0 0 9 3-2 6-1 6-2 2-1 5h-2l-1-11z" fill="#FA9E0A"/>
<path transform="translate(575,807)" d="m0 0 5 1 7 2v1h-7l-5-1-9 4-14 5-8 2-6 4-2-1 10-7 13-4 7-2 4-3z" fill="#E87F08"/>
<path transform="translate(600,973)" d="m0 0h5l-2 3h-2v2l-19 7h-5l2-4 17-6z" fill="#FEC813"/>
<path transform="translate(764,557)" d="m0 0h20l14 3v1h-32l-2-1z" fill="#FEDF35"/>
<path transform="translate(88,744)" d="m0 0 2 2 4 12 3 13v4h-2v2l-3-1-3-7 3-1-3-16z" fill="#FECC14"/>
<path transform="translate(1658,629)" d="m0 0 9 1v1h-5l1 4 6 3-1 3-7 1-4-2-1-10z" fill="#B05908"/>
<path transform="translate(1856,494)" d="m0 0 5 2 19 13 2 5-9-5-11-7-6-5z" fill="#F8CA28"/>
<path transform="translate(667,712)" d="m0 0 7 2 2 4-3 6-5 1-2-2-1-10z" fill="#FF8F0B"/>
<path transform="translate(626,609)" d="m0 0h7l3 7-1 5-7-2-3-4z" fill="#FFBA13"/>
<path transform="translate(261,559)" d="m0 0 5 2 8 3-2 5-8 15-4 3 2-5 4-7 1-5-3-1 2-4-1-3-4-2z" fill="#E57B07"/>
<path transform="translate(1028,813)" d="m0 0v3l1 5-7 4-4 1-8 1h-30v-1l25-1 16-3 2-1 1-5z" fill="#E27605"/>
<path transform="translate(685,741)" d="m0 0 1 2 5 2 2 2h-4l2 5-2 3-6-4v-2h-5l-3-3 3-2 5 1z" fill="#FEB712"/>
<path transform="translate(545,674)" d="m0 0 38 1 1 2-33 1-8-2z" fill="#EA830A"/>
<path transform="translate(223,648)" d="m0 0 1 3-2 6-1 12v13h-2l-1 3-7 3-5 4 2-4 8-7 2-4 1-17z" fill="#E77D08"/>
<path transform="translate(451,401)" d="m0 0 9 1 11 2 5 2h1v5h-6l-8-4-9-4z" fill="#E47805"/>
<path transform="translate(648,355)" d="m0 0 4 2 5 4 5 3 14 15 3 3 3 1 5 7-1 2-27-27-6-4z" fill="#EE8A0A"/>
<path transform="translate(406,826)" d="m0 0h6l6 5 8 3-3 1-14-2-6-2v-2h2z" fill="#E57A06"/>
<path transform="translate(700,688)" d="m0 0 4 1v6l-5 7-5-1 1-8z" fill="#FDC312"/>
<path transform="translate(1924,671)" d="m0 0h2l-1 4h-2l-2 4-8 7-5 5-3 1-2 4h-3l8-10h2l2-4 6-7z" fill="#AE5908"/>
<path transform="translate(541,770)" d="m0 0 3 1 1 5-2 2-12 1v-2l-3-1 2-2z" fill="#FFBA13"/>
<path transform="translate(525,410)" d="m0 0h9l12 4 12 3 9 3v2h-6l-5-3-5-2-16-2-4-2v-2h-6z" fill="#E77D07"/>
<path transform="translate(689,810)" d="m0 0v3l-12 14-18 18-2-1 14-15 11-11z" fill="#E77F08"/>
<path transform="translate(399,748)" d="m0 0 8 1v6l1 6-4 1-6-10z" fill="#FF8F0B"/>
<path transform="translate(510,823)" d="m0 0 5 2h6l2 1v2l8-2 3 1-5 2h-9l-13-2-9 2-6 1 3-4h7z" fill="#EB840B"/>
<path transform="translate(722,443)" d="m0 0h2l10 23 2 7-2-1v-2l-3-1-4-5 1-4-6-14z" fill="#E47A06"/>
<path transform="translate(928,679)" d="m0 0 15 2v1h-43l-2-2z" fill="#FFBA13"/>
<path transform="translate(669,414)" d="m0 0 6 2 2 2 2 5v10h-2l-4-10-4-6z" fill="#A85106"/>
<path transform="translate(1532,725)" d="m0 0v3l-7 7-7 8-13 13v-3l2-3h2l2-4 13-13 5-6z" fill="#FEAC0C"/>
<path transform="translate(1902,686)" d="m0 0v3l-7 7-7 6-7 8-7 5 2-4 7-8 10-9 8-7z" fill="#BE6006"/>
<path transform="translate(652,978)" d="m0 0h4l-1 4-13 8-5-2 3-3 10-5h2z" fill="#B35D08"/>
<path transform="translate(681,931)" d="m0 0h3v2l-2 1-2 4-6 4-7 2-4 1 4-4h2l2-4z" fill="#FEC818"/>
<path transform="translate(266,356)" d="m0 0 2 1-2 3 4 1 4-1-5 5-5 2-5-1-1-5 5-3z" fill="#FF8F0B"/>
<path transform="translate(481,760)" d="m0 0h9v4l-4 4h-5l-2-3 1-4z" fill="#FECC14"/>
<path transform="translate(1899,682)" d="m0 0 2 1-5 5-12 11-8 8v-3l7-8 7-7 7-6z" fill="#FEDF35"/>
<path transform="translate(276,398)" d="m0 0h27l4 2h-29l-11 3-10 4h-3l9-6z" fill="#E77D07"/>
<path transform="translate(1111,860)" d="m0 0 2 1-1 4h5l-4 3-2 1h-6l-4-5 6-3z" fill="#FCC313"/>
<path transform="translate(1893,696)" d="m0 0h3l-2 5-14 14-2-2 12-14z" fill="#AE5909"/>
<path transform="translate(840,466)" d="m0 0h1l1 18 1 9h-2l-3-8v-15z" fill="#FEDB30"/>
<path transform="translate(1944,576)" d="m0 0 9 1 1 1 11 1 6 1 2-2 3 3-1 2-16-1-8-2-7-3z" fill="#FF8F0B"/>
<path transform="translate(103,821)" d="m0 0 3 1 13 24h-3l-9-15-4-7z" fill="#AF5A08"/>
<path transform="translate(753,691)" d="m0 0h2l-1 10-3 11 4 1h-6l-2-4z" fill="#F08308"/>
<path transform="translate(669,615)" d="m0 0 4 5 10 19 3 8v6l-2-3-4-11-6-12v-2h-2l-3-6z" fill="#EB8008"/>
<path transform="translate(1734,827)" d="m0 0m-1 1m-1 1m-1 1m-1 1m-1 1m-1 1m-1 1m-1 1m-1 1m-1 1v3l-9 8-3 3-7 4-2-1 13-11z" fill="#FFBA13"/>
<path transform="translate(594,503)" d="m0 0h1l3 10 2 5h-6l-1-3-2-1v-6z" fill="#FFBA13"/>
<path transform="translate(650,799)" d="m0 0 2 1 1 9-2 5-8 1-11-8 1-2 9 4 4 2v2l4-1z" fill="#EA830A"/>
<path transform="translate(564,627)" d="m0 0 2 1-6 9-10-1-4-3 9-1 7-2v-2z" fill="#FFBA13"/>
<path transform="translate(1877,714)" d="m0 0 2 1-1 2h-2v2h-2l-2 4-14 14-6 5-2-1 10-10 8-7 2-3h2l2-4z" fill="#C46104"/>
<path transform="translate(619,339)" d="m0 0 14 8 10 8-3 1-21-14z" fill="#E57A06"/>
<path transform="translate(490,830)" d="m0 0h2l-1 3-8 4-6 1-2-1-9-1-2-3h10l7 2 8-4z" fill="#E87F08"/>
<path transform="translate(787,822)" d="m0 0 4 1 1 4-3 5-2 2v-5l-5 1h-4l2-1v-2z" fill="#FEB611"/>
<path transform="translate(1798,784)" d="m0 0m-1 1m-1 1m-2 1h2v3l-11 9-10 8-3-1 11-9z" fill="#A95306"/>
<path transform="translate(1133,840)" d="m0 0 2 1-9 9-6 7-5 3h-2l2-4 8-7z" fill="#FEBD13"/>
<path transform="translate(262,800)" d="m0 0 1 3-1 6-1 5h2l2-4 6-4-1 4-8 7-3-3 1-9z" fill="#FE9F0A"/>
<path transform="translate(511,765)" d="m0 0h5l4 4-1 3h-10l-1-3 1-3z" fill="#FFBA13"/>
<path transform="translate(645,684)" d="m0 0h6l3 3-3 3-13-1-1-3 7 1z" fill="#FEB712"/>
<path transform="translate(645,581)" d="m0 0 2 1v3h2l4 6 7 9 2 4-8-6-7-9-2-4z" fill="#F18A09"/>
<path transform="translate(404,1034)" d="m0 0h21l3 1v2h-19l-5-2z" fill="#AA5306"/>
<path transform="translate(702,754)" d="m0 0 2 2-1 6-6 4-2-2 1-4 1 1 1-2h-2l1-3 5 1z" fill="#FEB511"/>
<path transform="translate(213,702)" d="m0 0 10 2 1 5-2 4 1 6-3-4-1-4v-5l-7-2z" fill="#FF8F0B"/>
<path transform="translate(1038,816)" d="m0 0 5 1 5 6v3l-5-2-2-1-1 2v-4h-2z" fill="#AE5908"/>
<path transform="translate(334,561)" d="m0 0h5l1 2-2 6-4 2-3-7z" fill="#FFBA13"/>
<path transform="translate(1679,857)" d="m0 0 4 1 11 2-4 2h-2l1 4-10-5z" fill="#FECB13"/>
<path transform="translate(1134,849)" d="m0 0 2 1-9 9-3 5-3 3h-5l5-6 8-7z" fill="#B85E07"/>
<path transform="translate(555,742)" d="m0 0 5 1 6 4v3l9 7h-3l-15-11z" fill="#FC960A"/>
<path transform="translate(1536,724)" d="m0 0h3l-2 4-8 8h-5l6-7z" fill="#FEC913"/>
<path transform="translate(1537,717)" d="m0 0 2 1-8 9-5 4-2-1z" fill="#FEDF35"/>
<path transform="translate(555,786)" d="m0 0h7l-2 4-12 1-3 1-2-2 8-3z" fill="#FF8F0B"/>
<path transform="translate(207,702)" d="m0 0 5 2 7 2 2 11-4-4-4-5-6-4z" fill="#EA830A"/>
<path transform="translate(1139,835)" d="m0 0h2l-2 4-4 6-8 6-2-1 9-9 1-3z" fill="#FEC913"/>
<path transform="translate(1251,745)" d="m0 0h2l7 11 3 5-4-2-7-4v-6z" fill="#F49F14"/>
<path transform="translate(546,677)" d="m0 0 16 1-2 6-6-1-4-4z" fill="#FF8F0B"/>
<path transform="translate(348,559)" d="m0 0h6l2 4-1 3h-6l-2-2z" fill="#FF8F0B"/>
<path transform="translate(647,548)" d="m0 0 3 1-4 5v3h-9l5-5z" fill="#FEB410"/>
<path transform="translate(410,404)" d="m0 0h1v6l-2 3-13 3-3-1 12-5 4-2z" fill="#E87E08"/>
<path transform="translate(768,562)" d="m0 0 4 1-2 5-1 6-2 2-1 5h-2v-10h3v-7z" fill="#FC8D0B"/>
<path transform="translate(362,416)" d="m0 0 4 2 4 5v2h11v1l-10 1-7-3-2-4z" fill="#FE9F0A"/>
<path transform="translate(1568,753)" d="m0 0 5 2 4 4-1 2h-4v3l-5-6z" fill="#B55D09"/>
<path transform="translate(1405,859)" d="m0 0 4 1-2 4-5 4h-3l1-5z" fill="#FED82F"/>
<path transform="translate(392,821)" d="m0 0 8 1 6 4-1 2h-5v-3h-11l3-3z" fill="#FF8F0B"/>
<path transform="translate(1502,763)" d="m0 0 2 1v2h-2l-1 7-5 1-3-1z" fill="#C86404"/>
<path transform="translate(477,406)" d="m0 0h1l2 9-4 1-6-3-4-4 11 2z" fill="#FEA00A"/>
<path transform="translate(307,400)" d="m0 0 11 1 7 3v2l6 2-3 1-12-5-9-3z" fill="#E47A06"/>
<path transform="translate(1247,505)" d="m0 0h2l1 6 2 3-1 1h-5l-2-2 1-6z" fill="#AE5908"/>
<path transform="translate(266,863)" d="m0 0 5 1 17 11 3 3-6-2-19-12z" fill="#E57B07"/>
<path transform="translate(637,557)" d="m0 0h7l-4 4-4 1-1 3-3-3 1-4z" fill="#EA8008"/>
<path transform="translate(1551,752)" d="m0 0h2l9 13-1 2-10-10z" fill="#FBB616"/>
<path transform="translate(674,727)" d="m0 0 7 1-2 8 3 1-2 1-3-1 1-5-5-1v-3z" fill="#F88A0A"/>
<path transform="translate(1246,722)" d="m0 0 2 4-4 5-6 7-1-3 3-3 4-8z" fill="#FEC818"/>
<path transform="translate(331,409)" d="m0 0 8 4 4 4 6 2 2 1-1 1h-7l-7-7-5-3z" fill="#E67D07"/>
<path transform="translate(690,703)" d="m0 0 7 1-4 6h-3l-1 4v-10z" fill="#E9820A"/>
<path transform="translate(173,751)" d="m0 0 2 3 8 13-1 4-9-15z" fill="#E67D07"/>
<path transform="translate(1896,524)" d="m0 0 4 1 15 11v2l-4-2-15-11z" fill="#FDD228"/>
<path transform="translate(664,939)" d="m0 0m-1 1v3l-10 6-6 3-2-1 5-4z" fill="#FFBA13"/>
<path transform="translate(1517,740)" d="m0 0 2 2-14 14v-3l2-3h2l2-4z" fill="#FFBA13"/>
<path transform="translate(1871,710)" d="m0 0 1 4-1 4-3 3h-2l1-6-1-3z" fill="#FC8C0A"/>
<path transform="translate(525,418)" d="m0 0h2v10l-7-2v-2l4-4z" fill="#F49109"/>
<path transform="translate(357,414)" d="m0 0h6l5 5 6 4 7 1v1h-11l-6-8-7-2z" fill="#E67C07"/>
<path transform="translate(462,405)" d="m0 0 9 1 2 1v2l4-1v3h-6l-8-4z" fill="#EB840B"/>
<path transform="translate(1247,719)" d="m0 0 6 1 4 5-1 2-5-4-2-2 2 7h-2v-3l-3-1z" fill="#FEC313"/>
<path transform="translate(1391,862)" d="m0 0 3 3v6l-2-3h-6l-5-3 2-1 3 1h5z" fill="#FCC613"/>
<path transform="translate(209,705)" d="m0 0 6 4 5 7 3 3-1 3-1-4-4-2v-2h-2l-6-7z" fill="#E37705"/>
<path transform="translate(698,689)" d="m0 0 1 4-1 6 2 2-5 1-1-3 2-7z" fill="#FEB812"/>
<path transform="translate(371,617)" d="m0 0h5l1 4-3 2-4-1-1-3z" fill="#FF8F0B"/>
<path transform="translate(1357,527)" d="m0 0 15 1-2 2h-16v-2z" fill="#FFBA13"/>
<path transform="translate(519,825)" d="m0 0 4 1v2l8-2 3 1-5 2h-9l-4-1v-2z" fill="#E9820A"/>
<path transform="translate(753,691)" d="m0 0h2l-1 10-2 4h-3l3-11z" fill="#F58809"/>
<path transform="translate(273,563)" d="m0 0 3 1-2 6-6 9-1-2 4-8 2-5z" fill="#FF8F0B"/>
<path transform="translate(379,303)" d="m0 0m-2 1 2 1-4 3-16 3 1-2z" fill="#FF8F0B"/>
<path transform="translate(510,822)" d="m0 0h11l2 4h-8l-5-3z" fill="#FE900A"/>
<path transform="translate(290,339)" d="m0 0 3 1-9 6-7 2 4-4 6-3z" fill="#FF8F0B"/>
<path transform="translate(273,789)" d="m0 0 2 1-1 2-1 5-3 4-1-6z" fill="#FEC913"/>
<path transform="translate(1239,755)" d="m0 0 1 3-13 11-2-1z" fill="#AE5909"/>
<path transform="translate(455,827)" d="m0 0h9v6l-2-1v-2l-10-1z" fill="#EB840B"/>
<path transform="translate(413,402)" d="m0 0 3 1-3 2 1 4 1 3-2 3-3-1 1-2v-8z" fill="#FEA20A"/>
<path transform="translate(1949,561)" d="m0 0 7 5-3 1-12-1 4-2h3z" fill="#FEC312"/>
<path transform="translate(1724,847)" d="m0 0 2 1-8 9-4 3-2-1 6-7z" fill="#E47906"/>
<path transform="translate(575,807)" d="m0 0 5 1 7 2v1h-7l-5-1h-5l1-2z" fill="#E98009"/>
<path transform="translate(503,777)" d="m0 0 4 1 2 4h-8z" fill="#FFBA13"/>
<path transform="translate(1538,548)" d="m0 0h3l8 11-1 3-10-13z" fill="#AD5406"/>
<path transform="translate(1718,841)" d="m0 0m-1 1m-1 1m-1 1m-1 1m-1 1m-1 1m-2 1 4 2-9 5-2-1z" fill="#FEBE13"/>
<path transform="translate(80,711)" d="m0 0 2 3 1 9 1 7-2-3-3-11z" fill="#FECA13"/>
<path transform="translate(540,659)" d="m0 0 1 3-6 5-6 1 1-2 5-3z" fill="#FFBA13"/>
<path transform="translate(1890,517)" d="m0 0 5 2 9 6-1 3-12-9z" fill="#B65A06"/>
<path transform="translate(480,414)" d="m0 0 2 1-1 4-4 1-4-5z" fill="#FFBA13"/>
<path transform="translate(525,410)" d="m0 0h7l9 4 3 2-9-1-4-2v-2h-6z" fill="#FC9A0A"/>
<path transform="translate(1705,862)" d="m0 0 2 1-3 3-7 3h-9v-1l10-2z" fill="#E77D08"/>
<path transform="translate(454,767)" d="m0 0 4 1-7 4-5-2 2-2z" fill="#FFBA13"/>
<path transform="translate(691,670)" d="m0 0h1l1 10 3 3-1 2-5-1z" fill="#E37705"/>
<path transform="translate(486,1031)" d="m0 0 4 2-11 2h-5l3-1v-2z" fill="#AE5909"/>
<path transform="translate(1678,628)" d="m0 0h7l-4 4-2 8h-1z" fill="#FECC14"/>
<path transform="translate(334,414)" d="m0 0 5 1 2 4 9 2v1h-8l-8-7z" fill="#FEA10A"/>
<path transform="translate(262,800)" d="m0 0 1 3-1 6-1 5h-2l1-9z" fill="#F69209"/>
<path transform="translate(650,767)" d="m0 0 4 1-10 7h-2l1-3z" fill="#F59509"/>
<path transform="translate(1891,686)" d="m0 0h2l-1 3-8 7-3 2 2-4 5-5z" fill="#FEC313"/>
<path transform="translate(645,581)" d="m0 0 2 1v3h2l3 8-3-1-4-7z" fill="#F89509"/>
</svg>
