<?xml version="1.0" encoding="UTF-8"?>
<svg version="1.1" viewBox="0 0 2048 1228" width="1280" height="1280" xmlns="http://www.w3.org/2000/svg">
<path transform="translate(0)" d="m0 0h2048v1228h-2048z" fill="#1F5706"/>
<path transform="translate(237,286)" d="m0 0 7 1 108 3 1389 1 62 1 1 179 1 38 1 15h104l46 1 43 2 8 1 1 9v155l-1 6h-117l-66 1h-20v140l-1 78-1 3-7 1-24 1-84 1h-1346l-67-1-19-1-8-1-1-1-2-23-1-67-1-105 1-24-6 1h-77l-114-1-9-1-1-23-1-103-1-35v-15h21l40 1 90 1 52 1 2 1-1-2-1-20z" fill="#70E43B"/>
<path transform="translate(240,287)" d="m0 0 112 3 1389 1 62 1v179h-1l-1-80v-89l-3 12-6 10-8 9-4 4h-2v2l-8 4-11 3-3 2h-7l-3-1-10 1h-13l-4 1v-4h-5v2h-5l1-5h-17l-2-4-22-1-18 2h-30l-13 1-11-1-9-2v-2l-42 2h-92l-20 1-10-1h-20l-8-1-10 1-6-1-12 1-31 1-3-1 2-3h-8l1 3-7 1-1-3-7-1-3 1-7-2v2h-2v3h-6l-1-4-3 3-9 1-2-1-2 1h-7l-2-3-6-1h-9v4l-8 1v-3l3-3-8 2-7-1-2 4h-7l3-4-5 1-1 3-24 1v-3l4-1-3-1h-5l-1 5h-9l-2-1-9 1h-19l-8-1-4 1h-10l-13-1-5-1-11 1h-19l-36 1-10-1-9 1h-15l-1-1-10 2-5-1-7 1-13-1 4-3 6 1 2-2-9-1h-4v2h-2v2h-6l-6 2-13-2-11 1 2-1 1-3h-4v2l-7 2h-13l-3-2 4-2-7 1-2-1v3l-5 2h-16l-1-3v-3h-6v2l5 2v1l-9 1-3-1h-41v-2l-9 2h-18l-10-1-2 1-11-2h-15l-3 1h-28l-1-1-10-1-3 1h-33l-11 1-1-1h-10l-13-1-16 1h-18l-4-2-13 2h-10l-6 1-15 1-6-1-18 1h-18l-14 2-10-1-14-1-6-1h-19l-7-1v2h-39l-11-2h-11l-13-1-9 1h-10l-3 1h-7l-5 1-21 1-4 1v5l-9 2-4 3-1 5-8 3v5l-7 2-3-3-11 3-6 1-1-4-8-5-2-4-6-1v-6l-4-1v-5l-4-1-2-1v-3l-4 3h-3v-4l-2-1-3-9-1-14-2-11v-10z" fill="#52CD1B"/>
<path transform="translate(1794,803)" d="m0 0h3l1 4 1-2h2l1 2v113l-7 1-24 1-84 1h-1346l-67-1-19-1-8-1-1-1v-15l5-1 4 9 24 2 14 1h20l16-1 41-1h98l26-1h15l22-1 16-1 17-2 8-1h30l7 2 12-1 18 1 11 1h49l22-1 12-1 10 2 27-1h23l4 1h17l11-1 15 1h23l9-1h12l10-1 14 1 10 1h21l8-1h23l21 1 7-1 13 1 13-1 13 1 8-1 17 1h15l30-1h18l10 1 15-1h10l6 1h94l17-1h16l12 1h105l41 1 41-1h8l6-1h51l12 1h19l54 2h48l52-1 19-2h15l1 1h9l3-4 1-8 2-12v-37l-3-9-2-5 1-18 2-9 3-4z" fill="#87F358"/>
<path transform="translate(245,918)" d="m0 0 10 2 19 1 67 1h1446v2l-18 2-18 1-127 1h-114l-111 1h-855l-130-1h-27l-25-1-73-1-29-1-13-2-2-2z" fill="#0A3803"/>
<path transform="translate(236,277)" d="m0 0h54l-1 4-2 2 9 1 15 1 35 1h76l50-1 98 1h70l107 1h696l44 1 119 1v1h-1293l-69-2-7-2v-3-2h-3l-1-3z" fill="#093703"/>
<path transform="translate(235,287)" d="m0 0h1l1 13 1 205 1 22-54-1-90-1-40-1-21-2 4-2h49l42 2 42 1h44l3-1 1-3 1-23v-21l1-3h2l1-11 1-2 2-46 1-1 3-36 1-15 1-43 1-24z" fill="#093703"/>
<path transform="translate(32,523)" d="m0 0h1l2 15 1 35 1 103v23l123 1h83v170h-1l-1-66-1-24v-63l-1-4-5-4-18-2h-75l-40-1-57-2-7-1-2-2-1-23-3-34v-10l-1-12v-90z" fill="#0B3A03"/>
<path transform="translate(38,520)" d="m0 0h49l42 2 14 1v2h-48l-40-1-21-2z" fill="#0E3E03"/>
<path transform="translate(1898,522)" d="m0 0 56 1 41 1 12 1 1 3-52-2-112-2v-1z" fill="#0F4004"/>
<path transform="translate(1824,698)" d="m0 0h84v1l-25 1-45 1-5 1-23 1-3 3-1 8h-1v-15z" fill="#0C3B03"/>
<path transform="translate(1806,511)" d="m0 0 2 4 5 5 7 2 21 1v1h-35z" fill="#093703"/>
<path transform="translate(1975,524)" d="m0 0h20l12 1 1 3-25-1-8-1z" fill="#0E3E03"/>
<path transform="translate(261,283)" d="m0 0 7 1-1 2h-24l1-2z" fill="#205807"/>
<path transform="translate(906,333)" d="m0 0 2 2-5 1v2l-4-1v-1h-5l-1-2z" fill="#71E53C"/>
<path transform="translate(39,525)" d="m0 0h6l2 3-10 1v-3z" fill="#53CD1C"/>
</svg>
