<?xml version="1.0" encoding="UTF-8"?>
<svg version="1.1" viewBox="0 0 2048 1228" width="1280" height="1280" xmlns="http://www.w3.org/2000/svg">
<path transform="translate(328,302)" d="m0 0 1431 1 14 2 12 7 7 7 6 10 3 9 1 18 1 184h144l23 1 7 3 8 8 4 8 1 8v98l-1 10-6 9-7 8-3 1-14 1-156 1-1 170-1 30-2 8-6 11-10 10-10 5-14 2-100 1h-1370l-15-1-7-3-7-7-5-9-1-9-1-37v-172h-164l-9-2-7-6-6-11-2-15v-92l2-10 6-9 9-8 2-1 11-1h158v-203l1-12 5-10 9-9 3-2 6-1z" fill="#65E429"/>
<path transform="translate(253,700)" d="m0 0h1l1 31 1 82v100h-1l-1-9-1-37z" fill="#FEFEFE"/>
</svg>
