<?xml version="1.0" encoding="UTF-8"?>
<svg version="1.1" viewBox="0 0 2048 1228" width="1280" height="1280" xmlns="http://www.w3.org/2000/svg">
<path transform="translate(0)" d="m0 0h2048v1228h-2048z" fill="#3D3C23"/>
<path transform="translate(440,192)" d="m0 0h35l32 3 20 2 2 1 9 1 6 2 8 1 6 2 10 2v2l9 1v2h3v2l14 3 17 7 16 7 33 18 11 7 15 10 17 13 11 9 3 2v2l4 2 3 3 5 3 7 8 7 6 7 8 6 7v2h2l6 8 5 5 3 5 3 2 4 7 3 2v3h2l4 7 2 5 4 2 203 1 10 1 8 3 8 4 10 9 5 7 6 12 2 8v34l1 1 76 1h666l11 1 16 8v2l4 2 5 2v2h3l5 5 10 7 7 3 5 5 16 11 7 5 5 2 6 4v2l4 1 4 4 16 11 6 3 1 2 7 3 10 7 16 11 10 8 16 9 9 9 5 10 1 6v17l-3 10-9 13-12 13-13 12-8 7-11 10-8 7-17 16-12 11-14 13-8 7-15 13-10 9-13 12-10 9-12 11-8 8-8 7-15 15-8 7-12 11-8 7-10 9-15 14-8 7h-2l-1 3-11 9-11 7-9 4h-2v-2l-8-2-13-10-10-9-19-19-7-8-14-15-5-7-5-5-15-16-13-13v-2l-4-2-7-8-11-12-9-11-5-7v-2l-8 7-11 12-7 8-10 10-7 8-12 12-7 8-12 12-7 8-19 19-7 8-28 28-12 9-4 1-15-8-10-9-4-3v-2l-4-2-12-12v-2h-2l-7-8-10-10-7-8-13-14-7-8-9-10-5-5-12-13-9-10-11-13-5-7-4 2-8 10-15 16-7 8-12 13-13 13-7 8-15 15-7 8-36 36h-2l-2 4-13 10-7-1-14-8-14-12-16-17-9-11-8-10-9-12 1 9-3 1-4 6-1 4-7 4-21 2-20 1-185 1-7 7-9 11-14 17-14 15-7 8-5 5-20 18-11 9-15 12-30 20-24 14-21 10-28 11-36 12-30 8-26 5-20 2-26 1-23-1-35-5-24-5-28-8-26-9-29-12-16-8-17-9-18-11-15-10-16-12-16-13-12-11-10-9-11-12-18-22-9-12-11-16-12-19-12-22-11-23-9-26-11-43-7-32-5-27-1-7-2-27v-47l1-16 5-35 11-44 10-30 9-22 11-24 8-15 8-13 10-16 13-18 13-17h2l2-4 11-12 12-13 8-7 12-11 8-6 3-3 4-3h2v-2l5-3h2v-2l4-1v-2h3v-2l12-8 7-4 11-7 5-1v-2h4v-2l9-5 8-2v-2l13-5 8-4 7-3 33-11 31-7 19-3 33-3z" fill="#FDC40D"/>
<path transform="translate(439,306)" d="m0 0h30l43 6 28 7 30 10 24 11 19 11 19 13 17 13 6 5v2l5 2 5 3 6 5 3 1v3h2l2 5 5 1 4 9 4 3v2h2l6 8 8 11 10 8 6 11 7 11 6 9 4 4 10 27 6 18 7 26 3 8 32 2 64 1h149l349 3h85l79-1-2-6-8-14-8-10-11-14v-2l-63 1h-165l-21-1-3-4v-14l14-1 34-1h152l49 1 11 2 8 5 9 9 6 8v2h2l7 10 12 16 3 1 6 8 5 3h306l62 1 25 1-5-5-7-4v-2l-4-1v-2l-4-1-12-9h3l18 12 11 8 14 10 11 6 9 9 5 10 1 6v17l-3 10-9 13-12 13-13 12-8 7-11 10-8 7-17 16-12 11-14 13-8 7-15 13-10 9-13 12-10 9-12 11-8 8-8 7-15 15-8 7-12 11-8 7-10 9-15 14-8 7h-2l-1 3-11 9-11 7-9 4h-2v-2l-8-2-13-10-10-9-19-19-7-8-14-15-5-7-5-5-15-16-13-13v-2l-4-2-7-8-11-12-9-11-5-7v-2l-8 7-11 12-7 8-10 10-7 8-12 12-7 8-12 12-7 8-19 19-7 8-28 28-12 9-4 1-15-8-10-9-4-3v-2l-4-2-12-12v-2h-2l-7-8-10-10-7-8-13-14-7-8-9-10-5-5-12-13-9-10-11-13-5-7-4 2-8 10-15 16-7 8-12 13-13 13-7 8-15 15-7 8-36 36h-2l-2 4-13 10-7-1-14-8-14-12-16-17-9-11-8-10-9-12 1 9-3 1-4 6-1 4-7 4-21 2-20 1-185 1-7 7-9 11-14 17-14 15-7 8-5 5-20 18-11 9-15 12-30 20-24 14-21 10-28 11-36 12-30 8-26 5-20 2-26 1-23-1-35-5-24-5-28-8-26-9-29-12-16-8-17-9-18-11-15-10-16-12-16-13-12-11-10-9-11-12-18-22-9-12-11-16-12-19-12-22-11-23-9-26-11-43-7-32-5-27-1-7v-8h1l1 7 1 1 3 23 2 6 3 16 8 30 6 17 6 10 3 8 14 28 6 8 5 9 8 12 12 17 14 18 12 14 9 10 7 8 17 17 8 7 7 5v2l4 2 11 9 15 11 23 13 27 13 31 12 15 5 17 5 23 6 25 5 20 3 9 1h57l28-3 33-6 26-7 7-3 13-4 21-8 15-7 34-17 16-10h2v-2h3v-2l9-5 4-4 7-4 5-5 10-9h2v-2l11-9 13-13h2l2-4h2l2-4 14-15 8-10 9-12 1-2h2l2-4 8-10 2-2 156-1 52-1 20-2 11-12 2-7 7 6 6 6v2l4 2 12 14 14 15 6 7 7 6v2l4 2 8 6 7 1 10-7 8-7 3-3h2l2-4 17-17h2v-2h2v-2h2l2-4 3-3h2l2-4 8-9h2l2-4 4-2 2-4 20-20 9-11 2-3h2l2-4 9-10 9-11 8-8 5-9 4 4 4 7 13 14 7 8 15 16 33 36 12 13 16 16 7 8 15 15 6 4 4 5 2 1h9l5-3 5-5 12-11 8-8 7-8 19-19 5-4 7-8 23-23 4-5h2l2-4 10-11 9-11 20-20 6-7 5 1 9 10 11 13 18 20 12 12 7 8 14 15 7 8 16 17 14 15 11 11 5 4v3l4 2 7 7 2 1h12l8-4 6-4 5-5 4-3h2l1-3 4-1 2-4 6-4 4-5 4-2 5-5 8-7h2l1-3h2l1-3 5-4h2l2-4 11-9 8-8h2l2-4 6-4 5-5 3-1 1-3 4-3h2l1-3 11-9 10-10 8-7 10-9 7-6 14-16h2v-2l4-3h2l2-4 13-12 5-5 5-4h2l1-3 11-9 10-9 9-7 5-5 4-2 2-4 15-15v-1l-225 1-61 1 1 90 1 4h42l5-1 31-1h22l44 1 25 1 6 2v3l-9 4-24 1h-142l-23-2-2-2-1-11-1-25-1-65-108-1h-173l-210 1-2 5-10 16-10 15-12 19-11 16-10 14-6 2-34 1h-109l-191-1-14-1-2-1 2-6 4-6 25-5 34-2h53l56-2h94l26 2 13 2h5l8-18 12-22 8-17 7-12-330 1-7 38-5 19-7 21-9 25-12 26-13 23-16 20-13 15-11 12-18 18-11 9-13 10-22 14-21 12-31 14-28 9-27 6-21 3-13 1h-43l-25-3-25-5-18-5-32-12-25-12-19-11-11-7-12-9-20-16-12-11-12-13-9-11-10-13-8-12-12-19-10-19-13-32-7-21-8-34-3-23-1-11v-33l3-24 4-21 6-25 10-30 8-20 4-7 6-3 5-6 8-12 9-10 10-11 8-10 9-10 16-16 14-11 19-14 16-10 23-12 22-10 30-10 21-5 30-5z" fill="#C96203"/>
<path transform="translate(1373,625)" d="m0 0h173l108 1 1 1 1 65 1 25 1 11 1 1 23 2h142l24-1 9-4-1-2-5-1-34-1-48-1h-17l-23 1-10 1h-37l-2-5v-90l7-1 54-1 226-1-2 4-20 20-10 9-11 10-11 9-16 14-8 8-6 5-5 5h-2v2h-2l-2 4-10 10-7 8-11 9-7 7-8 7-13 12-9 7-5 5-16 14-5 5-13 11-5 5-6 5-5 5-9 7-3 4-5 3-5 5-7 6-10 8-7 6-8 5-3 1h-12l-8-7-5-4-3-5-8-7-15-15-7-8-7-7-7-8-15-16-7-8-15-16-10-10-7-8-13-15-7-8-4-5-5 1-12 13-13 13-9 11-11 12-7 8-28 28-5 6-8 7-13 13-15 16-8 8-7 5-5 5-2 1h-9l-6-5-4-4-8-7-16-16-7-8-18-18-7-8-15-16-9-10-24-26-10-11-9-11-4-7-7 10-8 8-9 11-9 10-9 11-12 13-24 24-9 11-6 5-1 2h-2v2h-2v2l-8 7-17 17-5 4-4 4-10 7-7-1-8-6-5-5-8-7-7-8-7-7-7-8-11-13-14-14-4 1-11 4-12 4-16 2-25 1h-172l-7 4-11 12-15 20-13 15-15 16-21 21-11 9-8 9-9 7-12 9-12 7-10 4-17 9-25 11-19 7-18 6-25 7-29 6-34 5h-44l-32-3-30-4-25-6-23-7-28-11-28-13-20-11-24-15-10-8-4-2v-2h-2v-2l-5-2-11-9v-2l-3-1-15-15v-2h-2l-7-8-13-13-7-8-9-11-17-26-13-24-1-4 2 1v2l3-1v-7l4-5 3-3-2-4 1-5 9-5 6-3 6-1 7 4v2l4 2 8 7 11 9 6 8 11 7 6 4h5l-4-6 1-2 9 11 8 10 13 15 9 9 14 11 12 10 13 9 15 9 16 9 21 10 27 10 15 5 26 6 21 3 11 1h43l21-2 28-5 25-7 20-7 30-14 22-13 18-12 13-10 14-12 21-21 9-11 10-11 7-9 6-8 16-29 11-25 7-20 7-21 5-19 5-27 2-11 1-1h330l-2 5-8 15-9 19-9 16-6 14-4 1-10-1-15-2-26-1h-84l-64 2h-50l-29 2-25 5-6 11 16 1 191 1h109l34-1 6-2 16-23 11-17 14-22 10-15 4-7 4-1z" fill="#FEA708"/>
<path transform="translate(280,397)" d="m0 0h14l21 4 19 9 10 8 7-1 3-3 4-1 4 2v2h3v2l4 2 4 3 4 1 6-4 8-5 14-5 8-10 2-1 10-1h21l16 4 8 4 5-1 4-4 10 1 10 6 12 6 8 6 4 1 2-9 3-3 5-1 8 4 3 2 17 3 3 1 6-1 10-9 12-7 11-3 19-2h13l15 4 9 5 11 10 5 8 5 15 2 8 1 9v30l-5 19-6 15-6 11-9 12-9 11-4 5-6 4 6 14 10 16 11 14 8 13 10 19 7 21 2 9 1 14 9 5 2 2v7l-3 5-4 3h-5l-1 9-8 13-4 6-1 3 5 1 3 4 3 1v2l5 1 10 8 2 2v7l-2 5h-2l-1 3-6-1-12-6-11-4-3-2-6 3-10 9-7 5h-3v2l-7 5 4 7 5 5 7 9 2 10-3 3h-8l-6-5-6-4-4-4-6-1h-3v-2l-6 1-9-1-7 4-5 5-3 2h-10l-7-1-11 7-3 1h-11l-5 5-10 4-13 1-22 1-9 6-6 2h-8l-9-2-6-5v-2l-13 5-8 4-3 1h-10l-7-3-9-2-15-2-19-4-5-5-22-6-10-4-8-1-5 2-9-3-2-5-9-2-18-2h-5l-9 7-5 5-3 2-4-1 1-8 4-8h2l1-4 6-8-1-4-8-4-10-3-6-4-7-4-3-2h-15l-8 4-7 1-3-5 1-5 4-6 5-5 9-8 4-1 1-5-7-10-4-8-4-6-8-6-2-4v-6l8-9 5-3 1-7v-13l7-21 11-20 14-22 11-17 4-8-1-6-10-13-7-9-8-14-6-15-4-16-1-7v-36l2-16 4-12 7-11 10-10 14-8z" fill="#FEA708"/>
<path transform="translate(622,397)" d="m0 0h13l15 4 9 5 11 10 5 8 5 15 2 8 1 9v30l-5 19-6 15-6 11-9 12-9 11-4 5-6 4 6 14 10 16 11 14 8 13 10 19 7 21 2 9 1 14 9 5 2 2v7l-2 4h-3v-2l-3-1-3-7-17-8-21-5-5-5-1-5-7-1h-3l-2 5-2 3-52-2-31-1-3-6v-5l-4-5-4-6-2-1v-2l-4-2-15-14-11-15-10-16 1-4 2-3v-5l-4-1-3 4-4 1 1 5 5 5 5 6-1 9-7 20-6 16-7 15-6 9h-2l-1 5-4 1-2 4h-6l-2-2-5 1h-3l-6-9-5-4-1-4h-2l5 11v2h2l5 13-5 5-5 3h-16l-9-1-2 1h-6v-3l4-3-10-2h-9l-10 1-3-2-2-7 4-5 5-1 2-5-2-7-6 1-10 7h-3l1-4h2l2-4 6-8 3-2 3-6 9-10 9-7 8-6 4 2 4 6 1-3v-23l-1-16-5-16-2-7v-18l-3-3h-12l-3-1-2-5-9-4h-12l-9 2-6 8-1 1h-9l-7-2-7-6-1-4 2-6 5-7-1-6-7-8-5-9v-12l3-5 2-1-3-11 2-10-5-13-6-13-8-16-10-18 3-3h10l3 2v2l10 2 12 6 12 8 3-1 4-6 1-1h7v2h3v2l4 2 4 3 4 1 6-4 8-5 14-5 8-10 2-1 10-1h21l16 4 8 4 5-1 4-4 10 1 10 6 12 6 8 6 4 1 2-9 3-3 5-1 8 4 3 2 17 3 3 1 6-1 10-9 12-7 11-3z" fill="#FDC40D"/>
<path transform="translate(142,758)" d="m0 0 7 3 1 3 4 2 8 7 11 9 6 8 11 7 6 4h5l-4-6 1-2 9 11 8 10 13 15 9 9 14 11 12 10 13 9 15 9 16 9 21 10 27 10 15 5 26 6 21 3 11 1h43l21-2 28-5 25-7 20-7 30-14 22-13 18-12 13-10 14-12 20-20v3l-13 13-1 2h6l3-4 5 1 7-4 8-5 2 1-2 2 17-8 8-2 7 1 10 2 9-2 13-6 6-1h8l3 2 6 1-1 8-13 16-9 12-12 14-15 16-21 21-11 9-8 9-9 7-12 9-12 7-10 4-17 9-25 11-19 7-18 6-25 7-29 6-34 5h-44l-32-3-30-4-25-6-23-7-28-11-28-13-20-11-24-15-10-8-4-2v-2h-2v-2l-5-2-11-9v-2l-3-1-15-15v-2h-2l-7-8-13-13-7-8-9-11-17-26-13-24-1-4 2 1v2l3-1v-7l4-5 3-3-2-4 1-5 9-5 6-3z" fill="#FD9909"/>
<path transform="translate(1966,625)" d="m0 0v3l-21 21-10 9-11 10-11 9-16 14-8 8-6 5-5 5h-2v2h-2l-2 4-10 10-7 8-11 9-7 7-8 7-13 12-2-2-17 13-6 4-13 11-20 20h-2l-2 4-3 3h-4v2h-2v4l-5 3-11 6-16 13-11 8-6 2-8-1-6-2-1 2-7-3-8-6-8-7-7-8-10-14-1-5-7-9-12-12-7-8-5-5 1-7-7-6-5-6-5-3 1-2h2l-6-8 1-3 4-2 10 5 2 2 5-1 8-6 4-2h15l15-1 3 3 16 5 20 1 11-4 2-2 2-5 2-1-8-2v-2l-21-1-5-1v-1h148l24-1 9-4-1-2-5-1-34-1-48-1h-17l-23 1-10 1h-37l-2-5v-90l7-1 54-1z" fill="#FEA708"/>
<path transform="translate(503,613)" d="m0 0h2l10 16 6 7v2l4 2 9 11 8 10 4 8v4h-3v2l4 2 5 8 3 11 4-2v-5l5-6 1-3h2l1-3 6-1 45 2 8 1h10l-42-3v-1l40-1 4-7 8-1 3 3 2 5 3 3 21 5 17 8 2 2 2 6 2 1v2l2 1-4 3h-5l-1 9-8 13-4 6-1 3 5 1 3 4 3 1v2l5 1 10 8 2 2v7l-2 5h-2l-1 3-6-1-12-6-11-4-3-2-6 3-10 9-7 5h-3v2l-7 5 4 7 5 5 7 9 2 10-3 3h-8l-6-5-6-4-4-4-6-1h-3v-2l-6 1-9-1-7 4-5 5-3 2h-10l-7-1-11 7-3 1h-11l-5 5-10 4-13 1-22 1-9 6-6 2h-8l-9-2-6-5v-2l-13 5-8 4-3 1h-10l-7-3-9-2-15-2-19-4-5-5-22-6-10-4-8-1-5 2-9-3-2-5-9-2-18-2h-5l-9 7-5 5-3 2-4-1 1-8 4-8h2l1-4 5-5 9-8 22-22 7-5 11-6 6-4 6-8 10-8 10-4 8 1 4 4-1 4-5 3-7 3-5 4-15 9-17 12-14 11v3l6 2 1 3h5l6 4 10 2 11 1 4 2v2l8 2 13 1 5 4 1 2 13 3 8 2h7l5 1h6l8 4 9 2h19l10-3h12l4 2h11l8-3 3-5 17-1v4l5-1 3-2 15-1 3-5 6-3h2v-2l5-2 13-2 15-5h9l5-3 6-2h-7l-5 2-10 2h-15l-16 5-13 4-19 4-35 5h-10l1-5 8-6 5-10h2l2-4 10-8 8-8 8-10 6-4 8-5 5-1v-2l10-4-2-1-6 3-3 2-7 2-10 7-6 5-2 3h-2l-2 4-11 10-12 7-13 4h-18l-21-8-10-7-5-4-1-7 6-2 21 1-1-5-3-1v-2h-2v-5l1-1 18-1 8 1 5-2 2-3-1-4-3-4v-9l2-4h4l-2-1v-2h-2l1-8 1-1 1-9 7-9 3-2 2-8 3-5 5-13 8-20 6-16z" fill="#FEA808"/>
<path transform="translate(1405,616)" d="m0 0 27 1h22l35 1 61 1h72l16 1 8 1 12 2 6 3v1h-7v2h17l3-1v-2l7-3h63l19-1 30 1 12 2v1l-128 2 1 90 1 4h42l5-1 31-1h22l44 1 25 1 6 2v3l-9 4-24 1h-142l-23-2-2-2-1-11-1-25-1-65-108-1h-173l-210 1-2 5-10 16-10 15-12 19-11 16-10 14-6 2-34 1h-109l-191-1-14-1-2-1 2-6 4-6 25-5 34-2h53l56-2h94l26 2 13 2h5l8-18 12-22 8-17 7-12h-330l3-3 11-2 110-1h56l50-1h80l10 2 33 1h39l12-2 19-2 27-1 33 1h96l24-1z" fill="#C96203"/>
<path transform="translate(498,586)" d="m0 0 4 1 1 1-1 7-2 2 1 5 7 11 12 17 9 9 10 8v2l3 1 7 10 1 2 1 6 1 3 76 3v1l-15 1 24 2 2 2h-12l-26-2-28-1-5 1-1 2h-2l-1 5-4 4v5l-5 2-6-15-4-5-2-1v-2h3l-4-10-8-11-8-9-7-8-9-12-5-8v-2h-2l-2 10-6 16-10 25-6 12-2 7-5 5-4 5-1 9-3 9h2v2l3 1-2 1-3-1 1 3-2 2v8l4 5-1 5-3 3-6 1-11-1-13 1-1 5h2l4 5 1 3-1 1-21-1-5 1 1 7 11 8 10 5 14 5h18l15-5 11-7 11-10 6-7 10-8 7-4 7-2 4-3 4-1 4 3-7 2-6 1v2l-12 6-5 4h-2l-2 4-14 15-11 9-1 2h-2l-3 9-7 6-3 2-1 4 24-3 25-4 23-5 17-6 5-1h14l13-3 2-1h8l-1 2-10 4-2 1h-8l-18 6-10 1-5 1v2l-5 3h-3l-1 4-2 2-15 1-5 3-4-1v-3l-16 1-1 4-10 4h-11l-4-2h-12l-10 3h-19l-11-3-6-3h-8l-4-1-10-1-12-3-6-2-5-5-14-1-7-3-1-2-3-1-17-2-8-3-2-2-5-1-2-3-6-2v-3l12-10 17-12 18-11h2l1-3 5-3 7-3 2-1-1-4-5-3-9 1-9 5-9 8-5 7-13 8-7 4-10 9-8 7-5 7-10 8-5 5 2-5 3-3-1-4-8-4-10-3-6-4-7-4-3-2h-15l-8 4-7 1-3-5 1-5 4-6 1 2-3 5v3l5 2 2-4 2-3 11-6 5-4h8l7 2 5 1-5-5-1-3-4-2 2-5 8-4 12-5 29-13 24-4h4v-2l13-3 13-5 4-5-2-7-6-5v-3l6-4 3-3 6-2 6-15h2l2-5 15-16 3-4 5-2h5l1 1v5l-4 4-8 7-4 7-5 8-4 4-6 8h-2l-1 4 9-5 6-4 5 1 2 8-3 5-6 2-2 5 2 5 2 1 10-1h9l11 2-3 4h-2v3l8-2 9 1h16l4-2 5-6-4-10v-2h-2l-5-10v-3h2l2 4 7 6 4 7 4-2 4 1 1 1h6l4-4h2l1-5h2l2-5 3-4 9-20 11-31 1-9-7-8v-2l-3-1-1-5 5-2z" fill="#FE9909"/>
<path transform="translate(1680,709)" d="m0 0 30 1 75 1 86-1v2l3-1-2 4-10 10-7 8-11 9-7 7-8 7-13 12-2-2-17 13-6 4-13 11-20 20h-2l-2 4-3 3h-4v2h-2v4l-5 3-11 6-16 13-11 8-6 2-8-1-6-2-1 2-7-3-8-6-8-7-7-8-10-14-1-5-7-9-12-12-7-8-5-5 1-7-7-6-5-6-5-3 1-2h2l-6-8 1-3 4-2 10 5 2 2 5-1 8-6 4-2h15l15-1 3 3 16 5 20 1 11-4 2-2 2-5 2-1-8-2v-2l-21-1-5-1v-1h148l24-1 9-4-1-2-5-1-34-1-48-1h-17l-23 1-10 1h-37l-2-5z" fill="#FE9A09"/>
<path transform="translate(769,626)" d="m0 0h330l-2 5-8 15-9 19-10 17-282-1-29-1 1-11 6-31 2-11z" fill="#FDC40D"/>
<path transform="translate(1373,625)" d="m0 0h173l108 1v56l-3-4-3-7-6-4-5-6-14-14-8-3-13-1-13-4h-15l-13-1h-12l-7 1-17-2-1 1-19 3-17 3-25 2v2h-9l-7 1-7-1-2 1-11-1v-3l1-1h-26l-13 2-7 1-9 3h-3l-1 4h-2l-1 4h-5l-2 1-6-1-1 2-22 2h-10l-19 2-24-1h-9l2 6-7 1-20 1-3 1h-6l-5 3-6 1-6-2-5-1-2-2-7 1-10 4-7 3h-3v2l-13 5-6 5-8 4-12 8-8 4-11 4-8 3-3 3-5 2h-5l-2-4 6-4 16-23 11-17 14-22 10-15 4-7 4-1z" fill="#FDC30D"/>
<path transform="translate(432,194)" d="m0 0h16v1l-38 5-9 1-21 3-2 1 1 6-8 5-13 2-10 5-7 4-11 4-15 8-16 8-20 12-19 10-18 10-16 11-9 7-18 18-7 8-10 12-7 9-11 12-7 10-13 17-7 11-8 12-12 22-10 19-8 19-9 16-7 15-4 20-10 27-4 12-2 11-2 24h-1l-2-14 1-15 1-8-1 6-1 11-1 24 1 10 1 13 4 33 1 13 1 9h-2l2 6-3 1-2 5-2-2-5-19-1-7-1-1-3-26v-47l1-16 5-35 11-44 10-30 9-22 11-24 8-15 8-13 10-16 13-18 13-17h2l2-4 11-12 12-13 8-7 12-11 8-6 3-3 4-3h2v-2l5-3h2v-2l4-1v-2h3v-2l12-8 7-4 11-7 5-1v-2h4v-2l9-5 8-2v-2l13-5 8-4 7-3 33-11 31-7 12-2z" fill="#FED915"/>
<path transform="translate(436,284)" d="m0 0h37l25 3 24 5 26 7 32 12 16 8 17 9 18 12 10 7 13 10 6 5v2l4 2 30 30 2 5h2l11 16 8 13 5 8 8 16 4 9 5 12 2 4-1 3-3-5h-2l-6-10-7-11-6-11-10-8-9-12-4-5v-2h-2l-6-7-3-7-4-1-2-5h-2v-3l-4-1-5-4-7-4-3-2v-2l-4-2-8-7-18-13-17-11-24-13-25-10-22-7-25-6-43-6h-30l-29 3-32 6-25 7-24 9-29 14-16 9-13 9-16 12-10 8-10 9-15 15-11 14-12 13-7 8-9 14-5 5-5 2-3 6-1-3 5-10 4-10 2-4h2l2-7h2l1-5h2l1-5 13-18 13-16 9-10 18-18 8-6 3-3h2v-2l5-2 1-3 4-1v-2l6-4h2l1-3 17-11 6-2v-2l24-12 24-9 14-5 22-5 16-3 24-4z" fill="#F2800B"/>
<path transform="translate(896,408)" d="m0 0h15l10 3 12 7 10 9 9 14 4 8 7 22v16l-5 12-8 13-9 9-10 7-11 5-15 3h-9l-15-4-10-5-10-8-10-11-7-14-3-12v-11l4-15 7-15 7-11 10-11 14-8z" fill="#CA6303"/>
<path transform="translate(1537,713)" d="m0 0 3 1-2 4-12 12h-2l-2 4-7 7-7 8-47 50-14 15-28 28-8 7-10 9-3 2-9-2-8-6-39-39-7-8-13-14-7-8-2-4 1-1 1-3h2l-6-8-2-6 18 9h7l5-2 3-3h2l1-5 3-3 7-1 2-3 11-2 8 5h13l11-1 11-2h10l8 1h6l5-3 1-3 11 3 2 1h12l5-1 14-2 10 1 6-4 8-8 6-8 11-8 5-5z" fill="#FE9A09"/>
<path transform="translate(1985,629)" d="m0 0 2 1-1 4-4 8-12 13-13 12-8 7-11 10-8 7-17 16-12 11-14 13-8 7-15 13-10 9-13 12-10 9-12 11-8 8-8 7-15 15-8 7-12 11-8 7-10 9-15 14-8 7h-2l-1 3-11 9-11 7-9 4h-2v-2l-8-2-13-10-10-9-19-19-7-8-14-15-5-7-5-5-15-16-13-13v-2l-4-2-7-8-11-12-9-11-5-7v-2l-8 7-11 12-7 8-10 10-7 8-12 12-7 8-12 12-7 8-19 19-7 8-28 28-12 9-4 1-15-8-10-9-4-3v-2l-4-2-12-12v-2h-2l-7-8-10-10-7-8-13-14-7-8-9-10-5-5-12-13-9-10-11-13-5-7-4 2-8 10-15 16-7 8-12 13-13 13-7 8-15 15-7 8-36 36h-2l-2 4-13 10-7-1-14-8-14-12-16-17-9-11-16-20 1-4 4 1 8 9 7 11 9 9 11 9 10 7 10 4 8 7 9-2 11-8 8-8 1-2h2v-2h2l2-4 29-29 5-6 5-4 7-8 17-17 7-8 6-6h2l1-3 13-10 8-5 8-9 5-1 6 4 13 14 7 6 5 5 9 8 3 7 8 8 2 1v2h2l3 5v2h3l6 8 4 5v2h2v2h2v2h2v2h2l6 7v2h2l7 8 4 5 4 3v2h2l4 4v2l5 2 7 4 8 1 7 6 2 3 8-1 13-7h2v-2h2v-2l5-5 3-4h2v-2h2l2-5h2v-2h2v-2h2l2-5h2l2-4 16-16 5-6 39-39h2v-2h2v-2h2v-2l10-8 10-7 11-8 3-3 6-1 6 4 9 10 6 5v2h2l2 6 6 3v2h2l7 8 8 9 6 4 7 10 7 8v2h2l4 5v2l4 2v2h2l9 11 8 8v2l3 1v2l4 2 4 4 3 1v2h2v2l5 2 6 3 8 5 8 7h9l16-8 9-7h2v-2h2l2-4 4-2v-2l5-4h2v-2h2v-2l8-7 7-7 8-7 34-34 11-9 17-14 11-9 30-30 8-7h2v-2l28-22 3-1v-2l4-4h2v-2l5-4h2v-2h2v-2l8-6h2v-2l4-3h2v-2l8-5 5-5h2l2-4 7-10 6-7h2v-2l9-6z" fill="#F07F0B"/>
<path transform="translate(142,758)" d="m0 0 7 3 1 3 4 2 8 7 11 9 6 8 11 7 6 4h5l-4-6 1-2 9 11 8 10 13 15 9 9 14 11 12 10 13 9 15 9 16 9 5 3 1 5-1 1h-9l-9-4-13-3-12-5-19-9-10-4-1-3-2-1v-2l-5-1-9-3-6 1-5 2-2 4-4 3-3 6-7-5-1 6-2 4-4-3h-3l-6-4 4 5 5 5 6 7 6 5v2l4 2 9 9 8 7 9 7 7 3 20 14 8 4 6 4 17 8 8 5 8 4 33 11 16 5 17 3 19 4 12 3 10 2 30 2h30l26-2 36-6 32-8 27-9 15-6 15-7 23-11 16-9 12-6 5-2 4-4 3 1-10 8-15 9-10 4-17 9-25 11-19 7-18 6-25 7-29 6-34 5h-44l-32-3-30-4-25-6-23-7-28-11-28-13-20-11-24-15-10-8-4-2v-2h-2v-2l-5-2-11-9v-2l-3-1-15-15v-2h-2l-7-8-13-13-7-8-9-11-17-26-13-24-1-4 2 1v2l3-1v-7l4-5 3-3-2-4 1-5 9-5 6-3z" fill="#FEA708"/>
<path transform="translate(1250,722)" d="m0 0 4 4 4 7 13 14 7 8 15 16 33 36 12 13 16 16 7 8 15 15 6 4 4 5 2 1h9l5-3 5-5 12-11 8-8 7-8 19-19 5-4 7-8 23-23 4-5h2l2-4 10-11 9-11 20-20 6-7 5 1 9 10 11 13 18 20 12 12 7 8 14 15 7 8 16 17 14 15 11 11 5 4v3l4 2 8 8 1 5-6-4-5-6-8-7-10-9 4 5 2 4-5-3-18-18-5-3-7-8-6-6v-2h-2l-7-8-9-10-44-44-11-15-13 3-8 7-4 9-7 6-7 8-12 12-3 5-31 31-12 13-10 10-1 2h-2l-2 5h-2v2h-2v2h-2l-2 5h-2v2l-5 5-3 4h-2v2h-2v2l-15 8-8 1-6-7-3-2-10-2-10-6v-2l-4-2v-2h-2l-5-5-9-10-1-3h-2l-6-7v-2h-2v-2h-2v-2h-2v-2h-2l-7-9-3-4v-2h-3l-3-5v-2h-2v-2l-4-2-8-8-3-7-12-10v-2l-4-2-1-3-4-2-13-14-4-2-5 1-10 11-10 6-9 7-14 14-7 8-17 17-5 6-9 9h-2l-2 4-24 24-1 2h-2v2h-2l-2 4-9 9-9 6-9 2-8-7-12-5-10-8-13-11-8-9-7-10-6-7-3-1-1 2h-2v-10l-10 1 2-4 6-7 2-7 7 6 6 6v2l4 2 12 14 14 15 6 7 7 6v2l4 2 8 6 7 1 10-7 8-7 3-3h2l2-4 17-17h2v-2h2v-2h2l2-4 3-3h2l2-4 8-9h2l2-4 4-2 2-4 20-20 9-11 2-3h2l2-4 9-10 9-11 8-8z" fill="#BD5102"/>
<path transform="translate(457,713)" d="m0 0 2 4 4 10 4 5-1 5-3 3-6 1-11-1-13 1-1 5h2l4 5 1 3-1 1-21-1-5 1 1 7 11 8 10 5 14 5h18l15-5 11-7 11-10 6-7 10-8 7-4 7-2 4-3 4-1 4 3-7 2-6 1v2l-12 6-5 4h-2l-2 4-14 15-11 9-1 2h-2l-3 9-7 6-3 2-1 4 24-3 25-4 23-5 17-6 5-1h14l13-3 2-1h8l-1 2-10 4-2 1h-8l-18 6-10 1-5 1v2l-5 3h-3l-1 4-2 2-15 1-5 3-4-1v-3l-16 1-1 4-10 4h-11l-4-2h-12l-10 3h-19l-11-3-6-3h-8l-4-1-10-1-12-3-6-2-5-5-14-1-7-3-1-2-3-1-17-2-8-3-2-2-5-1-2-3-6-2v-3l12-10 17-12 18-11h2l1-3 5-3 10-3 12-3 9 4 15 8 3 1h12l13-3 7-1 1-3 12-5 2-9 2-3h2z" fill="#FE920C"/>
<path transform="translate(763,554)" d="m0 0 2 4 1 1 32 2 64 1h149l15 1 3 2 18 1 77 1 42 1 32 1 62 1h166l71-1h31l-3 4-14 1-27 1h-10l-13 1h-40l-45 2-45 1-9 1-22 1h-90l-9-1-41-1-43 1h-125l-39 1h-188l-1-4z" fill="#F2800B"/>
<path transform="translate(301,515)" d="m0 0 5 1 2 2 2 11-2 9-1 9-5 10-8 20-6 9-4 15-2 5-1 6 5 2-1 5-4 4-9 1v8l-3 7-1 7 4 9 4 18v2l6 2 12-1h15v3l-12 2-11 1-8 4-3 4v7l4 4 5 2 13 3v3l-7 4-12 3h-4v2l-14 6-13 6-7 2-2-1-3-9-5-10-1-9-3-1-4 2-1 13-9-9-5-4-2-4v-6l8-9 5-3 1-7v-13l7-21 11-20 14-22 11-17 4-8-1-6-10-13-7-9-5-9 3 1 4 4 8 5 10 10h4l6-7 3-11-2-6-4-2-1-5 3 2 9-4 9-5z" fill="#FD9909"/>
<path transform="translate(1405,616)" d="m0 0 27 1h22l35 1 61 1h72l16 1 8 1 12 2 6 3v1h-7v2h17l3-1v-2l7-3h63l19-1 30 1 12 2v1l-128 2 1 90 1 4h42l5-1 31-1h22l44 1 25 1 6 2v3l-9 4-24 1h-142l-23-2-2-2-1-11-1-25-1-65-108-1h-173l-210 1-2 5-10 16-10 15-12 19-11 16-10 14-5 1 2-5 3-5h2l1-5 4-5 7-15 8-14 4-9 11-18 6-8 9-3-18-2v-1l19-1 12-2 19-2 27-1 33 1h96l24-1z" fill="#BD5102"/>
<path transform="translate(654,420)" d="m0 0h14l7 4 5 15 2 8 1 9v30l-5 19-6 15-6 11-9 12-9 11-4 2-11 1v-2l-7-2-5-8-12-20-8-15-4-13-1-27 6-9 15-16 12-5 1-2 15-5 5-3 3-9z" fill="#FDC40D"/>
<path transform="translate(758,677)" d="m0 0 1 3 307 1 4 1-2 6-4 8-13-1-15-2-26-1h-84l-64 2h-50l-29 2-25 5-6 11 16 1 191 1 75 2-4 4-9 1-41 2h-13l-7-1-2-2h-28l-6 3-17 2-21 1-9 1h-43l-1 4-1 1-19 2h-13l-10 1v-2h-15l-9 2-9 8-6 3-8 1-2 4-10 17-10 14-7 8-9 4 2-5 8-10 16-29 11-25 7-20 7-21z" fill="#FDC10D"/>
<path transform="translate(1541,714)" d="m0 0 5 1 11 10 8 7 16 16 9 11 16 17 9 10 16 17 9 10 4 10 9 12 5 5v2l4 2 7 7 8 5 4 1 5-1 5 2 8-1 9-5 12-10 12-9 6-3 5-3h2v-4h2v-2l5-2 4-5h2l2-4 10-9 12-12 13-10 14-10 5-4 1 3-5 5-24 21-5 5-13 11-5 5-6 5-5 5-9 7-3 4-5 3-5 5-7 6-10 8-7 6-8 5-3 1h-12l-8-7-5-4-3-5-8-7-15-15-7-8-7-7-7-8-15-16-7-8-15-16-10-10-7-8-13-15-7-8-4-5-5 1-12 13-13 13-9 11-11 12-7 8-28 28-5 6-8 7-13 13-15 16-8 8-7 5-5 5-2 1h-9l-6-5-4-4-8-7-16-16-7-8-18-18-7-8-15-16-9-10-24-26-10-11-9-11-4-7-7 10-8 8-9 11-9 10-9 11-12 13-24 24-9 11-6 5-1 2h-2v2h-2v2l-8 7-17 17-5 4-4 4-10 7-7-1-8-6-5-5-8-7-7-8-7-7-7-8-11-13-5-5 1-2 3 2v-6l4 2 35 35 7 8 10 8h6l6-3 13-12 10-9 38-38 7-8 10-10 7-8 14-15 9-10 7-8 19-19 4 2 7 7 8 7 30 30 7 8 12 13 13 14 7 8 14 15 32 32 7 4 7 1 10-8 9-9 8-7 30-30 7-8 7-7 7-8 8-8 7-8 9-9 7-8 16-17 5-5z" fill="#FEE252"/>
<path transform="translate(1105,769)" d="m0 0h23l5 4 5 1 4 4 8 4h10l9-3 2 5 7-6 2-2 4 5v8l-15 16-37 37-8 7-9 8-5 2h-6l-11-9-16-17-29-29-3-8-6-4v-3l6-5 9 1 12 2 3-2h3l1-3 15-8 14-4z" fill="#FE9A09"/>
<path transform="translate(1922,540)" d="m0 0 5 2 10 7 16 11 10 8 16 9 6 6v2l-8-1-50-2-38-1h-18l-17-1h-179l-4 1-9-1-5 1-5-1-5 1h-83l-5-8-10-18-1-3h2l6 8 5 3h306l62 1 25 1-5-5-7-4v-2l-4-1v-2l-4-1-12-9z" fill="#F2800B"/>
<path transform="translate(469,691)" d="m0 0 1 4 1 3 4 2 2 4 7 5 30 7 8 2 10 4 7 1h9l1 5v2l13 7 11 6 10 5 9 7 7 6 1 3 6 3 3 5v2h-6l-12-7-5-2-1-3-6-2-3-3v-2h-3v-2l-5-1-12-9-10-5-7-1 3-2-2-1-6 3-3 2-7 2-10 7-6 5-2 3h-2l-2 4-11 10-12 7-13 4h-18l-21-8-10-7-5-4-1-7 6-2 21 1-1-5-3-1v-2h-2v-5l1-1 18-1 8 1 5-2 2-3-1-4-3-4v-9l2-4h4l-2-1v-2h-2l1-8 1-1 1-9z" fill="#FE9909"/>
<path transform="translate(333,554)" d="m0 0 4 1 8 5 1 2-1 13-3 6-5 5 4 8-1 9-5 5-4 5 2 8 9 3 10 5 3 1h25l7-6 3 1-1 6-11 12-7 8-3 5h-2l-1 5-5 10-10 5-7-1-9-1-7-2-22-2h-17l-4-2-1-3-1-15-2-10 2-7 11-9 9-4 9-3 5-4 1-5-3-5v-11l3-1 1-6 5-7 1-15 6-8z" fill="#FEC40D"/>
<path transform="translate(570,210)" d="m0 0h7l3 1v2l14 3 17 7 16 7 33 18 11 7 15 10 17 13 11 9 3 2v2l4 2 3 3 5 3 7 8 7 6 7 8 6 7v2h2l6 8 5 5 3 5 3 2 4 7 3 2v3h2l4 7 2 5 4 2 1 2 7 1 4 5 7 3 16 4-3 2-16 3h-10l-9-3-9-4-9-6-10-10-7-11-12-14-7-8-10-11-7-8-15-15-9-8-9-6-12-7-5-4-5-5-16-10-9-8-15-9-13-8-20-12-4-3-9-3v-3l-6-2-3-4z" fill="#FED915"/>
<path transform="translate(371,706)" d="m0 0h8l-4 4-13 8-7 4-10 4-5 3h-2l-2 4-9 12-13 8-7 4-10 9-8 7-5 7-10 8-5 5 2-5 3-3-1-4-8-4-10-3-6-4-7-4-3-2h-15l-8 4-7 1-3-5 1-5 4-6 1 2-3 5v3l5 2 2-4 2-3 11-6 5-4h8l7 2 5 1-5-5-1-3-4-2 2-5 8-4 12-5 29-13 28-5 16-2h21l5 1z" fill="#FE920C"/>
<path transform="translate(547,540)" d="m0 0 10 1 3 3 1 5 13 2 1 5-4 8 2 10 3 7 3 16v10l-2 8-7 7-4 5-10 5h-8l-13-5-7-6-8-15-5-14-1-14-10-25-1-8 1-1h5l4 6 9-2 13-6z" fill="#FD9A08"/>
<path transform="translate(1985,629)" d="m0 0 2 1-1 4-4 8-12 13-13 12-8 7-11 10-8 7-17 16-12 11-14 13-8 7-15 13-10 9-13 12-10 9-12 11-8 8-8 7-15 15-8 7-12 11-8 7-10 9-15 14-8 7h-2l-1 3-11 9-11 7-9 4h-2v-2l-8-2-13-10-10-9-19-19-7-8-5-6 2-1-1-3h-2l-9-11 3-1 2 4h2l9 11 8 8v2l3 1v2l4 2 4 4 3 1v2h2v2l5 2 6 3 8 5 8 7h9l16-8 9-7h2v-2h2l2-4 4-2v-2l5-4h2v-2h2v-2l8-7 7-7 8-7 34-34 11-9 17-14 11-9 30-30 8-7h2v-2l28-22 3-1v-2l4-4h2v-2l5-4h2v-2h2v-2l8-6h2v-2l4-3h2v-2l8-5 5-5h2l2-4 7-10 6-7h2v-2l9-6z" fill="#EE7D0B"/>
<path transform="translate(517,695)" d="m0 0h7v2l21 3 9 2 1 1 10 2 16 4 19 4 18 3 8 3 8 4 13 4 13 7 8 2-2 4-5 5-13 12-15 14-2 4-5 1-4-6-2-5-5-4v-2l-4-2-8-6-18-10-13-11-5-3-3-3-2-1-9-1-3-2-1-6-8-4-12-5-7-4-6-4z" fill="#FE9A08"/>
<path transform="translate(503,613)" d="m0 0h2l10 16 6 7v2l4 2 9 11 8 10 3 6v5l-18 1-1 2 10 2 11 3 4 6 2 6-1 5-2 1h-15l-25-5 4 6 3 2-1 3-5-1-15-1-10-6-13-6 2-6 2-2 2-8 3-5 5-13 8-20 6-16z" fill="#FEC40D"/>
<path transform="translate(368,541)" d="m0 0h12l10 5 1 5h15l4 4v18l6 19 1 4 1 26v16h-3l-5-7-5 2-11 9-8 6 2-4 7-6h2l1-8-9 1v-6l-5 2-4 4h-15v-1l10-1 4-2 2-4 5-6v-8h-11l-9-2-7-6-5-4-4-7-1-12 3-7 4-5 3-3 5-2 5-4 4-1h8l7 3 7 12 3 7 2 6 2 4h2v-33l-16-3-2-4-5-1-6-1h-16l-2 1 2-4z" fill="#FFA808"/>
<path transform="translate(366,739)" d="m0 0h10l18 8 4 5v4l6 2 5 6 7 11 4 4 6 3 8 6 2 6 6 1v4l-5 1-9-2-15-1-17-2-10-5h-10l-7 2-5-3v-4l-10-3-8-1h-7l-10-4-3-3v-5l9-8 4-2 4-6 8-6 5-5z" fill="#FE9A09"/>
<path transform="translate(538,737)" d="m0 0h8l10 5 14 10 3 1v2h3l5 5 4 2 2 3 5 2 3 4-1 5-3 3-12 2-2 1h-17l-18 7-15 4-17 3h-8l2-4h2l-1-4-8-1-9 1 1-4 5-6h2l1-7 4-2v-2l6-5 10-2-3-7 1-3 10-7 7-2v-2z" fill="#FEC40D"/>
<path transform="translate(186,293)" d="m0 0h3l-2 5-11 12-8 10-7 9-5 9h-2l-2 4-6 8h-2l-2 4-8 10-6 10-8 10-8 14-10 18-3 4-3 8-4 9-12 34-4 14-3 15-3 9-5 21-2 3-2 10-2 17-1 11-1 24 1 10 1 13 4 33 1 13 1 9h-2l2 6-3 1-2 5-2-2-5-19-1-7-1-1-3-26v-47l1-16 5-35 11-44 10-30 9-22 11-24 8-15 8-13 10-16 13-18 13-17h2l2-4 11-12 12-13 8-7z" fill="#FEE353"/>
<path transform="translate(770,681)" d="m0 0 300 1-2 6-4 8-13-1-15-2-26-1h-84l-64 2h-50l-29 2-25 5-2 1 1-12 11-6z" fill="#F2800B"/>
<path transform="translate(331,797)" d="m0 0h2v2h9l11 4 4 2 13 1 7 6 9 2 19 1 2 1v2h8l7 1 2 3h6l4-2h9l7 1 8-2h8l1 2 13-1 10-4 13-1 8-1 17-2 8-2v-2l4-2 15-1h15l-1-4 2-1 13-1v2h2v3l-5 4 7 1v1h-10l-7-1-11 7-3 1h-11l-5 5-10 4-13 1-22 1-9 6-6 2h-8l-9-2-6-5v-2l-13 5-8 4-3 1h-10l-7-3-9-2-15-2-19-4-5-5-22-6-10-4-10-1 3-8-1-4z" fill="#FD9909"/>
<path transform="translate(1541,722)" d="m0 0 5 1 9 10 11 13 18 20 12 12 7 8 14 15 7 8 16 17 14 15 11 11 5 4v3l4 2 8 8 1 5-6-4-5-6-8-7-10-9 4 5 2 4-5-3-18-18-5-3-7-8-6-6v-2h-2l-7-8-9-10-44-44-11-15-13 3-8 7-4 9-7 6-7 8-12 12-3 5-31 31-13 12-12 11-6 4-10 6-2-1 45-45 6-9 19-19 4-5h2l2-4 10-11 9-11 20-20z" fill="#BE5202"/>
<path transform="translate(1032,801)" d="m0 0h1v7l-12 13-20 2-52 1-156 1-7 8-3 3-5 4-5 5-6 4-4 5h-2v2h-2l-2 5-10 10-5 8h-2v2l-7 4-15 14-9 9-4 6-7 1 5-6 11-9 28-28 7-8 13-15 12-16 11-13 7-6 3-1h172l25-1 16-2 21-7z" fill="#FEC714"/>
<path transform="translate(280,397)" d="m0 0h14l21 4 19 9 10 8 7-1 3-3 4-1 2 2-6 2-5 7-5-2-16-10-15-5-3-3h-10l-2 2 13 24 5 10 6 13 1 5v7l-5 5-5-3-5-8-6-9-6-4-5-4-24-6-12-5-3-4h-2l-4 4-5 2-5 10-3 7-2 12-1 32h-1v-36l2-16 4-12 7-11 10-10 14-8z" fill="#FD9909"/>
<path transform="translate(1249,751)" d="m0 0 5 1-1 3-5 4-7 9-15 16-7 8-12 13-13 13-7 8-15 15-7 8-36 36h-2l-2 4-13 10-7-1-14-8-14-12-16-17-9-11-16-20 1-4 4 1 8 9 7 11 9 9 11 9 10 7 10 4 8 7 9-2 11-8 8-8 1-2h2v-2h2l2-4 29-29 5-6 5-4 7-8 17-17 7-8 6-6h2l1-3 13-10 8-5 8-9z" fill="#EF7E0B"/>
<path transform="translate(622,397)" d="m0 0h13l15 4 9 5 11 10 4 6-1 2-5-3h-14l-4 10-10 5-10 3v2l-13 5-8 8-7 8-5 8 1 27 4 13 10 19 10 16 4 7 7 3v2l6-2 7 1-8 8 4 9 8 14 8 11 2 4h-2v-2l-4-2-4-4-4-6-7-14-9-10-7-11-6-7-5-8-1-4-3-3-7-12-6-3-4-27-1-16v-15l6-15 8-15 8-10 13-12 7-6 1-2h-11z" fill="#FEA708"/>
<path transform="translate(380,195)" d="m0 0h16l-4 2-29 5-28 7-26 9-8 4-7 3-10 4h-3v2l-12 5-2 2h-3v2h-4v2l-10 5-10 7-9 5-4 3h-2v2h-3v2l-4 1v2l-5 3h-2v2l-6 4h-2l-1 3-5 2-1 3-11 9-9 9-8 7-18 20-9 11-12 16-14 21-7 11-5 9-5 1-1-2 8-17 7-11 1-3h2l2-6 7-12 2-6 4-8 2-3h2l2-4 16-15 14-14 5-3h2v-2l4-1v-2h2v-2h2v-2l11-7 4-4 2-3 12-11 1-3 5-1v-2l4-1v-2l10-6 12-8 7-4 6-4 12-5 11-4 12-6 16-3 6-3 21-5 7-3 15-3 11-1 7-2z" fill="#34281B"/>
<path transform="translate(1416,620)" d="m0 0h112l67 2 23 2v1l-455 2-2 5-10 16-10 15-12 19-11 16-10 14-5 1 2-5 3-5h2l1-5 4-5 7-15 8-14 4-9 11-18 6-8 9-3-18-2v-1l61-2h176z" fill="#AB4B06"/>
<path transform="translate(545,669)" d="m0 0 1 4h-3v2l4 2 5 8 3 11 4-2v-5l5-6 1-3h2l1-3 6-1 45 2 28 3v1l-54 3 4 4 8 4 8 1 7 3 15 1 5-1h10l1 1v5l-8 7-4 4-3 4-1 4 12 3 8 5 3 3-6-2-7-4-16-5-7-4-14-3-24-4-9-3-20-4-3-2-25-4-3-2 11 1h15l2-1-1-7-4-8-21-6 1-3 12-1 6 1z" fill="#FEA708"/>
<path transform="translate(788,860)" d="m0 0v3l-9 11-14 17-14 15-7 8-5 5-20 18-11 9-15 12-30 20-24 14-21 10-28 11-36 12-22 6h-10l2-2 24-8 20-8 8-3 18-8 10-5 5-1v-2l7-1v-2l9-4 6-3 13-7 19-11 11-7 5-2v-2l7-4 7-6h2v-2l11-8h2v-2l8-7 8-8 5-6 6-5 7-8 11-11 8-7 15-12z" fill="#ED7C0B"/>
<path transform="translate(1544,739)" d="m0 0 4 2 12 16 49 49 7 8 1 3h2l7 8 8 9 4 2 19 19h2l-7-7h3l15 14 5 5 7 6 1-4h12l8-4 6-4 5-5 4-3h2l1-3 4-1 2-4 6-4 4-5 4-2 5-5 4-2-6 7 9-6 4-2 2 1v2l4-3h2v-2l8-7 12-12 2 1-31 31-8 7-7 7h-2v2h-2v2l-5 4h-2v2l-5 4-1 2h-2v2l-13 9-14 7h-9l-10-9-6-3-4-1v-2l-5-2-2-1v-2h-2v-2l-4-1-7-6-7-8-13-14v-2h-2l-7-8-1-3h-2l-2-5-4-2-8-11v-2l-4-2-7-6-7-8-3-3v-2h-2v-2l-4-2-4-4v-3h-2v-2l-4-2-15-15-4-1-6 1-2 4-13 9-12 9-3 3h-2v2h-2v2h-2v2l-8 6 2-4 16-16 7-8h2l3-9 7-7 4-2z" fill="#CA6403"/>
<path transform="translate(359,545)" d="m0 0h16l9 1 4 4v2l13 1 4 2v28l-1 5h-2l-4-5-3-9-6-12-1-3-7-2h-8l-7 3-3 3h-4l-1 3h-2l-1 3h-2l-3 9 1 12 6 9 8 6 4 2 9 1h8l1 1v8l-8 10-4 3-10 1h-10l-12-5-10-5-3-8 5-6 4-4 1-9-4-8 5-5 3-6 1-13-1-5 7-3 2-1 3-6z" fill="#FE9A08"/>
<path transform="translate(243,469)" d="m0 0 14 1 2 1v2l13-1v-2l15-1 11 1 5 3 4 10-1 6-6 5-9 4-12 5-5 1 3 2-10 5-9 6-6-4-7-2-4-5-2-1-1 2-2-1-2-5 1-6v-16l4-8z" fill="#FEC50E"/>
<path transform="translate(1968,626)" d="m0 0 1 2-7 8-11 11-7 8-6 6h-2v2h-2l-2 4h-2v2h-2l-2 4-10 8-11 9-1 3 2 1-22 22-8 7-8 8-8 7-5 5-3 5-19 19-33 27-12 11-5 3-16 16h-2v2l-4 3h-2v-2l-5 1-9 7-2-1 11-12h2l1-3h2l1-3 5-4h2l2-4 11-9 8-8h2l2-4 6-4 5-5 3-1 1-3 4-3h2l1-3 11-9 10-10 8-7 10-9 7-6 14-16h2v-2l4-3h2l2-4 13-12 5-5 5-4h2l1-3 11-9 10-9 9-7 5-5 4-2 2-4 15-15z" fill="#BE5302"/>
<path transform="translate(474,684)" d="m0 0 1 2-2 4 9 3 14 8 15 1 5 1v-2l-5-4-1-4 10 1-3 3 11 6 10 5 9 4 3 2 1 6 2 1 9 1 5 3v2l5 2 13 11 23 13 7 6v2l4 2 3 3 3 8 3 4-2 4-1 1h-12l-3 2-5-1-2-4 9-4 7-1-3-2-7-3-10-6-2-4-11-9-7-4-6-3-13-7-12-7v-6h-10l-12-3-6-3-24-5-12-3-9-7-2-4-4-4 2-7z" fill="#FEA708"/>
<path transform="translate(393,629)" d="m0 0h5l1 1v5l-4 4-8 7-4 7-5 8-4 4-6 8h-2l-1 4 9-5 6-4 5 1 2 8-3 5-6 2-2 5 2 5 2 1 10-1h9l11 2-3 4h-2v3l8-2 9 1h16l4-2 5-6 1-3 4 5 2 4v6l-5 3-11 4h-26l-7-1h-18l-3-1 1-3 15-7-1-2-5-1h-8l-12 3-18 1-18 5-6 2h-9v-1l13-3 13-5 4-5-2-7-6-5v-3l6-4 3-3 6-2 6-15h2l2-5 15-16 3-4z" fill="#FEA708"/>
<path transform="translate(1679,640)" d="m0 0h1l1 78 1 4h42l5-1 31-1h22l44 1 25 1 6 2v3l-9 4-24 1h-142v-1l66-1-66-1-3-7-3 3-2-1 3-4h-4l-1-5-4-2-1-10h2l-2-5-2-12-1-9 1-12-1-14-1-2 2-6h2l3 3 1 7v16l1 4v9l-1 5v7l1-6h1l1 10 1 9 3-2z" fill="#CA6303"/>
<path transform="translate(1680,709)" d="m0 0 30 1 75 1 86-1v2l3-1-2 4-15 15-14 3h-54v-1l59-2 9-4-1-2-5-1-34-1-48-1h-17l-23 1-10 1h-37l-2-5z" fill="#F2800B"/>
<path transform="translate(540,733)" d="m0 0 5 2v1l-7 2-6 1v2l-12 6-5 4h-2l-2 4-14 15-11 9-1 2h-2l-3 9-7 6-3 2-1 4 24-3 25-4 23-5 17-6 5-1h14l13-3 2-1h8l-1 2-10 4-2 1h-8l-18 6-10 1-5 1v2l-5 3h-3l-1 4-2 2-15 1-5 3-4-1v-3l-16 1-1 4-10 4h-11l-4-2h-12l-10 3h-19v-1l9-2 7-4h2v-2l8-2h5l3-9 7-5 6-3h2v-2l-5 2-11 2-3 10-3 4h-5l-3-2 2-7-6-3-1-1v-6l4-2 15-1 15-4 12-6 11-9 5-6 8-7 7-6 7-4 7-2 4-3z" fill="#FE9909"/>
<path transform="translate(1034,801)" d="m0 0 7 6 6 6v2l4 2 12 14 14 15 6 7 7 6v2l4 2 8 6 7 1 10-7 8-7 3-3h2l2-4 8-8 1 3 5-4h2v-2l10-6 5-5 5-3 2-1-2 4-4 4h-2l-2 4-24 24-1 2h-2v2h-2l-2 4-9 9-9 6-9 2-8-7-12-5-10-8-13-11-8-9-7-10-6-7-3-1-1 2h-2v-10l-10 1 2-4 6-7z" fill="#C96203"/>
<path transform="translate(987,619)" d="m0 0h92l10 2 33 1 20 1v1l-40 1-1 6-8 14-12 24h-3l1-4 13-27 7-12h-330l3-3 11-2 110-1h56z" fill="#BE5202"/>
<path transform="translate(1726,453)" d="m0 0h16l23 1h28l5 2v1l-297 1h-162l-185-1-66-1v-1l14-1h598z" fill="#31291D"/>
<path transform="translate(1687,627)" d="m0 0h133v1l-12 1-16 3h-24l-7-1v2l-22-1h-11l-13 2v-1h-9l-5 3-2 6-2 15-1 15v25l4 5 15 3 1 3-2 1h-34v-81z" fill="#FDC40D"/>
<path transform="translate(1250,746)" d="m0 0 5 2 12 13 7 8 8 7 17 16 30 32 8 7 7 7 8 7 10 8 4 3v2h2l5 6 6 3v2h2l2 2v-3l-4-3v-3l3 1 4 5 2 1h9l5-3 5-5 12-11 8-8 7-8 19-19 5-4 7-8 2-1-2 4-7 8-39 39 6-3 5-3 9-7 13-12 5-4-2 4-16 16-1 2h-2l-2 5h-2v2h-2v2h-2l-2 5h-2v2l-5 5-3 4h-2v2h-2v2l-15 8-8 1-6-7-3-2-10-2-10-6v-2l-4-2v-2h-2l-5-5-9-10-1-3h-2l-6-7v-2h-2v-2h-2v-2h-2v-2h-2l-7-9-3-4v-2h-3l-3-5v-2h-2v-2l-4-2-8-8-3-7-12-10v-2l-4-2-1-3-4-2-13-14-4-2-5 1-10 11-10 6-7 6-2-1 20-20 4-7z" fill="#CA6303"/>
<path transform="translate(768,703)" d="m0 0h12l11 2h57l24 1h13l35 1h24l34 1h27l42 3 3 3h-282l-3-2-1-4 1-4z" fill="#BD5102"/>
<path transform="translate(457,713)" d="m0 0 2 4 4 10 4 5-1 5-3 3-6 1-11-1-13 1-1 5h2l4 5 1 3-1 1-15-1h-12l-1 6 2 4 10 8 2 4-6 2-8-10-5-8-7-4-1-6-3-1v-2l-9-3-9-4h-10l-10 3-15 10-5 5h-2v2l-18 10v4l7 3 7 5v3h-8l-9-4-1-5-11 1v-3l12-10 17-12 18-11h2l1-3 5-3 10-3 12-3 9 4 15 8 3 1h12l13-3 7-1 1-3 12-5 2-9 2-3h2z" fill="#FE920C"/>
<path transform="translate(629,682)" d="m0 0h19l16 4 13 5 2 5-1 6-2 2-8 3-6 5-4 6v5l5 2 4 4-1 4-5 1-12-6-2-2-12-4 1-5 5-7 6-4 3-3v-5h-10l-10 1-13-2-8-3-7-1-9-6v-2l2-1z" fill="#FEC50E"/>
<path transform="translate(543,706)" d="m0 0 14 1 9 3 6 5v7l3 3 8 6 15 5 3 3 6 3 6 5 9 2 2 1h9l12-7 1-11 2-1h6l6 3 8 2-2 4-5 5-13 12-15 14-2 4-5 1-4-6-2-5-5-4v-2l-4-2-8-6-18-10-13-11-5-3-3-3-2-1-9-1-3-2-1-6-7-5z" fill="#FE920C"/>
<path transform="translate(896,408)" d="m0 0h15l10 3 12 7 10 9 1 2-2 1 2 4-10 1-22-3h-18l-13 2-12 5-11 6-3-1 8-16v-3l9-8 14-7z" fill="#F2800B"/>
<path transform="translate(1e3 380)" d="m0 0h12l10 4 12 11 8 14 3 8 1 4v25l-2 7v5l-4 1-5-6-6-13h-2l-5-16-1-8-6-9-15-15-1-6 2-4z" fill="#FDD815"/>
<path transform="translate(498,586)" d="m0 0 4 1 1 1-1 7-2 2 1 5 7 11 12 17 9 9 10 8v2l3 1 7 10 1 2 1 6 1 3 76 3v1l-15 1 24 2 2 2h-12l-26-2-28-1-5 1-1 2h-2l-1 5-4 4v5l-5 2-6-15-4-5-2-1v-2h3l-4-10-8-11-8-9-7-8-9-12-5-8v-2h-2l-2 10-6 16-10 25-6 12-2 7-5 5-8 10-2 6-3 3-2 3-7-16-5-4-2-8h-2l-5-10v-3h2l2 4 7 6 4 7 4-2 4 1 1 1h6l4-4h2l1-5h2l2-5 3-4 9-20 11-31 1-9-7-8v-2l-3-1-1-5 5-2z" fill="#FD9709"/>
<path transform="translate(492,749)" d="m0 0 11 1 3 2-2 6-8 8-10 7-10 5-10 3h-18l-21-8-10-7-5-4-1-7 6-2 11 1 6 3 4 3 15 3 10-1 16-7 4-4z" fill="#FEC40D"/>
<path transform="translate(563,555)" d="m0 0 7 1 1 2v9l4 12 3 10 1 16-2 10-7 7-4 5-10 5h-8l-13-5-7-6-8-15-5-14v-10l3-1 5 2 10 16 4 8 3 4h11l8 1 6-1 4-6 3-8 1-1v-6l-7-16-5-8-5-7v-2z" fill="#FE9A09"/>
<path transform="translate(354,723)" d="m0 0 8 1 4 4-1 4-5 3-7 3-5 4-15 9-17 12-14 11v3l6 2 1 3h5v7h-7l-10-3-6 1-6 5-6 7-3 5-5 5-7 5-4-1 1-8 4-8h2l1-4 5-5 9-8 22-22 7-5 11-6 6-4 6-8 10-8z" fill="#FEA708"/>
<path transform="translate(1544,750)" d="m0 0h2l6 9 13 15 13 14 7 8 20 20 8 10 5 5 11 12 7 8 15 16 16 16 16 12 8 3v2h3v2l-7 1-5-4v-2h-2v-2l-4-2-9-6v-2l-6-2-6-6v-2l-5-2-2-4h-2l-4-5-5-5-11-12v-2h-2v-3l-6-3v-2h-2l-6-8-3-3v-2h-2v-2h-2v-2h-2l-4-5-2-1v-2h-2v-2h-2l-7-8-12-13v-2l-4-2v-2h-2l-4-5-6-4v-2l-4-2v-2h-8l-5 1-2 5-3-1v2l-8 4-7 6-3 1v2h-2v2h-2v2h-2v2h-2v2h-2v2h-2v2l-5 2-2 4-15 14-2 3h-2l-2 4-43 43-1 2h-2l-2 4-8 8-8 7-5 5-6 2 5-5 13-12 25-25 7-8 19-19 7-8 12-12 7-8 12-12 7-8 10-10 7-8 11-12z" fill="#32281C"/>
<path transform="translate(642,666)" d="m0 0 7 1 3 7 3 3 21 5 17 8 2 2 2 6 2 1v2l2 1-4 3h-5l-1 9-8 13-4 6-1 3 5 1 2 3-6-2-3-2-6 1-2 1v-2l-10-2 3-1 5-1-1-4-7-5-1-5 6-8 6-5 8-3 1-6-1-4-19-7-10-2-1-1-8-1v-2l-44-3v-1l40-1 4-7z" fill="#FD9909"/>
<path transform="translate(534,557)" d="m0 0h17l6 4 4 6 6 7 6 14v5l-4 5-1 3h-2v3l-9 3-5-1-10-8-5-1-3-3-2-10-3-6v-15l2-4z" fill="#FEC50E"/>
<path transform="translate(373,556)" d="m0 0h8l7 3 7 12 2 5v11l-2 4v5l-4 3-7 2h-8v-2l-3 1v-2l-5-1-8-4-6-7-1-4v-7l7-10 5-5 4-3z" fill="#FEC50E"/>
<path transform="translate(1251,755)" d="m0 0 4 2 9 12 22 24 6 7 5 5 14 15 7 8 9 10 14 15 7 7v2h2l7 8 7 7 8 7 11 9 12 6 6-1-2 4-2 1h-6l-8-6-6-5-5-3-3-3-3-1v-2l-4-2-9-8v-2h-2v-2h-2v-2h-2v-2h-2v-2h-2l-7-8-13-15-5-6-5-4-1-4h-2v-2l-4-2-4-5-5-5-4-5-5-5-1-3-4-2-9-10-9-7v-2h-2l-2-5-6-2h-3l-1 2h-3-2v3h-2v2h-2v3h-2v2l-9 4-10 9-9 8h-2l-2 4-36 36-1 2h-2v2h-2l-2 4h-2l-2 4h-2v2h-2v2h-2v2h-2v2h-2v2h-2v2h-2l-2 4h-2v2h-2v2h-2l-2 4-5 4-2-1 40-40 7-8 15-15 7-8 15-15 7-8 12-13 7-8z" fill="#32271C"/>
<path transform="translate(1838,480)" d="m0 0 4 1 8 6 3-1 4 1 3 3-2 2 6 4 8 1 7 3 9 6v2h2v2l4 2 14 8 12 10 11 6 8 6 1 3h2v2l4 2 3 2v2l9 3 6 5 5 2v2l5 2 6 5 2 1v2l3 1 8 10 5 9 3 17-1 9-5 7-5 5-7 10-11 12-10 10-8 7-6 5-2-1 9-9 11-9 11-11 10-13 5-10 1-5v-17l-2-9-6-9-9-8-13-7-10-8-19-13-10-7-5-2-1-2-5-2-17-12-4-4-3-1v-2l-5-2-2-2-7-3-14-10-10-7-4-4-7-6z" fill="#34291C"/>
<path transform="translate(1023,850)" d="m0 0 2 1-5 4h-5l-4 3-23 1h-8l-3 1-23 1h-155l-10 6-6 7-1 2h-2v2h-2l-1 4-2 4h-2l-2 4-7 8-5 7h-2v2l-9 6h-2l-2 4-8 7-7 6-2-1 14-14 7-6 7-8 12-13 8-10 11-13 7-8 2-2 185-1 33-2z" fill="#31291D"/>
<path transform="translate(203,393)" d="m0 0 3 1-6 12-10 16-7 11-11 21-6 14-2 3-1 6h-2v4h-2v7l-2 3h-2l-2 6-5 13 1 9-1 2-1 8-2 5h-4-1v-12l2-13 2-1v-3l-4 2v-7l4-15 4-5 5-10 4-14 9-17 10-13 7-11 4-6 8-10z" fill="#FEDB15"/>
<path transform="translate(1541,722)" d="m0 0 5 1 9 10 11 13 18 20 12 12 7 8 14 15 7 8 16 17 14 15 11 11 5 4v3l4 2 8 8 1 5-6-4-5-6-8-7-10-9 4 5 2 4-5-3-18-18-5-3-7-8-6-6v-2h-2l-7-8-9-10-24-24v-2h2v2l4 2 27 27-6-7-5-5v-2l-3-1-12-16v-2h-2l-7-8-12-12-8-12-5-1-6-1-2-1-1-3-4-1-5 3-4 2 6-7z" fill="#AE4D06"/>
<path transform="translate(672,735)" d="m0 0 5 1 12 6v2l5 1 10 8 2 2v7l-2 5h-2l-1 3-6-1-12-6-11-4-3-2-6 3-10 9-7 5-12 5h-5l2-6 7-8 15-14 10-8 4-5z" fill="#FDC30D"/>
<path transform="translate(371,706)" d="m0 0h8l-4 4-13 8-7 4-10 4-5 3h-2l-2 4-13 9-6 4h-2v2l-11 9-9 9-4 3h-7l-5-3v-2l-5-2-4-4v-2l10-2h10l8-2-1-6 3-3h2l1-4 7-3 16-5 4-1 2-5 7-4v-4l-7-1-3-3 2-2 23-4h6l5 1z" fill="#F2800C"/>
<path transform="translate(782,835)" d="m0 0v3l-1 2h-2l-2 5-8 10-9 11-14 15-5 6-8 7-8 8-8 7h-2v2l-11 9-3 1-2 4-5 4-5 2-5 5-3 2h-3v2h-3v2l-15 9-23 12-8 4-9 3-4 1 2-4 7-6 16-8 20-11 18-11 13-11 8-6 3-1 2 1 2-4 7-8 13-13 10-8h3v-2h2l2-5 9-10 5-6 1-2h2v-2l5-5 9-7h2l2-4z" fill="#FEDF4D"/>
<path transform="translate(872,408)" d="m0 0 5 2-1 4-6 2v2h-2l-1 4-7 8-8 12-7 17-3 12v11l3 12 7 14 12 13 2 1v3l-6-1-9-8-12-18-6-15-4-8v-13l3-10 4-11 7-9 8-8 13-10 5-4z" fill="#FED815"/>
<path transform="translate(1851,732)" d="m0 0 3 1-7 7-8 7-12 11-11 10-2-2-17 13-6 4-13 11-20 20h-2l-2 4-3 3h-4v2h-2v4l-5 3-11 6h-3l10-9 11-9 12-11 5-5 16-17 20-20 10-14 6-9 6-5 6-2 16-1z" fill="#FFA808"/>
<path transform="translate(312,307)" d="m0 0 2 2-5 4-5 5-7 4-1 3-11 6-12 8-3 3-4 3h-2v2l-4 2-4 4h-2v2l-11 9-8 7-5 2-10 9-7 3-1-2 6-8 7-9 1-2h2v-2l10-8 7-7 10-7 11-10 11-7 12-5 19-10z" fill="#FED815"/>
<path transform="translate(554,723)" d="m0 0 9 1 10 6 12 10 23 13 7 6v2l4 2 3 3 3 8 3 4-2 4-1 1h-12l-3 2-5-1-2-4 9-4 7-1-3-2-7-3-10-6-2-4-11-9-7-4-6-3-13-7-12-7 2-4z" fill="#FEC50E"/>
<path transform="translate(478,738)" d="m0 0h2l1 6-4 1-1 3-7 7h6l4-6 9-5 20 6-1 5-2 1v-4l-7-2-12 1-6 2-1 3-16 7-10 1-15-3-5-4-5-2v-1h10l-1-5-3-1v-2h-2v-5l1-1 18-1 6 1h9l7-1z" fill="#FE9A09"/>
<path transform="translate(73,459)" d="m0 0h1l-1 7-9 29-9 37-3 19-2 16-1 16v70l-2-3-3-7-2-13-2-9v-16l3-27 2-11v-9l1-1 2-15 5-28 3-13 9-30 6-9z" fill="#3A2B1B"/>
<path transform="translate(333,734)" d="m0 0 2 1-8 10-13 8-7 4-10 9-8 7-5 7-10 8-5 5 2-5 3-3-1-4-8-4-10-3-6-4-7-4-3-2h-15l-8 4-7 1-3-5 1-5 4-6 1 2-3 5v6l6-1 4-6 10-5 5-4 5-1 11 8 4 2 3 2 1 3 14 8 4 2h3v-3l-3-6-5-5 5 2 3 2v2l5 2h7l12-11 10-9h2v-2l11-7z" fill="#FE9909"/>
<path transform="translate(105,832)" d="m0 0 4 5 6 9 7 11 20 26 11 14 33 33 2 1v2l5 2 5 4v2l5 2 10 9 18 11 13 9 12 6 16 10 4 2 3 3 21 9 11 6v1l-7-1-21-9-16-8-20-11-17-11-16-11-14-11-11-9-12-11-10-9-11-12-18-22-9-12-11-16-12-19z" fill="#E6770A"/>
<path transform="translate(230,688)" d="m0 0h5l5 5-4 5 4 2 4 4 9 3 5 8 1 1-1 7-5 4-11 5-4-1-3-9-5-10-1-9-3-1-4 2-1 13-12-12 4-1 2-4 3-1 1-7 3-2z" fill="#FE920C"/>
<path transform="translate(1295,775)" d="m0 0 7 6 14 15 9 10 14 15 15 15 7 8 15 15 3 2v4l4 2 2 3-3 2-1-3h-2v-2l-6-2-5-5v-2h-2v-2l-4-2-13-11-13-12-16-15-9-10-7-7-3-4v-7l-1-5h-2v-3l-2-1z" fill="#AE4D06"/>
<path transform="translate(466,723)" d="m0 0 2 1 3 7 9 4 11-1 2-2-4-6 3-1 3 2 2 4 9 2 2 4h8l6-1h5l3-5 5-1h7l7 3 5 1 1 5 6 2 5 5 2 3-5-1-14-9-10-2 3-2-2-1-6 3-3 2-7 2-10 7-5 4-1-2-12-3-6-1v-2l-6 3-5 3-4 6h-8l6-7 4-4 3-1v-6l-3 2h-9l-2 1h-7l4-2 3-4-1-4v-3l2 2z" fill="#FE920C"/>
<path transform="translate(513,751)" d="m0 0h2l1 4 1 5-10 3-4 4h-2v2l-3 2-2 7-5 4-3 6 9-2 8 1 1 5h-2l-1 3 13-1 20-4 12-4 12-5h17l10-2 5-2 2-2-1-5-1-2 6 2 5 3 6 1-3-6 4 2 11 4-2 2-7 1-7 3h-13l-5 2-10 2h-15l-16 5-13 4-19 4-35 5h-10l1-5 8-6 5-10h2l2-4 10-8 8-8z" fill="#FEA608"/>
<path transform="translate(362,313)" d="m0 0h7l1 5-23 7-20 8-25 12-18 10-13 9-8 6-8 2-2-3 8-9 10-7 10-6 11-6 30-15 34-12z" fill="#FD9809"/>
<path transform="translate(1219,763)" d="m0 0 1 3h5l-1 4-6 7-14 14-7 8-17 17-5 6-12 8-7 6-6 2v2l-7 5-2-1 4-6 6-6h2v-2h2v-2h2l2-4 3-3h2l2-4 8-9h2l2-4 4-2 2-4 20-20 7-8z" fill="#B04E06"/>
<path transform="translate(323,682)" d="m0 0h14l10 4 6 5 1 4-5 6-15 6-11 2h-8l-3-5 4-8 2-3-9-2-1-3 10-5z" fill="#FEC50E"/>
<path transform="translate(623,408)" d="m0 0 7 1 5 12-6 5-5 6-14 10-4 5-3 9-4 2v2h-3l-1 3-3 1-1-1v-8l7-16 7-12 7-9z" fill="#FE9A08"/>
<path transform="translate(393,629)" d="m0 0h5l1 1v5l-4 4-8 7-4 7-5 8-4 4-6 8h-2l-1 4h10l-1 4-10 2-4 9-4 1-5-5-6-5v-3l6-4 3-3 6-2 6-15h2l2-5 15-16 3-4z" fill="#FE9909"/>
<path transform="translate(1188,565)" d="m0 0h172l135 1v1l-69 2h-118l-116-2z" fill="#B54F04"/>
<path transform="translate(1968,626)" d="m0 0 1 2-7 8-11 11-7 8-6 6h-2v2h-2l-2 4h-2v2h-2l-2 4-10 8-11 9-1 3 2 1-22 22-8 7-4 1-10 9-3 1 2-4 10-11 1-5 2-3h2v-2l4-3h2l2-4 13-12 5-5 5-4h2l1-3 11-9 10-9 9-7 5-5 4-2 2-4 15-15z" fill="#BF5302"/>
<path transform="translate(729,750)" d="m0 0 1 4-15 27-11 13-9 11-10 11-7 8-20 20-7 6-4-1 3-3 3-5 7-7h2l2-4h2v-2h2l3-6h2l2-4 6-8 7-12 4-7 6-8 6-4 4-2 6-2 8-16 6-8z" fill="#BE5302"/>
<path transform="translate(654,399)" d="m0 0h5l4 2v2l4 2 9 6 4 5 5 4v4l4 1 6 12-4 4-3 2-2 42-3 15-4 13-5 5-1-2 7-21 2-9v-30l-2-13-5-16-3-6-6-10-11-9z" fill="#BD5102"/>
<path transform="translate(642,666)" d="m0 0 7 1 3 7 3 3 21 5 17 8 2 2 2 6 2 1v2l2 1-4 3h-5l-1 9-2-3-3-6-1-3 1-4-5-2-4-4-19-7-10-2-1-1-8-1v-2l-44-3v-1l40-1 4-7z" fill="#FD9A08"/>
<path transform="translate(535,314)" d="m0 0h12l13 2 10 3 18 8 15 10v2l4 2 6 4 11 8 7 7v2l-5-1-10-7-17-10-15-8-25-10-24-8-2-2z" fill="#FD9809"/>
<path transform="translate(1053,822)" d="m0 0 4 2 10 11 7 8 16 16v2l4 2 8 6 7 1 10-7 8-7 3-3h2l2-4 8-8 1 3 5-4h2v-2l10-6 5-5 5-3 2-1-2 4-4 4-5 3-12 11-13 13-1 2h-2v2l-5 2-1 4h-4-6l-2 5-4 5-8 1-6-3-5-7-3-2v-2l-2-1-7-7-7-8-12-14-6-8v-3h-2z" fill="#C05402"/>
<path transform="translate(1e3 555)" d="m0 0h12l19 2 49 1 95 1 17 1 5 2v1h-117l-46-2h-18l-11-2z" fill="#FEDB15"/>
<path transform="translate(836,819)" d="m0 0h82l7 1 76 2v1l-52 1h-154v-1l15-2 21-1z" fill="#FDA008"/>
<path transform="translate(1497,772)" d="m0 0 1 2-2 4h-2l-2 5h-2v2l-5 5-7 8h2v-2h2v-2l8-7 4-5 3-1-2 4-3 5-31 31-13 12-12 11-6 4-10 6-2-1 45-45 6-9 20-20z" fill="#BD5102"/>
<path transform="translate(1544,739)" d="m0 0 4 2 12 16 49 49-2 1 2 6-5-4-4-6v-2l-4-2-7-6-7-8-3-3v-2h-2v-2l-4-2-4-4v-3h-2v-2l-4-2-15-15-4-1-6 1-2 4-13 9-12 9-3 3h-2v2h-2v2h-2v2l-8 6 2-4 16-16 7-8h2l3-9 7-7 4-2z" fill="#CA6303"/>
<path transform="translate(540,733)" d="m0 0 5 2v1l-7 2-6 1v2l-12 6-5 4h-2l-2 4-14 15-12 10-6 3-2 2-5 2-11 2-3 10-3 4h-5l-3-2 2-7-6-3-1-1v-6l4-2 15-1 15-4 12-6 11-9 5-6 8-7 7-6 7-4 7-2 4-3z" fill="#F17F0B"/>
<path transform="translate(530,559)" d="m0 0 1 2-1 2v15l4 8 1 8 5 3 5 2 8 7 7-1 6-1v-3h2l1-5 3-3 2-3v6l-3 5-3 7-3 4-10 1-8-1h-7l-6-8-5-10-7-11-7-1-3-12 4 2h7l2-6z" fill="#FFA808"/>
<path transform="translate(1544,748)" d="m0 0 6 2 12 13 5 4v2h2l2 6 6 3v2h2l7 8 8 9 6 4 7 10 7 8v2h2l4 5 1 4 7 8v2h2l2 5-5-3-7-7-5-7-5-5-15-16-13-13v-2l-4-2-7-8-11-12-9-11-5-7v-2l-8 7-4 3 2-4z" fill="#F2800B"/>
<path transform="translate(660,602)" d="m0 0 5 5 8 13 10 19 7 21 2 9 1 14 5 3-3 1-6-2-4-1-4-12-1-18-8-14-1-4-3-1v-2l-4-2-1-4 2-2h5l-1-6-9-14z" fill="#FEA608"/>
<path transform="translate(592,779)" d="m0 0h8l-1 2-10 4-2 1h-8l-18 6-10 1-14 5-5 2h-9l-19 4-17 2h-15l-4-2 11-3 35-5 27-6 17-6 5-1h14l13-3z" fill="#F17F0B"/>
<path transform="translate(380,668)" d="m0 0 5 1 2 8-3 5-6 2-2 5 2 5 8 2v2l-12 3-18 1-18 5-6 2h-9v-1l13-3 13-5 4-5-2-6 3 1v2h6l1-5 3-5 10-2 1-3h-7l4-4z" fill="#FEA708"/>
<path transform="translate(291,774)" d="m0 0h3l1 3 11 3 2 2 6 1v6h-7l-10-3-6 1-6 5-6 7-3 5-5 5-7 5-4-1 1-8 4-8h2l1-4 5-5 9-8z" fill="#FDC10D"/>
<path transform="translate(399,759)" d="m0 0 5 2 5 6 7 10 6 7v2l2 1-1 4-6 2-6-1-3-3v-3l-5-2-3-4-14-4-3-3v-4l9-5 4-4z" fill="#FFA808"/>
<path transform="translate(366,739)" d="m0 0h10l18 8 2 3v6l-6 3-19-1-5-2-11-1-1-4 2-7z" fill="#FFA808"/>
<path transform="translate(243,537)" d="m0 0 3 1 4 4 8 5 10 10h4l6-7 8 1 1 1v8l-7 8-5 6-8 7-3 1-2 5-9 12v-3l12-19 1-7-6-9-10-12-7-11z" fill="#FE920C"/>
<path transform="translate(618,788)" d="m0 0 12 3 5 6 6 5 2 1 1 4 6 2-1-8v-3l4 6 1 8-3 3h-8l-6-5-6-4-4-4-6-1h-3v-2l-6 1-9-1-7 4-5 5-1-2h2l-1-6 6-4v-4l2-1 16-2z" fill="#FD9A08"/>
<path transform="translate(1679,640)" d="m0 0h1l1 82-4 1-1 2-2-1 3-4h-4l-1-5-4-2-1-10h2l-2-5-2-12-1-9 1-12-1-14-1-2 2-6h2l3 3 1 7v16l1 4v9l-1 5v7l1-6h1l1 10 1 9 3-2z" fill="#CE6603"/>
<path transform="translate(358,736)" d="m0 0h2l1 3-3 3-17 11-5 5h-2v2l-18 10v4l7 3 7 5v3h-8l-9-4-1-5-11 1v-3l12-10 17-12 18-11z" fill="#F2800C"/>
<path transform="translate(1946,643)" d="m0 0h2l-2 5-5 5-14 12-15 13-9 7-14 14-6 5-5 5h-2v2l-5 1 4-8 11-12 21-21 12-8 5-2 10-9 4-1v-2z" fill="#FEE150"/>
<path transform="translate(498,625)" d="m0 0 1 2-7 20-7 17-6 12-2 7-5 5-8 10-2 6-3 3-2 3-7-16-5-4-2-8h-2l-5-10v-3h2l2 4 7 6 4 7 4-2 4 1 1 1h6l4-4h2l1-5h2l2-5 3-4 9-20 8-22z" fill="#EF7E0B"/>
<path transform="translate(594,492)" d="m0 0h1l3 11 2 1 5 12 9 16 12 20 7 3v2l6-2 7 1-8 8 4 9 8 14 8 11 2 4h-2v-2l-4-2-4-4-4-6-7-14-9-10-7-11-6-7-5-8-1-4-3-3-7-12-6-3-2-15v-7z" fill="#FD9C08"/>
<path transform="translate(294,785)" d="m0 0 8 1 11 5 9 3v6l-2 2-1 6 8 2-3 2-9-3-2-5-9-2-18-2h-5l-3 1 2-4 5-6 6-5z" fill="#FD9909"/>
<path transform="translate(758,677)" d="m0 0 1 3 307 1v1h-294l-2-1-2 4-10 5-2 14-4 8 2 1-7 1-1 6-2 2 2-9 6-16z" fill="#FE9E08"/>
<path transform="translate(1494,512)" d="m0 0 6 1 3 3v2l5 2 10 10 4 6 4 9 3 12v5h-2l-1 2-5-8-8-13-7-9-11-14v-3l-2-1z" fill="#BD5102"/>
<path transform="translate(1592,565)" d="m0 0h190v1l-7 1-131 2h-19l-24-1-8-1z" fill="#CA6303"/>
<path transform="translate(330,471)" d="m0 0h6l5 4 3 10 6 8 3 10 3 6-1 6-2 1h-6l-2-2-3-7-2 2-2-2-1-9-3-7 1-10-4-5z" fill="#FEA808"/>
<path transform="translate(554,735)" d="m0 0 9 3 20 10 9 7 7 6 1 3 6 3 3 5v2h-6l-12-7-5-2-1-3-6-2-3-3v-2h-3v-2l-5-1-2-3v-2l-2-4-5-2-4-2z" fill="#FE9909"/>
<path transform="translate(240,735)" d="m0 0h5l-1 5 10 9 1 3h-5l-2-2-8-1h-6l-6 5-10 5-4 6-5-1-1-4 7-11 10-9z" fill="#FDC20D"/>
<path transform="translate(1956,628)" d="m0 0h7l-1 4-12 12-1 2-2-1 1-2-6 4-4 2v2l-6 4-9 8-7 3-7 5-2-1 4-5h2v-2l8-7 10-10 1-2h2l2-4 2-3h2l2-6 6-2z" fill="#FDC40D"/>
<path transform="translate(244,740)" d="m0 0 4 1 7 6 12 8 7 8 5 5v3l2 1-2 3-4-1-14-7-4-3v-3l-4-2-9-5-5-4-7 2-6 5-4 2h-3l-2 4-2 3h-6v-2l5 1 2-4 2-3 11-6 5-4h8l7 2 5 1-5-5-1-3-4-2z" fill="#FEA708"/>
<path transform="translate(672,747)" d="m0 0 7 1 10 6 6 4 2 3 5 1 1-4-1-6 4 3v7l-2 5h-2l-1 3-6-1-12-6-11-4-3-2-6 3-10 9-7 5-2-1 7-6 5-5 9-8 5-5z" fill="#F2800C"/>
<path transform="translate(1035,824)" d="m0 0h1l2 7 16 20 12 14 15 16 13 10 13 7h5l15-12 2 1-8 8-7 4-4 4h-5l-5-4-4-2v-2l-4-2-6-4-5-4v-2l-4-1-5-5-6-5-2-5-4-2-2-4h-2l-3-5-5-6-4-4v-3l-4-2-2 4-4 2-5-1-1-2 5-7h3l-2-3z" fill="#31281C"/>
<path transform="translate(440,741)" d="m0 0h12l1 1h26l-2 5-11 8-9 1-13-3-5-5-1-5z" fill="#FFA808"/>
<path transform="translate(519,1033)" d="m0 0h6v2l-12 2-9 3h-9l-4 2h-13l-1 2h-3-50l-1-1-10-1-10-2-5-2-12-3v-1h8l35 5 32 1 28-2 26-4z" fill="#32291D"/>
<path transform="translate(1848,735)" d="m0 0h2l-2 4-20 18-12 11-2-2-17 13-6 4-7 6-2-1 5-5 17-16h2l2-4 17-14 14-10z" fill="#FDC20D"/>
<path transform="translate(619,221)" d="m0 0 6 1 9 4 12 5 21 11 9 7 7 4 4 6-2 2-6-1-10-7-15-9-4-5-8-4-6-4-10-4-7-5z" fill="#31281C"/>
<path transform="translate(133,878)" d="m0 0 5 4 6 8 9 11 11 12 7 8 13 12 13 11 17 13 16 11 19 12 18 10 16 8 5 3-2 1-25-12-19-11-30-20-9-7v-2l-4-2-11-8-4-2-6-7-3-1-3-5-6-3-3-5-2-1v-2h-2l-4-7-5-4-1-3-7-6-2-5-5-5z" fill="#31281C"/>
<path transform="translate(372,793)" d="m0 0 11 1 18 6 1 1h9l5 1 14 1 4 2v3l-6 4-10-3-7-2-19-2-15-3-5-4-3-1 1-3z" fill="#F2800C"/>
<path transform="translate(226,701)" d="m0 0 4 2 1 9 7 14v5l7-1v2l-7 5-8 1-1-6-6-8-2-5v-15z" fill="#FD9709"/>
<path transform="translate(498,586)" d="m0 0 4 1 1 1-1 7-2 2 1 5 7 11 12 17 9 9 10 8v2l3 1 7 10 1 2v5l-3-1-2-6-4-6-8-7-10-10-2 1-11-15-5-8v-2h-2l-2 10-2 3-1-3 3-10-1-7-6-6v-2l-3-1-1-5 5-2z" fill="#FE9E08"/>
<path transform="translate(233,753)" d="m0 0h5l2 4 7 1 1 4h2l3 3 10 5v2h2v2l9 3 5 5-9 11v-3l4-5-1-4-8-4-10-3-6-4-7-4-3-2h-15l-6 3-2-1 5-6 7-1h2l2-5z" fill="#F2800B"/>
<path transform="translate(765,554)" d="m0 0h23l53 3 12 2 1 2h-19l-66-1-4-3z" fill="#FFE556"/>
<path transform="translate(1639,812)" d="m0 0h2l7 8 25 25 13 10-4 1-1 2-7-3-8-6-8-7-7-8-10-14-1-5z" fill="#FEC40D"/>
<path transform="translate(331,805)" d="m0 0 6 1 5 3 12 6 4-1-1-5 4-2 5 1 2 2-1 5-1 2 6 2 1 5 13 2 3 1h11l9-3 11 4 1 1v6l2 1-5-1-3-2-22-3-19-4-5-5-22-6-10-4-10-1z" fill="#F2800C"/>
<path transform="translate(677,500)" d="m0 0h1l-1 8-7 16-9 14-6 7h-3v-4l-3-1 1-7 5-5 12-13v-2h2l2-5z" fill="#FED915"/>
<path transform="translate(425,399)" d="m0 0h21l16 4 8 4 6-1 2 6-2 3-5-1-9-5-8-5-3-1h-36l-1 4-1 8-1 1-19 2-4 2-3-1 8-4 11-4 8-10 2-1z" fill="#F88E0A"/>
<path transform="translate(850,556)" d="m0 0 20 4 28 1 98 1v1h-134l-64-1-21-1v-1h76l-4-1z" fill="#FEB00B"/>
<path transform="translate(838,554)" d="m0 0h12l21 1h59l-1 2-14 3-1 1-16 1-28-1-19-4-13-2z" fill="#FFDC16"/>
<path transform="translate(1527,517)" d="m0 0 6 1 5 3 7 7 9 11 8 8-1 5-9-2-7-8-18-22z" fill="#FFE556"/>
<path transform="translate(564,990)" d="m0 0h6l-3 2-18 5-29 6-28 4-12 1h-57l-24-3-11-2v-1l27 1 24 3h29l34-3 25-4 31-7z" fill="#FC9E08"/>
<path transform="translate(291,399)" d="m0 0 18 1 8 2 17 8 10 8 7-1 3-3 4-1 2 2-6 2-5 7-5-2-16-10-15-5-3-3h-10l-2 2 3 6-1 2-4-3-5-2-3-4 1-5z" fill="#FEA708"/>
<path transform="translate(457,713)" d="m0 0 2 4 4 10 4 5-1 5-3 3-6 1-14-2-1-4 8-5 2-9 2-3h2z" fill="#F2800C"/>
<path transform="translate(1346,515)" d="m0 0 60 2v1l-18 1h-121l-10-1v-1l62-1h17z" fill="#BD5202"/>
<path transform="translate(678,692)" d="m0 0 6 5 2 1v6l3 4 1 8-7 11-4 3-4-10 1-7 4-5-4-1h-8l1-2 8-3 1-6z" fill="#FEA708"/>
<path transform="translate(905,373)" d="m0 0h77l6 2v1h-143v-1l17-1h38z" fill="#30261C"/>
<path transform="translate(592,768)" d="m0 0 6 2 5 3 6 1-3-6 4 2 11 4-2 2-7 1-7 3h-13l-5 2-10 2h-15l-16 5-13 4-19 4h-5l1-2 26-5 12-4 12-5h17l10-2 5-2 2-2-1-5z" fill="#FE9E08"/>
<path transform="translate(363,797)" d="m0 0 7 2 2 3 13 3 7 2 1 2 10 2-1 2-4 1h-19l-6-4-1-3-14-2-1-3h2l-1-4z" fill="#FFA808"/>
<path transform="translate(1726,453)" d="m0 0h16l23 1h28l5 2v1h-25l-131-1 1-2h57z" fill="#30261C"/>
<path transform="translate(392,817)" d="m0 0h7l5 3 16 3 5 2 9 1 3 3-1 2-7 2-3 2-5-3-1-3-11-4-9 3h-9v-3l-1-5z" fill="#FE920C"/>
<path transform="translate(364,671)" d="m0 0 1 2-2 5 4-1h8l-1 4-10 2-4 9-4 1-5-5-6-5v-3l6-4 1-2z" fill="#FE920C"/>
<path transform="translate(1544,748)" d="m0 0 3 1 5 6 5 5 7 8v2h2l1 3 4 3v2h2l9 11 15 16 16 16-1 4-7-7-7-8-16-16v-2l-4-2-7-8-11-12-9-11-5-7v-2l-8 7-4 3 2-4z" fill="#F9A90A"/>
<path transform="translate(1163,831)" d="m0 0v3l-25 25-1 2h-2v2h-2l-2 4-9 9-9 6-9 2-5-5 1-2 8 1 4-2 3-4 2-5h7v2l3-2 1-3 5-2v-2h2l2-4 20-20z" fill="#CA6303"/>
<path transform="translate(187,426)" d="m0 0 1 2-1 3h-2l-1 5h-2l-2 7h-2l-2 6-4 10-4 8-2 8-6 15-10 30-2 7h-1v-8h2l-2-4 1-9 7-15h2l1-4 1-6h2v-4h2v-6l5-10 11-23 6-10z" fill="#FDBD0D"/>
<path transform="translate(331,797)" d="m0 0h2v2h9l11 4 1 3 7 1-3 3 1 4-5 2-16-8-3-2-6 1 1-5-1-4z" fill="#FE9909"/>
<path transform="translate(63,710)" d="m0 0 2 2 4 12 6 17 4 7 7 16 4 11v2h2l5 10 6 10 1 6-4-4-6-9-6-14-4-7-3-7-9-18-4-12-5-18z" fill="#F5870B"/>
<path transform="translate(295,423)" d="m0 0h7l4 6v3l2 4 4 1 2 7 2 1 2 12h-3v-2l-4-2-8-13-9-11-1-5z" fill="#FE920C"/>
<path transform="translate(1838,773)" d="m0 0 2 1-24 24-8 7-12 12h-2v2l-8 7-11 11-11 9-14 12-7 7-4 3-2-1 7-7 8-7 14-13 11-9 9-9 8-7 15-15 8-7 10-10 8-7z" fill="#322A1D"/>
<path transform="translate(285,733)" d="m0 0 4 1 3 6 1 5-8 6-12-1-2-1 1-5 4-6 2-2h3v-2z" fill="#FE9A09"/>
<path transform="translate(349,729)" d="m0 0 10 1-1 5-7 4-3 3-13 8-6 1 1-4h2l2-5 3-7 10-3v-2z" fill="#FEC10D"/>
<path transform="translate(778,845)" d="m0 0 1 2-7 12h-2l-2 4-3 4h-2v2l-8 7-13 13-6 5-3 4h-2v2l-4 4h-2v2l-5 2 6-8 13-13h2l2-4h2l2-4 14-15 12-15z" fill="#C25702"/>
<path transform="translate(1136,652)" d="m0 0 1 3-6 13-4 9-1 9-8 12-10 14-5 1 2-5 3-5h2l1-5 4-5 7-15 8-14 4-9z" fill="#BD5102"/>
<path transform="translate(405,746)" d="m0 0 16 2 1 2-5 3-6 1-1 6 2 4 10 8 2 4-6 2-8-10-5-8-4-4-1-4 3-5z" fill="#F2800C"/>
<path transform="translate(1047,424)" d="m0 0h1l1 22 3-2h5l6 6v2l15 3v1h-32l-1-1v-9l1-4z" fill="#30261C"/>
<path transform="translate(613,791)" d="m0 0h8l10 11 9 4 3 3-1 4 9 1v1h-8l-6-5-6-4-4-4-6-1h-3v-2l-6 1-9-1-7 4-2 2 1-4 1-2 10-4z" fill="#F2800C"/>
<path transform="translate(325,718)" d="m0 0h11l1 4-6 3-2 2-1 4-7 3h-7l-2-1 1-4 2-2-1-3 1-3 4-2z" fill="#FE9909"/>
<path transform="translate(522,636)" d="m0 0 7 6 10 10 4 3 3 5 2 6v5l4 2 1 6h3v10l1 5h-3l-5-13-4-5-2-1v-2h3l-4-10-8-11-8-9-4-5z" fill="#F2800B"/>
<path transform="translate(540,733)" d="m0 0 5 2v1l-7 2-6 1v2l-12 6-5 4h-2l-2 4-14 15-8 7-4-2 1-3 11-8 7-8 8-7 7-6 7-4 7-2 4-3z" fill="#F2810B"/>
<path transform="translate(683,925)" d="m0 0 3 1-10 8-15 9-10 4-17 9-25 11-3-1 4-3 20-9 16-8 16-9 12-6 5-2z" fill="#FEAD09"/>
<path transform="translate(250,605)" d="m0 0h2l-1 6-6 12-7 11-4 4h-5l1-5 12-20 5-5z" fill="#FEA408"/>
<path transform="translate(630,784)" d="m0 0 6 1 8 6 4 5 2 5v8l-6-1-1-5-3-1-2-5h-2l-1-3-3-2v-2l-4-2z" fill="#FDC20D"/>
<path transform="translate(272,339)" d="m0 0h3v3h-2l-2 4-5 5-13 10-11 9-7 5-4 1 2-4 8-8 8-6 3-3h2v-2l5-2 1-3 4-1v-2l6-4h2z" fill="#CD6503"/>
<path transform="translate(65,684)" d="m0 0 3 1 3 10 3 15 4 16 1 9-3-1-4-14-4-10-3-9-1-10z" fill="#FFE556"/>
<path transform="translate(547,540)" d="m0 0 10 1 3 3 1 5 13 2 1 5-4 5-1-5-8-1-5-2-2-4-1-4h-7l-9 1-8-1 2-2 9-2z" fill="#FFA808"/>
<path transform="translate(964,471)" d="m0 0 2 1 3 6-1 11-1 4h-2l-2 7-7 9-5 4-4 5-5 3 2-4 7-8 8-14 4-12z" fill="#FED714"/>
<path transform="translate(1870,716)" d="m0 0h2l-1 4-11 12-4 4-11 9-14 13-7 5-8 8-2-1 7-8 8-7 16-15 11-9z" fill="#AE4D06"/>
<path transform="translate(577,210)" d="m0 0 7 1 19 7 16 7 13 6 19 10 21 13 15 10 6 5h-3l-10-7-11-7-12-8-12-6-18-10-18-8-15-6-12-3-2-1v-2z" fill="#C46106"/>
<path transform="translate(1853,744)" d="m0 0v3l-20 20-33 27-4 2 6-7 13-12 4-5h2v-2l9-9 12-6z" fill="#CA6303"/>
<path transform="translate(1250,722)" d="m0 0 4 4 4 7 13 14 7 8 3 3-1 2-10-10-5-4-9-6-3-1-5-5-4 2-3-1 5-6z" fill="#AF4D06"/>
<path transform="translate(680,635)" d="m0 0 3 4 7 21 2 9 1 14 5 3-3 1-7-3-1-1-1-8v-16l-6-13z" fill="#FB9509"/>
<path transform="translate(470,742)" d="m0 0h9l-2 5-7 5-11-1-6 1-4-2 1-5 10-2z" fill="#FEC50E"/>
<path transform="translate(105,832)" d="m0 0 4 5 6 9 7 11 20 26 11 14 2 2-1 4-9-10-10-13-11-15-13-20-6-10z" fill="#EF830A"/>
<path transform="translate(1497,516)" d="m0 0 5 2v2h2v2l3 1 7 9 4 8v6h-3l-8-11-11-14z" fill="#AC4B06"/>
<path transform="translate(243,537)" d="m0 0 3 1 4 4 8 5 10 10h4l1 3-4 4h-5l-1-3-4-1-9-11-7-11z" fill="#FC9609"/>
<path transform="translate(672,747)" d="m0 0 7 1 10 6 6 4 2 3 5 1 1-4-1-6 4 3v7l-2 5h-2l-1 3-6-1-6-8-1-4h-4l-5-6-7-1-3 2 2-4z" fill="#FC9909"/>
<path transform="translate(462,824)" d="m0 0h5v2h15l2 2-7 4 1 1 7 1-4 2h-8l-9-2-6-5v-2l-3-1z" fill="#FB8D0C"/>
<path transform="translate(1780,789)" d="m0 0 2 1-24 24h-2l-2 4-3 3h-4v2h-2v4l-5 3-11 6h-3l10-9 11-9 12-11 9-7z" fill="#FEC50E"/>
<path transform="translate(1648,862)" d="m0 0 6 4 7 7 15 12 8 4 1 3 4 1 1 3h-7l-13-10-10-9-12-12z" fill="#F08B07"/>
<path transform="translate(1087,842)" d="m0 0 7 6 7 1h14l9-1-9 9-5 2h-6l-11-9-6-6z" fill="#FEB009"/>
<path transform="translate(237,707)" d="m0 0 5 1 10 5 1 2v6l-6 5-5-1-6-14z" fill="#F2800C"/>
<path transform="translate(195,943)" d="m0 0 6 4 13 10 16 11 19 12 18 10 16 8 5 3-2 1-25-12-19-11-30-20-9-7v-2l-4-2-4-3z" fill="#332B1E"/>
<path transform="translate(319,710)" d="m0 0 4 1-17 5-14 4-12 3-10 5-7 3-1 2-9 3-6 3h-3l5-5 15-6 31-14z" fill="#FE9A09"/>
<path transform="translate(1477,823)" d="m0 0v3l-44 44-1 2h-2l-2 4-8 8-8 7-5 5-6 2 5-5 13-12 25-25 7-8 9-9 8-7z" fill="#32291D"/>
<path transform="translate(1257,499)" d="m0 0h79v1l-58 1-5 1h-18l-8 3-1 8 1 2 4 2h-6l-2-3v-14z" fill="#BF5402"/>
<path transform="translate(275,555)" d="m0 0h2l-1 11-3 6-7 8-6 10-7 9v-3l12-19 1-7-5-9h2l1 2h5l3-3z" fill="#F2800C"/>
<path transform="translate(1445,565)" d="m0 0h81l-1 3h-67v-1l-13-1z" fill="#BD5503"/>
<path transform="translate(665,406)" d="m0 0 1 2 5 2 2 4h2v2l4 2 6 8-1 4-3 1v5l-3-1-5-13-5-7-2-4-2-1z" fill="#AD4C06"/>
<path transform="translate(543,706)" d="m0 0 8 1 9 3 1 3 4 2-1 4-3 2-7-1-5-6-7-5z" fill="#F2800C"/>
<path transform="translate(372,673)" d="m0 0h6l3 3-1 5-8 3-4 5-3 5-2 1h-6l-2-1 1-2h4l1-5 3-5 10-2 1-3h-7z" fill="#FE9A08"/>
<path transform="translate(337,789)" d="m0 0 7 1 1 3 8 2 13 1 1 2h-9l1 4h-2l1 2 7 1v1h-8l-12-5-12-2v-1l11-2-1-3-3-1v-2z" fill="#FEA608"/>
<path transform="translate(466,695)" d="m0 0h1v7l-3 9h2v2l3 1-2 1-3-1 1 3-2 2v5l-2 1-4-10-1 3h-2l-2 6-2-1 1-4 2-3h2l1-9 4-2 2-3 1-4z" fill="#FF920D"/>
<path transform="translate(1094,623)" d="m0 0h15l-4 2h-3l-1 6-8 14-12 24h-3l1-4 13-27 6-10 2-2-8-1z" fill="#B04D05"/>
<path transform="translate(1497,772)" d="m0 0 1 2-2 4h-2l-2 5h-2v2l-5 5-7 8-5 4-4 2-2 4h-3l2-4 3-5 20-20z" fill="#B14E06"/>
<path transform="translate(262,732)" d="m0 0 5 1-6 11-3 2-6-1-6-5 2-3 9-4z" fill="#F2800C"/>
<path transform="translate(637,757)" d="m0 0 4 1v3l-8 7-3 2h-6l-2-7 2-4z" fill="#F2800C"/>
<path transform="translate(413,401)" d="m0 0h35v1l-33 1-1 4-1 8-1 1-19 2-4 2-3-1 8-4 11-4z" fill="#FD9E08"/>
<path transform="translate(354,723)" d="m0 0 8 1 4 4-1 4-5 3h-2l1-5h-12v2l-10 3 6-7 7-4z" fill="#FFA808"/>
<path transform="translate(569,750)" d="m0 0 7 1 2 1v2l4 2 12 9 12 5 1 3-4 1-12-7-5-2-1-3-6-2-3-3v-2h-3v-2h-3z" fill="#F3820B"/>
<path transform="translate(371,797)" d="m0 0 4 2v2l14 2 10 2 12 1 15 5 1 2h-8l-8-4h-8l-4-1-10-1-12-3-6-2-1-4z" fill="#FE940B"/>
<path transform="translate(376,702)" d="m0 0h11l4 2-20 10-2-1 8-6-9 1-7 1-1-1h-11l4-2 13-2z" fill="#FF920D"/>
<path transform="translate(642,666)" d="m0 0 7 1 3 7 3 4-11-1h-11l-5-1v-1l7-1 4-7z" fill="#FEA708"/>
<path transform="translate(498,586)" d="m0 0 4 1 1 1-1 7-2 2 1 5 4 7h-2l-1 3-3-7-5-5v-2l-3-1-1-5 5-2z" fill="#FEA708"/>
<path transform="translate(587,779)" d="m0 0h5l-2 2-13 3h-15l-16 5-13 4-19 4h-5l1-2 26-5 12-4 12-5h17z" fill="#FE9F09"/>
<path transform="translate(564,990)" d="m0 0h6l-3 2-18 5-29 6-28 4h-5l4-3 25-3 30-6 16-4z" fill="#FA9609"/>
<path transform="translate(844,461)" d="m0 0h1v28l4 10 6 9 6 8 1 2-4-2-9-11-5-11-3-12v-11l2-9z" fill="#BD5302"/>
<path transform="translate(379,643)" d="m0 0 2 1v5l-3 4-2 5-9 6h-2l1-8h2l2-5 7-7z" fill="#F2810B"/>
<path transform="translate(1936,684)" d="m0 0 2 1-15 15h-2v2h-2v2l-8 7-13 13-11 9-7 6-2-1 7-7 8-7 12-11 15-14 12-11z" fill="#332B1D"/>
<path transform="translate(380,654)" d="m0 0 1 2-3 5-4 4-6 8h-2l-1 4 2 1h-4l1-6-6 2-4-1 6-2 4-10 1 3 7-4 5-1z" fill="#FE9D08"/>
<path transform="translate(1496,781)" d="m0 0v3l-4 6-26 26-4 1v-2h2v-2h2l2-5 5-4 5-6h2v-2h2v-2l8-7 4-5z" fill="#B45005"/>
<path transform="translate(1255,757)" d="m0 0h2l4 4 1 3 8 7 4 5v2h2v2h2v2h2v2h2l1 3 8 7v3l-4-1-7-8-12-13-10-12z" fill="#F8AB0B"/>
<path transform="translate(959,491)" d="m0 0 1 4-6 11-6 8-7 7-5 2 2-5 4-5h2l1-3 3-3 1-3h2l2-6 3-5z" fill="#BE5302"/>
<path transform="translate(392,557)" d="m0 0 3 2v2l7 1 1 1-1 9-3 3-4-1-5-10v-6z" fill="#FE930C"/>
<path transform="translate(263,572)" d="m0 0h2v7l-13 20-7 11h-2l2-6 9-16z" fill="#C05602"/>
<path transform="translate(1875,699)" d="m0 0 4 1-6 9h-16l-2-1 2-4 13-4z" fill="#FEC40D"/>
<path transform="translate(545,669)" d="m0 0 1 4h-3v2l4 2 5 8 2 8-2-1-4-10-9-3-13-4 1-3 12-1 6 1z" fill="#FE9D08"/>
<path transform="translate(1466,802)" d="m0 0v3l-9 10-38 38-1 2h-2l2-4 9-9 7-8 19-19 5-4 7-8z" fill="#D97706"/>
<path transform="translate(531,409)" d="m0 0 9 3 4 3 17 3 7 2-2 5-1 2h-5l-1-4v-2l-14-2-7-5-5-2-7 1 2-3z" fill="#F8900A"/>
<path transform="translate(287,794)" d="m0 0 8 1 4 3 6 1h7l3 1 2 9h-2l-2-5-9-2-23-3 4-4z" fill="#F2800C"/>
<path transform="translate(574,745)" d="m0 0 9 3 9 7 7 6 1 3 3 3-9-3-11-9v-2h-2l-5-5z" fill="#FFA808"/>
<path transform="translate(443,676)" d="m0 0 4 3 4 7 4-2 4 1 7 2-1 4-3 3h-7l-8-9-4-7z" fill="#FE980A"/>
<path transform="translate(328,790)" d="m0 0h7l9 3v3l-4 2h-10l-6-2 1-4z" fill="#FEC50E"/>
<path transform="translate(1577,787)" d="m0 0 5 2 15 16 16 16-1 4-7-7-7-8-16-16v-2l-4-2z" fill="#F59607"/>
<path transform="translate(1893,694)" d="m0 0 7 3-5 5-7 6-5 2-1-6z" fill="#C96102"/>
<path transform="translate(591,673)" d="m0 0 37 1v1l-15 1 24 2 2 2h-12l-35-3z" fill="#FE9A08"/>
<path transform="translate(639,555)" d="m0 0 7 1-8 8 3 7-1 2-6-7-6-8v-2h9z" fill="#F3840B"/>
<path transform="translate(1365,876)" d="m0 0 11 7 5 4 7 3v2l6 3v2l-7-1-9-6-12-10z" fill="#F28D08"/>
<path transform="translate(1954,567)" d="m0 0h6l-2 5 2 1-7 3-14-2-3-3 13-2 3 1 1-2z" fill="#FE910C"/>
<path transform="translate(556,672)" d="m0 0h27l8 1v2l3 1-2 1h-22l-2-3-12-1z" fill="#F98F0A"/>
<path transform="translate(321,405)" d="m0 0 5 1 11 6 7 6 7-1 3-3 4-1 2 2-6 2-5 7-5-2-12-8-3-3-2-1v-2l-6-2z" fill="#F8900A"/>
<path transform="translate(219,662)" d="m0 0h1v9h5l6-2 2 1-1 1-1 7-1 1h-6l-4 4-2-1 1-7z" fill="#FF920D"/>
<path transform="translate(493,407)" d="m0 0 9 3 10 6 7 5 4 1 2-9h1v8l-1 6-6-2-8-6-8-5-10-5z" fill="#F99309"/>
<path transform="translate(571,806)" d="m0 0 5 1v1l-6 2-10 6-3 1h-11l-5 5-3-1 2-2 3-4 9-3 7-1 1 2 6-2 1-3z" fill="#F2800C"/>
<path transform="translate(561,556)" d="m0 0 5 2 2 2 1 9-1 3h-2l-8-10-2-5z" fill="#EC7B0A"/>
<path transform="translate(498,625)" d="m0 0 1 2-7 20-7 17-6 12-1 6h-1l-1-5-1-2 5-7 9-20 8-22zm-25 52 2 1-2 1z" fill="#F5880A"/>
<path transform="translate(693,709)" d="m0 0 1 3-6 13-2 10-1 1h-7l1-5 7-10 5-10h2z" fill="#B24F05"/>
<path transform="translate(1379,862)" d="m0 0 3 1 4 5 2 1v2l6 2v3h-2v2h-6l-6-5v-3h-2v-2l-4-2h3l2 1v2h2l2 2v-3l-4-3z" fill="#C05502"/>
<path transform="translate(1033,807)" d="m0 0h1l2 8 5 5 2 4-4-2-4-3 1 5-2 4v-10l-10 1 2-4z" fill="#BD5503"/>
<path transform="translate(617,413)" d="m0 0h2l-1 7-5 3-6 12h-2v-2h-2l1-5 8-10z" fill="#FE930C"/>
<path transform="translate(351,678)" d="m0 0 5 2v2h-2v2h6l-1 5h-2v2l-5-2-7-6v-3z" fill="#F2800C"/>
<path transform="translate(1670,857)" d="m0 0 5 3 10 5 4 1h9l7-4 2 1-9 6-3 1h-12l-8-7-5-4z" fill="#FBAC0C"/>
<path transform="translate(1087,882)" d="m0 0 12 6 5 4 1 4-6-1-9-6-5-4v-2z" fill="#F59008"/>
<path transform="translate(1520,515)" d="m0 0 4 2 1 4 3 1 13 17 7 11-1 2-11-14-8-11v-2h-2l-6-8z" fill="#F8900A"/>
<path transform="translate(1778,830)" d="m0 0m-1 1m-1 1m-2 1 2 1-8 9-11 9-10 9-8 7-2-1 7-7 8-7 14-13z" fill="#332C1E"/>
<path transform="translate(385,807)" d="m0 0 7 1 1 1 10 2-1 2-4 1h-12l-6-2z" fill="#FEC50E"/>
<path transform="translate(1607,807)" d="m0 0 4 2 6 6v2h2l7 8 11 12-2 1-27-27z" fill="#F17F0B"/>
<path transform="translate(1038,798)" d="m0 0 5 2 6 4-1 7-6-2-7-7v-2h3z" fill="#FEC412"/>
<path transform="translate(503,609)" d="m0 0 3 1 11 16-1 3h-2l-9-14v-2h-2l-2 10-2 3-1-3 3-10z" fill="#FD9B09"/>
<path transform="translate(564,1021)" d="m0 0 4 1-9 3-8 4h-8v2l-14 3-3-1 2-2 26-7z" fill="#332B1D"/>
<path transform="translate(241,977)" d="m0 0 5 1 19 11 16 8 7 4-2 1-25-12-19-11z" fill="#322A1D"/>
<path transform="translate(488,744)" d="m0 0 20 6-1 5-2 1v-4l-11-3-9 1-6 3h-3l5-5z" fill="#FE9A09"/>
<path transform="translate(1657,701)" d="m0 0h1l2 23 5 3 14 2v1h-20l-2-2z" fill="#AE4C06"/>
<path transform="translate(274,717)" d="m0 0h7l-3 3h-5l-1 3-12 6h-2l-1-3 5-4z" fill="#FEC40D"/>
<path transform="translate(1387,852)" d="m0 0h7l6 2v2l2 1-4 3-9-2-6-4z" fill="#FEAF09"/>
<path transform="translate(644,238)" d="m0 0 5 2 15 9 14 9 13 9 2 3-5-2-8-6-11-7-12-8-12-6z" fill="#BC5605"/>
<path transform="translate(411,753)" d="m0 0h6v1l-5 1 1 7 11 8 10 5 3 2-13-1-5-5-8-7-2-4 1-6z" fill="#FE9C09"/>
<path transform="translate(1274,760)" d="m0 0 4 1v2h2v2h2v2h2l4 6 1 4-5-2-11-11-1-3z" fill="#CA6303"/>
<path transform="translate(639,572)" d="m0 0 3 1 8 14 8 11 2 4h-2v-2l-4-2-4-4-4-6-7-14z" fill="#FB9809"/>
<path transform="translate(668,709)" d="m0 0h4l1 3-6 9-4-1-3-2 2-5z" fill="#FF920D"/>
<path transform="translate(651,733)" d="m0 0 6 1 8 3-2 4-1 1h-5l-8-5z" fill="#F2800C"/>
<path transform="translate(1579,557)" d="m0 0 5 1 3 3-1 2h-21l5-4 4-1z" fill="#FFDC16"/>
<path transform="translate(641,760)" d="m0 0 3 1-8 7-4 5-3 3-4-1-3-5-2-5-1-2 4 1 1 6 7-2 8-6z" fill="#FE9A09"/>
<path transform="translate(305,400)" d="m0 0 10 1 6 3v2l6 2v2l5 2-2 1-10-4-7-2-3-3v-2l-5-1z" fill="#FC9D08"/>
<path transform="translate(1306,813)" d="m0 0 4 2 8 10 12 13-1 3-10-10-7-8-6-7z" fill="#EE8908"/>
<path transform="translate(224,715)" d="m0 0 5 2 2 2 2 9-1 2-4-2-1-4-3-1-1-7z" fill="#FFA808"/>
<path transform="translate(187,426)" d="m0 0 1 2-1 3h-2l-1 5h-2l-2 7h-2l-2 6-4 10-5 9-1-2 7-16 11-21z" fill="#FEC10D"/>
<path transform="translate(1433,867)" d="m0 0 2 1-3 4h-2l-2 4-8 8-8 7-5 5-6 2 5-5 13-12z" fill="#352E1F"/>
<path transform="translate(1613,822)" d="m0 0 6 5 8 10 1 3h2l2 5-5-3-7-7-5-7-3-3z" fill="#F18B09"/>
<path transform="translate(595,675)" d="m0 0h33l14 2-3 2-44-3z" fill="#F2800C"/>
<path transform="translate(341,1022)" d="m0 0 7 1 35 9 2 2-3 1-6-2-5-1-8-2-7-1-6-3-9-3z" fill="#332B1E"/>
<path transform="translate(388 1e3)" d="m0 0 27 1 8 2v2h-9l-26-4z" fill="#FC9C09"/>
<path transform="translate(270,794)" d="m0 0h1l-1 7h-1l-3 9-1 2-5-1 1-6 2-4 3-1 1-2h2z" fill="#FED114"/>
<path transform="translate(681,494)" d="m0 0 2 3-2 11-4 8-4 2 3-10 4-13z" fill="#BA5203"/>
<path transform="translate(186,293)" d="m0 0 2 1-33 33v-3l10-10 7-8 12-11z" fill="#F4BA28"/>
<path transform="translate(657,718)" d="m0 0 7 6 6 6v2l6 2-8 4v-2l-10-2 3-1 5-1-1-4-7-5z" fill="#FFA808"/>
<path transform="translate(1978,645)" d="m0 0h2l-2 4-16 16-8 7-6 5-2-1 9-9 11-9 11-11z" fill="#31281D"/>
<path transform="translate(1678,849)" d="m0 0 10 3 8 3 6 1-3 2-8 1-5-2-5-5z" fill="#FEB009"/>
<path transform="translate(1544,748)" d="m0 0 3 1 5 6 5 5 2 7-5-4-8-11v-2l-8 7-4 3 2-4z" fill="#FBA90B"/>
<path transform="translate(763,554)" d="m0 0 2 4 1 1 11 1v1l-9 1v2l1 7-3 3-2-2z" fill="#FF920D"/>
<path transform="translate(622,547)" d="m0 0 4 5 7 3v1h-5l11 15-1 2-8-9-7-11-3-4h2z" fill="#FEA108"/>
<path transform="translate(380,195)" d="m0 0h16l-4 2-19 3h-7l3-3z" fill="#322A1D"/>
<path transform="translate(1677,886)" d="m0 0 5 2 3 2v2l4 1 1 3h-7l-7-5z" fill="#F69508"/>
<path transform="translate(668,752)" d="m0 0v3l-5 5-10 9-7 5-2-1 7-6 5-5 9-8z" fill="#FC9D08"/>
<path transform="translate(214,686)" d="m0 0h2l1 6-5 2-1 5-3 1-2-1 1-6z" fill="#FEC50E"/>
<path transform="translate(1519,555)" d="m0 0 3 1 3 6v2h-13l1-3 5-4z" fill="#FED514"/>
<path transform="translate(651,747)" d="m0 0h7l-12 12-2-4 1-4z" fill="#FE9B08"/>
<path transform="translate(535,702)" d="m0 0 8 1 8 3-4 1h-4v3l-7-2-2-2z" fill="#FE920C"/>
<path transform="translate(260,404)" d="m0 0 2 1-11 8-9 10-7 12-1-3 6-10 9-10 9-7z" fill="#F2800C"/>
<path transform="translate(258,754)" d="m0 0 6 1 5 5v4l-5 1-2-4-4-4z" fill="#FEC50E"/>
<path transform="translate(499,824)" d="m0 0 12 1 9-1 11 1v1l-13 1-24 1 3-3z" fill="#F2800C"/>
<path transform="translate(1302,798)" d="m0 0 4 2 13 13 7 8 2 3-4-2-19-19z" fill="#F2800C"/>
<path transform="translate(363,797)" d="m0 0 4 1 1 3-2 4h-8l-1-3h2l-1-4z" fill="#FEC50E"/>
<path transform="translate(71,733)" d="m0 0 2 2 4 9 7 15 3 10-2-1-7-16v-2h-2l-5-14z" fill="#FE9E08"/>
<path transform="translate(1094,623)" d="m0 0h15l-4 2h-3l-1 6-4 7-2-3 2-6 3-3-8-1z" fill="#B04D05"/>
<path transform="translate(1838,480)" d="m0 0 4 1 8 6 3-1 4 1 3 3-5 2-7-3-8-7z" fill="#31291D"/>
<path transform="translate(140,884)" d="m0 0 5 3 10 12-1 4-9-10-5-6z" fill="#EA8009"/>
<path transform="translate(294,785)" d="m0 0 8 1v1h-7l-1 3-8 4-6 7h-2l2-4 5-6 6-5z" fill="#FFA808"/>
<path transform="translate(377,747)" d="m0 0h9l2 4h-2v2h-8l-2-1z" fill="#FEC50E"/>
<path transform="translate(1554,720)" d="m0 0 6 2 6 5 1 6-4-2-9-8z" fill="#FE9C09"/>
<path transform="translate(61,707)" d="m0 0 2 3 5 17-1 8-2-4-4-16z" fill="#BC5804"/>
<path transform="translate(1922,540)" d="m0 0 5 2 10 7 16 11 2 3-4-2-9-5v-2l-4-1v-2l-4-1-12-9z" fill="#BA5505"/>
<path transform="translate(538,549)" d="m0 0h5l1 2-2 4 8 1v1h-16z" fill="#FFA808"/>
<path transform="translate(1094,863)" d="m0 0 5 2 9 2 4-2 4 1-7 5-7-1-8-6z" fill="#FDB70C"/>
<path transform="translate(105,832)" d="m0 0 4 5 6 9 7 11v4l-4-5-12-19z" fill="#E27509"/>
<path transform="translate(550,736)" d="m0 0 5 1v2l6 2 5 5 2 3-5-1-9-6z" fill="#F4850B"/>
<path transform="translate(1036,716)" d="m0 0h17l-4 2 2 2-19 1 1-3z" fill="#FEC50E"/>
<path transform="translate(1894,689)" d="m0 0 4 1-9 9-6 5-5 5h-2v2l-2-1 5-6 8-7 3-1 2-5z" fill="#FAAB0B"/>
<path transform="translate(421,645)" d="m0 0 5 5 7 10 4 7-1 3-2-1-6-11-7-11z" fill="#FEA708"/>
<path transform="translate(648,798)" d="m0 0 4 4 2 10-2 2-6-1v-4h4l-1-8z" fill="#FC9B09"/>
<path transform="translate(1049,844)" d="m0 0 7 6v2l4 2 6 8 2 4-4-2-9-10-6-8z" fill="#EE8808"/>
<path transform="translate(584,755)" d="m0 0 7 6 10 5 5 1 3 5v2l-4-1h2l-3-3-11-5-11-8z" fill="#FE970A"/>
<path transform="translate(434,757)" d="m0 0 6 2 14 2h8l5-1-1 2-9 2-16-2-6-3z" fill="#FFA808"/>
<path transform="translate(1841,744)" d="m0 0m-1 1m-1 1m-1 1m-1 1m-2 1 2 1-21 21-2-1 7-8 8-7z" fill="#B04E05"/>
<path transform="translate(540,733)" d="m0 0 5 2v1l-7 2-6 1v2l-8 4h-2l2-4 2-2 7-2 4-3z" fill="#F3830B"/>
<path transform="translate(263,572)" d="m0 0h2v7l-4 6h-3v2h-2l1-5z" fill="#BA5203"/>
<path transform="translate(844,569)" d="m0 0h21l4 2-2 1h-21l-6-1z" fill="#FF920D"/>
<path transform="translate(610,531)" d="m0 0 4 4 7 8 1 6h-3l-7-11z" fill="#FC9809"/>
<path transform="translate(349,558)" d="m0 0h5v8l-4 3h-2v-10z" fill="#F2800C"/>
<path transform="translate(1873,722)" d="m0 0 1 3-17 16-2-1 9-10z" fill="#AC4A06"/>
<path transform="translate(166,468)" d="m0 0h1l-1 7-6 15h-1v-9h2v-4h2v-6z" fill="#FCB50C"/>
<path transform="translate(1940,570)" d="m0 0h8l4 3v2h-9l-7-3z" fill="#FE9A09"/>
<path transform="translate(294,722)" d="m0 0 4 1-2 4h-13l2-4z" fill="#F2800C"/>
<path transform="translate(754,704)" d="m0 0 1 2-3 6 2 1-7 1-1 6-2 2 2-9 3-8z" fill="#FA9609"/>
<path transform="translate(1243,501)" d="m0 0h5l-2 12 1 2 4 2h-6l-2-3z" fill="#A94A07"/>
<path transform="translate(641,399)" d="m0 0 9 2 9 5 4 5-4-1-12-7-6-3z" fill="#F88E0A"/>
<path transform="translate(1293,797)" d="m0 0 3 2v2h2l8 10v2l-4-1-9-11z" fill="#F79708"/>
<path transform="translate(215,692)" d="m0 0h2l-2 6-5 6-2-1v-2l-3-1v-6l2-1-1 6 5-1 1-5z" fill="#FDA308"/>
<path transform="translate(1966,625)" d="m0 0v3l-3 2v-2h-44v-1l45-1z" fill="#FD9A09"/>
<path transform="translate(494,595)" d="m0 0 4 2v3h2l5 9h-2l-1 3-3-7-5-5-1-4z" fill="#FEA208"/>
<path transform="translate(547,990)" d="m0 0h5v2l-11 3h-10l2-2 10-2z" fill="#FFE556"/>
<path transform="translate(592,768)" d="m0 0 6 2 3 3v3l-8 3-2-1 3-3-1-5z" fill="#FEA608"/>
<path transform="translate(307,767)" d="m0 0 2 1-8 7 1 2 6 2 1 3h5v1h-6l-4-3-6-1-1-3z" fill="#FE9D09"/>
<path transform="translate(1851,491)" d="m0 0 5 1 1 2 9 5 7 5 1 3-4-2-15-10z" fill="#7D4813"/>
<path transform="translate(1721,878)" d="m0 0h2l-2 4-9 8-4-1h2l2-4z" fill="#EE8A08"/>
<path transform="translate(104,803)" d="m0 0 1 2 3 1 6 11 6 9-1 2-9-13-6-9z" fill="#F5890A"/>
<path transform="translate(488,748)" d="m0 0h6l-2 2-9 2-3 1-1 3-9 4-3-1 11-6 4-3z" fill="#FFA808"/>
<path transform="translate(1725,878)" d="m0 0 2 1-10 9-8 6-6 2 4-4 11-8z" fill="#322A1D"/>
<path transform="translate(1671,859)" d="m0 0 7 6 5 6-1 3-9-8-1-4z" fill="#BF5402"/>
<path transform="translate(518,820)" d="m0 0 4 1 1 1v3h-9l-6 1 1-4 8-1z" fill="#FF920D"/>
<path transform="translate(1036,803)" d="m0 0 7 6 4 4v2l3 1-3 1-11-9z" fill="#C05402"/>
<path transform="translate(549,797)" d="m0 0 5 1-2 4-3 2h-5l-1-3h2l1-3z" fill="#FEC50E"/>
<path transform="translate(425,775)" d="m0 0h6l6 3v2l-6 1-7-4z" fill="#F2800C"/>
<path transform="translate(75,766)" d="m0 0 6 4 2 9-4 1-4-11z" fill="#AA4A07"/>
<path transform="translate(1085,653)" d="m0 0 3 1-7 15h-3l1-4z" fill="#B45005"/>
<path transform="translate(386,636)" d="m0 0 3 2-1 4-6 1-1 2-4-2 5-5z" fill="#FE940C"/>
<path transform="translate(335,607)" d="m0 0h2l-1 4-1 7 3 4-5-1-3-8z" fill="#FFA808"/>
<path transform="translate(608,972)" d="m0 0 2 1-5 3-13 5-3-1 5-4 12-3z" fill="#FFE556"/>
<path transform="translate(1936,684)" d="m0 0 2 1-15 15h-2v2h-2v2l-4 1 6-7 10-9z" fill="#342D1E"/>
<path transform="translate(1032,801)" d="m0 0h1v7l-5 6-4-1 1-3 4-4z" fill="#FEDF4C"/>
<path transform="translate(368,620)" d="m0 0 3 1-1 5-8 4-2-4 4-1 2-4z" fill="#FE920C"/>
<path transform="translate(342,580)" d="m0 0 1 3-2 11-3-3-2-6z" fill="#FFA808"/>
<path transform="translate(675,516)" d="m0 0 1 2-7 12-4 5-2-1 8-14z" fill="#C55803"/>
<path transform="translate(681,440)" d="m0 0h2l2 8v10l-3-2z" fill="#B04E05"/>
<path transform="translate(1914,705)" d="m0 0 2 1-18 18-2-1 13-14z" fill="#32291D"/>
<path transform="translate(688,689)" d="m0 0 5 1 2 2 2 6 2 2-2 3h-3l-2-3 1-7-5-3z" fill="#FEA508"/>
<path transform="translate(710,943)" d="m0 0 2 1-11 10-10 7-2-1 16-13z" fill="#332C1E"/>
<path transform="translate(1148,866)" d="m0 0 1 2h-2l-2 4h-2v2h-2v2h-2l-2 4-5 4-2-1 16-16z" fill="#352E1F"/>
<path transform="translate(350,804)" d="m0 0 11 3-3 3-4 1h-3l-2-6z" fill="#FF920D"/>
<path transform="translate(1577,787)" d="m0 0 5 2 9 10-2 2-7-7v-2l-4-2z" fill="#EF9808"/>
<path transform="translate(260,730)" d="m0 0 3 1-1 2-9 3-6 3h-3l5-5z" fill="#FE960A"/>
<path transform="translate(1077,671)" d="m0 0 1 3-8 14-1-4 6-12z" fill="#BE5503"/>
<path transform="translate(1548,552)" d="m0 0h2l6 8 5 4h-3v3l-3-1-6-11z" fill="#FA920A"/>
<path transform="translate(531,409)" d="m0 0 9 3 4 3 8 1v1l-8 1-6-4-5-2-7 1 2-3z" fill="#F99309"/>
<path transform="translate(685,728)" d="m0 0 2 3-2 5h-7l1-5h3 2z" fill="#BF5402"/>
<path transform="translate(219,684)" d="m0 0 2 1-1 4-3 3-1-6-8 7v-3l5-5z" fill="#FDA108"/>
<path transform="translate(603,976)" d="m0 0h5l-3 2-15 6h-3v-2z" fill="#FCAC0B"/>
<path transform="translate(462,408)" d="m0 0 7 2 4 1 3-3 2 4-2 3-5-1-9-5z" fill="#FEA708"/>
<path transform="translate(1135,875)" d="m0 0h2l-2 4-6 6h-2l-2 4h-2l2-4z" fill="#EB8309"/>
<path transform="translate(1036,815)" d="m0 0 5 5 2 4-4-2-4-3 1 5-2 4v-12z" fill="#A14909"/>
<path transform="translate(754,694)" d="m0 0 2 3-1 7-3 3h-2l1-7z" fill="#FEA809"/>
<path transform="translate(691,669)" d="m0 0h1l1 14 5 3-3 1-6-4 1-7z" fill="#F2810B"/>
<path transform="translate(1537,535)" d="m0 0 5 5 6 10-1 2-9-11z" fill="#F9920A"/>
<path transform="translate(849,500)" d="m0 0 3 4 8 11 2 3-4-2-9-11-1-3z" fill="#C15602"/>
<path transform="translate(1216,792)" d="m0 0 2 1-11 12-3 2 1-4z" fill="#E57C0A"/>
<path transform="translate(698,700)" d="m0 0 3 2-4 3h-5v6h-1l-2-10 5 1 3 1z" fill="#F2800C"/>
<path transform="translate(443,676)" d="m0 0 4 3 4 7 4-2 4 1 1 2h-4l-6 1-4-5-3-5z" fill="#FEA308"/>
<path transform="translate(160,329)" d="m0 0 3 3-3 1v3h-2l-2 5-6 4 2-4 2-3h2l2-6z" fill="#FEC50E"/>
<path transform="translate(368,810)" d="m0 0 6 3-3 5-5-1z" fill="#FF920D"/>
<path transform="translate(1590,800)" d="m0 0 4 2 9 9v2l-4-2-9-9z" fill="#FCAA0A"/>
<path transform="translate(640,775)" d="m0 0 3 1-7 5 3 6-5-2-2-4 4-4z" fill="#F88F0A"/>
<path transform="translate(504,544)" d="m0 0h5l4 6h6l-2 2h-6l-3-5h-3l-2 3v-5z" fill="#FFA808"/>
<path transform="translate(559,421)" d="m0 0h9l-3 6h-5l-1-4z" fill="#FEA308"/>
<path transform="translate(419,770)" d="m0 0 7 1 8 4 3 2-13-1z" fill="#FE980B"/>
<path transform="translate(1549,755)" d="m0 0h3l5 5 2 7-5-4-5-7z" fill="#FAAF0B"/>
<path transform="translate(211,753)" d="m0 0 1 2-3 5v6l7 1v1l-7 1-3-5 1-5z" fill="#F58A0B"/>
<path transform="translate(660,602)" d="m0 0 5 5 6 9v2l-3-1-8-12z" fill="#FB9909"/>
<path transform="translate(187,426)" d="m0 0 1 2-1 3h-2l-1 5h-2l-2 7-2-3 7-12z" fill="#FEBB0C"/>
<path transform="translate(350,675)" d="m0 0 2 1-2 1zm-2 2 2 1-5 2 3 5 4 4-5-2-5-5 1-3z" fill="#FE9A0A"/>
<path transform="translate(1830,477)" d="m0 0 11 7 4 4-5-1-9-6z" fill="#FDC611"/>
<path transform="translate(587,779)" d="m0 0h5l-2 2-13 3-3-1 5-3z" fill="#FE9C09"/>
<path transform="translate(1510,766)" d="m0 0 1 3-10 10h-2v-2h2l2-4z" fill="#B04C05"/>
<path transform="translate(259,406)" d="m0 0 2 1-12 11-4 2 6-8z" fill="#FE940B"/>
<path transform="translate(113,849)" d="m0 0 5 5 5 8v3l-4-2-2-5-4-7z" fill="#332B1D"/>
<path transform="translate(1171,823)" d="m0 0v3l-5 5-5 3-4 2 6-7z" fill="#C25902"/>
<path transform="translate(1814,768)" d="m0 0 2 1-2 4-8 4 1-3 4-3h2zm-10 9 2 1-5 4-2-1z" fill="#C66104"/>
<path transform="translate(296,764)" d="m0 0 2 1-6 6-5 1-5-3 2-1h7z" fill="#FE950B"/>
<path transform="translate(1855,729)" d="m0 0h2l-2 4-7 1-6 1-2-2z" fill="#FD9709"/>
<path transform="translate(1873,711)" d="m0 0v3l-11 11v-3l8-10z" fill="#FDB30C"/>
<path transform="translate(364,671)" d="m0 0 1 2-2 8-3 1-1-5 3-5z" fill="#F2800C"/>
<path transform="translate(384,420)" d="m0 0 2 1-5 6-10-1-2-4 8 3 6-4z" fill="#FA9509"/>
<path transform="translate(341,1022)" d="m0 0 7 1 11 3 1 2-4 1-6-3-9-3z" fill="#322A1D"/>
<path transform="translate(1035,824)" d="m0 0h1l2 7 2 2v3h-4l-2-2z" fill="#3B3923"/>
<path transform="translate(1816,790)" d="m0 0h3l-2 4-7 6-1-2h2l1-4z" fill="#E58009"/>
<path transform="translate(556,672)" d="m0 0h27v1l-11 1-3 1-1-1-12-1z" fill="#FE9F08"/>
<path transform="translate(219,662)" d="m0 0h1l1 10 2 4-3 7-2-1 1-7z" fill="#F2800C"/>
<path transform="translate(1868,723)" d="m0 0h2l-2 4-7 7h-2l2-4z" fill="#CA6303"/>
<path transform="translate(699,689)" d="m0 0 5 1v7l-3 2z" fill="#FECF13"/>
<path transform="translate(651,590)" d="m0 0 4 4 5 6v2h-2v-2l-4-2-3-3z" fill="#F99309"/>
<path transform="translate(79,444)" d="m0 0 1 4-3 8h-2l1-9z" fill="#432F1A"/>
<path transform="translate(641,760)" d="m0 0 3 1-8 7-4 5-2 2 1-5 5-5z" fill="#FEA009"/>
<path transform="translate(1250,722)" d="m0 0 4 4-1 3-7 1z" fill="#D57104"/>
<path transform="translate(1958,665)" d="m0 0 2 1-7 7-5 4-2-1 9-9z" fill="#332C1E"/>
<path transform="translate(1902,526)" d="m0 0 6 2 7 5 1 3-4-2-10-7z" fill="#7C4713"/>
<path transform="translate(410,405)" d="m0 0 1 3-1 2h-2l-2 4-8 1 1-2 6-2z" fill="#F2800C"/>
<path transform="translate(1413,887)" d="m0 0 2 1-8 8-6 2 5-5z" fill="#322A1D"/>
<path transform="translate(1749,856)" d="m0 0 2 1-8 8-4 3-2-1 7-7z" fill="#32291D"/>
<path transform="translate(138,846)" d="m0 0 3 1 4 5-2 4-5-7z" fill="#FFE556"/>
<path transform="translate(416,736)" d="m0 0h6l-2 4-4 1-2-1z" fill="#FF920D"/>
<path transform="translate(209,705)" d="m0 0 5 1 5 5 2 6-9-9z" fill="#F2800C"/>
<path transform="translate(1894,689)" d="m0 0 4 1-9 9-1-3h2l2-5z" fill="#FCB30C"/>
<path transform="translate(430,658)" d="m0 0h2l5 9-1 3-2-1-4-8z" fill="#FE9E08"/>
<path transform="translate(133,878)" d="m0 0 5 4 5 8-4-2-4-4z" fill="#32291D"/>
<path transform="translate(291,786)" d="m0 0m-1 1m-1 1m-1 1m-1 1m-2 1h2l-2 5-5 5h-2l2-4z" fill="#FDA108"/>
<path transform="translate(1220,759)" d="m0 0h2l-1 4-8 7v-3l2-3h2l2-4z" fill="#C15F06"/>
<path transform="translate(763,554)" d="m0 0 2 4 1 1 11 1v1l-9 1-4 2z" fill="#FB970A"/>
<path transform="translate(352,557)" d="m0 0 6 1-1 5-3 3v-8z" fill="#FF920D"/>
<path transform="translate(1243,500)" d="m0 0h17v1l-9 2h-3v-2h-5z" fill="#B75204"/>
<path transform="translate(547,728)" d="m0 0 8 5 7 4-3 1-13-7z" fill="#FFA808"/>
<path transform="translate(368,668)" d="m0 0 1 3-1 2h-2l-1 4 2 1h-4l1-8z" fill="#FE990A"/>
<path transform="translate(1832,478)" d="m0 0 6 2 6 4 1 3-4-2-9-6z" fill="#804812"/>
<path transform="translate(877,411)" d="m0 0 4 2-12 7-1-2h2v-2l5-3z" fill="#FEBF0C"/>
<path transform="translate(880,408)" d="m0 0h6v3l-7 1-1-3z" fill="#FED814"/>
<path transform="translate(386,1034)" d="m0 0h8l6 1-2 2-10-1z" fill="#332B1E"/>
<path transform="translate(1500,767)" d="m0 0 2 1-5 5-3 2 2-4zm-8 8 2 1-3 3-2-1z" fill="#BF5B05"/>
<path transform="translate(310,751)" d="m0 0m-1 1m-1 1m-2 1h2l-2 4-7 6-2-1z" fill="#FE970A"/>
<path transform="translate(526,739)" d="m0 0 6 1-2 2-6 3h-2l2-4z" fill="#F6880B"/>
<path transform="translate(269,717)" d="m0 0h5l-2 2-10 4-2-1 4-3z" fill="#FFA808"/>
<path transform="translate(478,671)" d="m0 0h2l-2 11h-1l-1-5-1-2zm-5 6 2 1-2 1z" fill="#FA9409"/>
<path transform="translate(1553,553)" d="m0 0 11 7 1 2-5-1-7-6z" fill="#FFDC16"/>
<path transform="translate(610,527)" d="m0 0 4 5 3 6-3-1-3-5-2 1-1-3z" fill="#FE9F08"/>
<path transform="translate(535,314)" d="m0 0 5 1v2l2 1v2l-9-3z" fill="#FD8F0C"/>
<path transform="translate(376,196)" d="m0 0m-3 0 3 1v2l-3 1h-7l3-3z" fill="#31281C"/>
</svg>
