<?xml version="1.0" encoding="UTF-8"?>
<svg version="1.1" viewBox="0 0 1228 2048" width="1280" height="1280" xmlns="http://www.w3.org/2000/svg">
<path transform="translate(0)" d="m0 0h1228v2048h-1228z" fill="#45201D"/>
<path transform="translate(593,35)" d="m0 0h72l16 2 6 2 2 1 1 15v112l1 74 8 1h10l50-4 81-3h63l12 1 6 3 8 6 1 2v1563l-2 1-20 1h-200l-13-1-2-1 1 6v131l-1 51-1 8-2 1-28 2-47 1h-85l-7-1-1-10-1-60-3-119v-16l-30 1h-60l-121-2-9-1v-1393l1-145 2-14 3-2 27-1 147-1h40v-49l1-46 1-96 1-13 2-2 28-3z" fill="#FD2C19"/>
<path transform="translate(524,32)" d="m0 0 23 1 141 1 5-1 3 3 1 5 2 37 1 14v25l2 51 1 48 1 13 3 4h35l18-1h120l50 2 1 2v145h-1l-1-134-5-5-6-4-3-1-21-1h-55l-80 3-50 4h-13l-5-2-1-3-1-71v-127l-12-3-12-1h-72l-42 2-28 3-1 1-1 13-1 96-2 95-40 1-147 1-27 1-2 1-2 14-1 147v1373l-1 18 130 2h90l1 16 3 119 1 70h92l47-1 30-2 1-59h1v59l-1 3-7 1-13 1-150 1-7 3h-6l-2-1-1-3-2-42-1-48-1-101-2-1-69-3-56-1-69-3-11 1-6-2-2-6-2-29-1-9v-220l1-70v-75l1-41 1-63v-92l1-39v-113l-1-16v-126l1-59v-52l-1-40v-24l-1-90v-49l-1-23v-34l-1-34v-27l-1-26v-159l1-60 5-2 17-1 63-1 26-1 101-2 2-1 2-12 2-47 3-42 1-4 3-2-1-5-3-1v-5h2v2l3-1v-10l-2-5-2 1v-6l2-4-2-4v-14h2l1-10 3-13 3-9 5-3z" fill="#580614"/>
<path transform="translate(517,208)" d="m0 0h1v38l-40 1-147 1-27 1-2 1-2 14-1 147v1373l-1 18 130 2h85v1l-40 2-57 1h-30l-29 1h-34l-14-2-11-3-2-2-1-8-1-24v-27l1-23v-1262l1-134-1-43 2-23 2-11 4-3 3-1h93l73 1 45 1z" fill="#970B16"/>
<path transform="translate(689,33)" d="m0 0 5 1 2 2 1 5 2 37 1 14v25l2 51 1 48 1 13 3 4h35l18-1h120l50 2 1 2v145h-1l-1-134-5-5-6-4-3-1-21-1h-55l-80 3-50 4h-13l-5-2-1-3-1-71v-127l-12-3-12-1h-72l-42 2-28 3-1 1-1 13-1 96-1 46h-1v-140l1-18 4-2 8-1 58-2h99z" fill="#970B16"/>
<path transform="translate(506,1872)" d="m0 0 2 2 5 20 3 17 1 6h2l1-14h1l1 36 1 70h92l47-1 30-2 1-59h1v59l-1 3-7 1-13 1-150 1-7 3h-6l-2-1-1-3-2-42-1-48v-40l1-8z" fill="#970B16"/>
<path transform="translate(689,28)" d="m0 0h8l1 4 3 1 1 3 2 33 2 74v84l26 1 82 1 26 1h35l55 2 1 4-1-2h-23l-27-1h-120l-23 1h-30l-4-5-1-17-1-46-2-52v-22l-2-28-1-23-2-6-5-1-1 1-93-1v-1l60-1 15-1z" fill="#580614"/>
<path transform="translate(694,1841)" d="m0 0h1l1 116 4 9v30l-2 16-5 3-5 1-30 2-25 1-11 1h-54l-61-3-1-3v-24h1l1 24h8l7-3 150-1 20-1z" fill="#590614"/>
</svg>
