<?xml version="1.0" encoding="UTF-8"?>
<svg version="1.1" viewBox="0 0 768 2048" width="1280" height="1280" xmlns="http://www.w3.org/2000/svg">
<path transform="translate(362,66)" d="m0 0h44l16 1 7 4 4 5 2 8v121l90-1 43 1 7 2 7 8 1 2 1 36v1428l-1 139-3 8-4 6-6 5-8 3-19 1h-108v125l-2 9-7 8-6 1h-69l-5-2-6-7-2-6-1-26v-101l-120-1-11-2-8-6-6-8-2-5-1-9v-1593l3-7 7-7 2-1h136v-112l1-13 4-7 6-5 2-1z" fill="#F0261D"/>
<path transform="translate(577,267)" d="m0 0 1 3 2-1 1-2 1 1v1535l-2-3v-5h-2l-1 3h-2l-1-2v-9l-1-4 1-10-1-2-1-72v-24l-1-64-1-65v-981l1-94v-33l2-94v-11l2-29v-12l1-5v-18z" fill="#DD1816"/>
<path transform="translate(432,1857)" d="m0 0h1v88l-1-2-2 6-1 5h-2l-1 5-1-4v-83l2-6 4-4z" fill="#DD1816"/>
<path transform="translate(432,132)" d="m0 0h1l1 16v50h-1l-1-35-1-21z" fill="#DD1816"/>
</svg>
